<svg width="66" height="85" viewBox="0 0 66 85" fill="none" xmlns="http://www.w3.org/2000/svg">
<path d="M29.0409 84.0234C35.0543 80.7411 39.9853 75.7523 43.1177 69.6577C46.3132 63.4928 47.4351 56.3306 46.4618 49.4963C45.5568 43.1799 42.8594 36.1183 37.2847 32.4628C34.595 30.71 31.4227 29.9196 28.2215 30.3209C25.1538 30.715 22.1915 32.0663 19.8691 34.1182C14.9959 38.4486 13.4119 45.4754 14.78 51.6998C15.4873 54.871 16.8138 58.1154 19.3763 60.2362C22.1498 62.5461 25.906 62.5158 29.257 61.9191C35.5745 60.7867 41.4246 57.2056 45.3757 52.1498C49.3899 47.0236 51.1206 40.4836 50.475 34.0193C49.8212 27.6491 46.8996 21.6295 42.0959 17.3971C37.4876 13.3147 31.3579 11.0133 25.2109 10.8527C23.7369 10.799 22.2464 10.9336 20.7869 11.1466C19.4608 11.3524 19.6553 13.4548 21.0207 13.2335C26.5609 12.3172 32.3897 13.5116 37.1995 16.3795C42.1891 19.3579 45.8145 24.0555 47.4678 29.6225C49.1604 35.174 48.7878 41.3593 46.2786 46.6177C43.7694 51.876 39.1711 56.0978 33.7975 58.3557C31.1029 59.4651 28.0806 60.2044 25.1874 60.1209C23.6587 60.0436 22.1547 59.684 20.9277 58.7611C19.8102 57.8857 18.945 56.7291 18.2999 55.4402C15.735 50.324 15.6785 43.627 18.688 38.716C21.5632 34.0395 27.4805 31.2037 32.8845 32.702C38.6958 34.3119 42.0091 40.4038 43.5063 45.8055C45.2434 51.9296 45.0331 58.641 42.9519 64.6384C40.8945 70.581 37.0209 75.8332 31.9853 79.6375C30.7895 80.5182 29.5389 81.3752 28.2262 82.0751C27.7466 82.3553 27.3994 82.8556 27.632 83.4447C27.8574 83.9005 28.5458 84.2643 29.0409 84.0234Z" fill="white"/>
<path d="M21.8908 6.58102C21.2045 7.48758 20.5338 8.43342 19.9416 9.34824C19.5943 9.84855 19.3019 10.3726 19.0094 10.8967C18.7014 11.3815 18.4482 11.8901 18.4534 12.4782C18.4474 13.8426 20.0051 14.4534 21.014 15.0538C22.0229 15.6543 23.04 16.1607 24.0964 16.6515C25.3565 17.1982 26.1884 15.2808 24.9284 14.7341C24.0518 14.3538 23.199 13.9187 22.3855 13.4681C21.9865 13.2624 21.6113 13.002 21.2123 12.7963C21.0324 12.6858 20.7977 12.5514 20.6179 12.4408C20.5631 12.417 20.4928 12.354 20.438 12.3302C20.4535 12.3695 20.469 12.4088 20.5238 12.4326C20.5548 12.5111 20.5311 12.5659 20.5621 12.6445C20.5703 12.5504 20.5941 12.4956 20.5703 12.5504C21.0044 11.925 21.4395 11.0722 21.8818 10.3528C22.4265 9.54751 22.9711 8.74226 23.5706 7.96077C24.3364 6.7958 22.6876 5.4946 21.8908 6.58102Z" fill="white"/>
</svg>
