<svg width="45" height="191" viewBox="0 0 45 191" fill="none" xmlns="http://www.w3.org/2000/svg">
<path d="M42.3514 1.51699C41.7689 3.55387 41.5011 5.63179 41.548 7.75077C41.5497 7.80924 41.5393 7.86743 41.5177 7.92165C41.496 7.97588 41.4634 8.02495 41.4221 8.06575C41.3807 8.10655 41.3315 8.13819 41.2774 8.15868C41.2234 8.17916 41.1657 8.18802 41.1082 8.18472C38.4379 8.0518 35.8576 7.51033 33.3673 6.56031C33.1913 6.48994 33.0447 6.38047 32.9274 6.2319C31.5825 4.48824 29.8702 3.25674 27.7903 2.53739C27.6574 2.49047 27.5909 2.53738 27.5909 2.67812C27.5909 2.72504 27.5889 2.77391 27.585 2.82473C27.5733 2.92638 27.6124 3.00262 27.7023 3.05344L30.5231 4.60162C30.573 4.62878 30.6167 4.666 30.6515 4.71093C30.6863 4.75587 30.7113 4.80753 30.7251 4.86265C30.7389 4.91778 30.7411 4.97516 30.7315 5.03117C30.722 5.08719 30.7009 5.14061 30.6697 5.18805L29.4206 7.11742C29.3033 7.29726 29.2466 7.49469 29.2505 7.70972C29.403 13.1518 28.9338 18.5118 29.1508 25.6252C29.1586 25.8012 29.1019 25.9536 28.9807 26.0826C28.8713 26.1999 28.8361 26.37 28.8752 26.5928C29.1019 27.84 29.2955 29.1204 29.4557 30.434L29.8428 33.0495C29.4323 34.3709 29.661 35.6161 30.5289 36.785C30.5567 36.8249 30.5964 36.8548 30.6423 36.8706C30.6882 36.8864 30.7379 36.8871 30.7843 36.8728C30.8306 36.8584 30.8712 36.8297 30.9002 36.7907C30.9291 36.7517 30.9449 36.7046 30.9453 36.656L30.9863 35.4421C30.9902 35.2466 30.8964 35.1333 30.7048 35.102C30.6501 35.0942 30.5915 35.0902 30.5289 35.0902C30.2826 35.0863 30.1165 34.969 30.0305 34.7384C29.7216 33.89 30.0031 33.4033 30.8749 33.2782C30.9619 33.2649 31.0508 33.2701 31.1356 33.2935C31.2205 33.3168 31.2995 33.3577 31.3676 33.4136C31.4356 33.4694 31.4911 33.539 31.5305 33.6177C31.5699 33.6964 31.5923 33.7825 31.5962 33.8705L31.7604 37.5122C31.7625 37.5617 31.7532 37.611 31.7332 37.6563C31.7132 37.7016 31.683 37.7416 31.645 37.7734C31.607 37.8051 31.5622 37.8277 31.5141 37.8394C31.466 37.851 31.4158 37.8515 31.3675 37.8406L30.3295 37.6002C30.0871 37.5454 29.9581 37.6432 29.9425 37.8934L29.9132 38.3508C29.3736 39.0663 29.358 39.6625 29.8663 40.1394C28.9397 41.8401 29.2739 43.0169 30.869 43.6698C30.9981 43.7245 31.1075 43.6991 31.1974 43.5935C31.2405 43.5349 31.262 43.4684 31.262 43.3941C31.2541 43.2182 31.1681 43.095 31.0039 43.0247L30.007 42.6142C29.7881 42.5243 29.6688 42.3601 29.6493 42.1216C29.5593 41.1012 30.0187 40.5597 31.0274 40.4972C31.1063 40.4916 31.1856 40.502 31.2603 40.5279C31.3351 40.5538 31.4039 40.5945 31.4625 40.6477C31.5212 40.7008 31.5684 40.7653 31.6015 40.8372C31.6345 40.9091 31.6527 40.9869 31.6549 41.066L31.7311 44.2855C31.7428 44.7625 31.5122 44.9814 31.0391 44.9423C30.2337 44.8759 29.7626 45.2121 29.6258 45.951L29.4616 48.6896C28.2653 53.5746 29.0101 56.7882 28.7989 61.1748C28.752 62.1482 29.1508 63.0513 29.1097 64.1362L29.0394 66.9159C27.8782 69.9302 28.5761 72.6864 28.5878 75.2374C28.6035 79.6005 28.6191 83.9655 28.6347 88.3324C28.6406 89.4349 28.1773 90.7661 28.8165 92.1149C28.8641 92.2156 28.9385 92.3013 29.0316 92.3623C29.1248 92.4234 29.233 92.4575 29.3443 92.4609C30.3804 92.4883 31.2502 91.9761 31.9539 90.9245C34.1042 87.6952 35.1832 84.3525 35.1911 80.8965C35.1911 80.6814 35.2966 80.6052 35.5077 80.6678C36.8722 81.0704 38.0743 81.7879 39.1143 82.82C39.2628 82.9607 39.3215 83.1327 39.2902 83.336C39.2159 83.8208 39.0459 84.2646 38.78 84.6672C38.6823 84.8158 38.6315 84.98 38.6276 85.1598L38.4458 92.4727C37.6365 93.0786 36.706 93.4012 35.6543 93.4403C31.604 93.5888 27.3641 93.9661 22.9346 94.5721C22.2622 94.2319 21.3219 94.1772 20.1139 94.4079C19.9536 94.4392 19.8598 94.535 19.8324 94.6952C19.8128 94.8047 19.7562 94.9005 19.6623 94.9826C17.0547 94.1655 14.4196 93.9505 11.7572 94.3375C10.7329 93.9387 9.72035 93.7999 8.7195 93.9211C7.9415 93.8273 7.21823 93.5673 6.5497 93.1412C5.20872 85.7287 4.32517 78.2399 3.89903 70.675C3.69378 66.9511 2.85517 62.3887 2.90209 58.1194C3.00764 48.1912 1.37736 38.3743 1.95793 28.9327C2.12604 26.239 2.09281 24.1005 1.85824 22.5171C1.56502 20.5115 2.35671 17.4328 2.30393 15.046C2.22183 11.1228 2.66751 7.31094 2.33325 3.37598C2.31852 3.20673 2.24776 3.04688 2.13221 2.92189C2.01667 2.79691 1.863 2.71398 1.6957 2.68632C1.5284 2.65866 1.35709 2.68786 1.20906 2.76927C1.06103 2.85068 0.944799 2.97962 0.878896 3.13554L0.439072 4.14421C-0.0339834 2.7915 0.0715794 1.93532 0.75575 1.57564C2.49745 0.660803 4.32125 0.37345 6.48519 0.29135C17.5883 -0.14261 28.6875 -0.0917896 39.7828 0.443819C40.3732 0.471186 40.8403 0.527879 41.1844 0.613889C42.0289 0.825005 42.4179 1.12604 42.3514 1.51699ZM8.65499 17.0047L5.9574 17.1747C5.68373 17.1904 5.54494 17.3331 5.54103 17.6028L5.40615 27.2966C5.40225 27.5116 5.50781 27.625 5.72283 27.6367L13.7042 27.9651C13.7694 27.9677 13.8332 27.9891 13.8872 28.0266C13.9411 28.0641 13.9829 28.1159 14.0069 28.1754C14.0309 28.2348 14.0361 28.2991 14.0219 28.3599C14.0077 28.4207 13.9746 28.4752 13.927 28.5163C13.884 28.5554 13.8547 28.6454 13.8391 28.7861C13.7276 29.654 14.2144 30.8738 14.0502 32.0173C14.0111 32.2871 13.8547 32.422 13.581 32.422H12.3436C12.156 32.422 12.0622 32.5178 12.0622 32.7093L12.068 37.911C12.0679 38.0015 12.0995 38.0893 12.1574 38.1589C12.2152 38.2285 12.2957 38.2757 12.3847 38.2922L13.411 38.4857C13.5752 38.5073 13.7248 38.5912 13.8288 38.7201C13.9329 38.849 13.9833 39.013 13.9697 39.1781C13.9562 39.3432 13.8796 39.4967 13.756 39.6069C13.6323 39.7171 13.4709 39.7755 13.3054 39.77L12.414 39.7876C12.1755 39.7954 12.0524 39.9166 12.0446 40.1512L11.8686 45.1828C11.8652 45.2992 11.9017 45.4133 11.9721 45.5061C12.0426 45.5989 12.1426 45.6649 12.2557 45.6929L13.9681 46.0976C14.187 46.4534 14.101 46.7407 13.71 46.9596C13.2057 47.2353 12.631 47.0241 12.0446 47.288C11.8843 47.3623 11.8041 47.4855 11.8041 47.6575L11.7631 52.4369C11.7618 52.5331 11.7921 52.627 11.8493 52.7043C11.9065 52.7817 11.9874 52.8381 12.0798 52.865L13.8508 53.4045C13.9569 53.4367 14.0486 53.5046 14.1104 53.5966C14.1723 53.6886 14.2004 53.7992 14.19 53.9096C14.1797 54.02 14.1315 54.1234 14.0537 54.2024C13.9758 54.2813 13.8731 54.3309 13.7628 54.3428L12.2967 54.4836C12.0231 54.5109 11.8823 54.6614 11.8745 54.9351L11.7162 59.6852C11.7083 59.9198 11.8159 60.0723 12.0387 60.1426L14.1205 60.8112L13.8625 63.5557C13.5654 63.3915 13.3171 63.3348 13.1177 63.3856C12.8636 63.4482 12.8441 63.5537 13.0591 63.7023C13.6182 64.0854 13.6924 64.4197 13.2819 64.7051C13.1256 64.8106 13.063 64.9573 13.0943 65.1449C13.3406 66.7635 14.748 71.1558 11.7631 70.8626C11.5559 71.3787 11.4875 71.9612 11.5578 72.6102C7.17523 78.8889 7.142 85.0347 11.4581 91.0476C12.2733 92.1853 13.4813 92.6662 14.6718 91.6223C14.8243 91.4894 14.8966 91.3232 14.8888 91.1238C14.8262 88.9775 14.9024 85.7912 15.1175 81.565C15.4928 74.2972 15.5984 57.8301 15.4342 32.1639C15.4048 27.5722 15.9267 20.9572 15.5573 15.2982C15.4752 14.051 15.5182 11.5469 15.6863 7.78595C15.6941 7.57484 15.6355 7.38523 15.5104 7.21711L13.7511 4.85379C13.7022 4.78958 13.6402 4.73651 13.5693 4.69816C13.4984 4.65981 13.4203 4.63708 13.3402 4.63152C13.2601 4.62596 13.18 4.63769 13.1052 4.66592C13.0304 4.69416 12.9626 4.73822 12.9066 4.79515C9.52487 8.23946 8.10766 12.3093 8.65499 17.0047ZM12.1267 65.6082C12.4746 65.1586 12.5274 64.6934 12.285 64.2125C12.1794 64.0014 12.1423 63.7785 12.1736 63.5439L12.3378 62.3652C12.3691 62.1306 12.287 62.0798 12.0915 62.2127C11.9351 62.3183 11.8706 62.4669 11.898 62.6584C12.0798 64.06 11.81 65.5906 11.898 67.0391C11.9058 67.1407 11.9527 67.2091 12.0387 67.2443C12.2029 67.3069 12.2674 67.2521 12.2322 67.0801L12.0328 66.007C12.0201 65.9386 12.0218 65.8678 12.0379 65.7992C12.0541 65.7306 12.0843 65.6656 12.1267 65.6082Z" fill="#BCAE93"/>
<path d="M42.352 1.51562C44.6742 5.42126 44.123 11.6257 43.9823 16.4286C43.951 17.4529 44.0174 19.1438 44.1816 21.5012C44.3752 24.234 43.9295 27.1896 43.8826 29.3946C43.4486 50.8932 41.9649 68.1754 39.7599 90.3601C39.6739 91.232 39.2361 91.9357 38.4463 92.4713L38.6281 85.1585C38.632 84.9786 38.6829 84.8144 38.7806 84.6659C39.0464 84.2632 39.2165 83.8195 39.2908 83.3347C39.3221 83.1314 39.2634 82.9594 39.1149 82.8186C38.0749 81.7865 36.8727 81.0691 35.5083 80.6664C35.2972 80.6039 35.1916 80.6801 35.1916 80.8951C35.1838 84.3512 34.1048 87.6938 31.9545 90.9231C31.2508 91.9748 30.3809 92.4869 29.3449 92.4596C29.2336 92.4561 29.1254 92.422 29.0322 92.361C28.9391 92.2999 28.8646 92.2143 28.8171 92.1136C28.1779 90.7648 28.6412 89.4336 28.6353 88.3311C28.6197 83.9641 28.604 79.5991 28.5884 75.236C28.5767 72.6851 27.8788 69.9288 29.04 66.9146C29.2354 66.7895 29.3801 66.7367 29.4739 66.7562C29.5052 66.9322 29.601 67.1159 29.7613 67.3075C29.5501 67.6007 30.0271 67.7688 31.1922 67.8118C31.3362 67.8167 31.4797 67.792 31.6139 67.7393C31.748 67.6865 31.87 67.6069 31.9722 67.5052C32.0744 67.4036 32.1547 67.2821 32.2081 67.1482C32.2615 67.0144 32.287 66.871 32.2829 66.7269C32.2419 65.1963 33.3092 61.9475 30.9576 61.8185C29.515 61.7364 29.212 61.9358 30.0486 62.4166C29.7554 62.6434 29.5423 62.6532 29.4094 62.4459L29.1103 64.1349C29.1514 63.05 28.7526 62.1469 28.7995 61.1734C29.0106 56.7869 28.2659 53.5732 29.4622 48.6882L29.6381 48.9463C29.6538 49.4819 29.9626 49.9882 30.5647 50.4651C30.6624 50.5433 30.6839 50.6372 30.6292 50.7466C30.5901 50.8209 30.5705 50.8913 30.5705 50.9577C30.5682 51.0075 30.5857 51.0562 30.6193 51.093C30.6528 51.1299 30.6996 51.1519 30.7494 51.1542C30.7992 51.1565 30.8478 51.139 30.8847 51.1054C30.9215 51.0719 30.9435 51.0251 30.9459 50.9753L30.9693 50.6763C30.981 50.4964 30.9185 50.3498 30.7817 50.2364C30.2597 49.8083 29.6792 49.2747 29.8668 48.5299C30.0232 47.9278 30.5119 47.7089 31.3329 47.8731C31.5479 47.9161 31.6593 48.0451 31.6672 48.2602L31.8372 52.0544C31.8396 52.1007 31.8324 52.1471 31.8162 52.1908C31.7999 52.2344 31.7749 52.2743 31.7426 52.3083C31.7103 52.3422 31.6714 52.3694 31.6282 52.3882C31.585 52.4071 31.5385 52.4172 31.4912 52.418L29.9196 52.4473C29.9022 52.4472 29.8849 52.4509 29.8688 52.458C29.8528 52.4651 29.8383 52.4756 29.8262 52.4887C29.8142 52.5019 29.8048 52.5175 29.7987 52.5345C29.7925 52.5516 29.7898 52.5698 29.7906 52.588C29.7945 52.6819 29.8082 52.7737 29.8316 52.8636C29.8786 53.0826 30.0134 53.1823 30.2363 53.1627L31.9252 53.0044C32.05 52.9915 32.1656 52.9341 32.25 52.8432C32.3343 52.7523 32.3816 52.6344 32.3826 52.5118L32.4706 47.9435C35.3852 47.4391 35.9481 44.2431 34.8808 41.9501C34.1243 40.3081 37.0565 39.6689 38.2763 39.4871C38.4717 39.4598 38.6359 39.3698 38.7689 39.2174C39.0425 38.9085 39.3963 38.8811 39.8303 39.1353C39.9911 39.2299 40.1736 39.2817 40.3601 39.2857C40.5467 39.2897 40.7312 39.2458 40.896 39.1581C41.0607 39.0705 41.2002 38.942 41.3011 38.785C41.402 38.628 41.461 38.4478 41.4723 38.2615C41.9141 30.5323 41.9982 22.8031 41.7245 15.0739C41.7207 15.013 41.6961 14.9533 41.6541 14.9039L39.8596 12.9276C39.7267 12.783 39.5684 12.6754 39.3846 12.6051C37.9654 12.0695 36.7945 11.2015 35.8719 10.0013C35.8409 9.96197 35.798 9.93326 35.7496 9.91941C35.7012 9.90556 35.6499 9.90731 35.6032 9.92441C35.5565 9.94151 35.5169 9.97304 35.4903 10.0143C35.4637 10.0557 35.4515 10.1045 35.4555 10.1538L35.7898 16.8156C35.8797 17.5702 35.6881 18.229 35.2151 18.7919L33.3913 18.5104C33.3131 18.4166 33.1919 18.3697 33.0277 18.3697C32.8244 18.3736 32.7227 18.4772 32.7227 18.6805C32.7227 21.9059 33.3913 24.0346 30.2891 26.0754C30.1288 26.181 30.0252 26.3276 29.9782 26.5152L29.6674 27.7995L29.4563 30.4326C29.296 29.119 29.1025 27.8386 28.8758 26.5915C28.8367 26.3686 28.8718 26.1986 28.9813 26.0813C29.1025 25.9523 29.1592 25.7998 29.1514 25.6239C28.9344 18.5104 29.4035 13.1504 29.2511 7.70835C29.2472 7.49332 29.3038 7.2959 29.4211 7.11606L30.6702 5.18669C30.7015 5.13924 30.7226 5.08582 30.7321 5.02981C30.7417 4.97379 30.7395 4.91641 30.7257 4.86129C30.7119 4.80616 30.6868 4.7545 30.6521 4.70957C30.6173 4.66464 30.5735 4.62741 30.5236 4.60026L27.7029 3.05208C27.613 3.00125 27.5739 2.92501 27.5856 2.82337C27.5895 2.77254 27.5915 2.72367 27.5915 2.67676C27.5915 2.53601 27.6579 2.48911 27.7908 2.53602C29.8707 3.25538 31.5831 4.48688 32.928 6.23054C33.0453 6.3791 33.1919 6.48858 33.3678 6.55895C35.8582 7.50897 38.4385 8.05043 41.1087 8.18336C41.1663 8.18666 41.224 8.17779 41.278 8.15731C41.332 8.13683 41.3813 8.10518 41.4227 8.06438C41.464 8.02358 41.4966 7.97451 41.5182 7.92029C41.5399 7.86607 41.5502 7.80788 41.5485 7.7494C41.5016 5.63043 41.7695 3.5525 42.352 1.51562ZM30.207 56.6403C29.9958 56.5855 29.857 56.6285 29.7906 56.7693C29.7515 56.8514 29.7574 56.9648 29.8082 57.1094C29.945 57.4886 30.0037 57.8776 29.9841 58.2764C29.9724 58.4719 30.0643 58.552 30.2597 58.5169C30.5021 58.4778 30.6878 58.3507 30.8168 58.1357C31.0475 57.8737 31.1882 57.5922 31.2391 57.2912C31.2703 57.127 31.2352 56.9804 31.1335 56.8514L30.1894 55.6492C30.1586 55.6085 30.1371 55.5616 30.1263 55.5119C30.1154 55.4621 30.1157 55.4108 30.1269 55.3615C30.1381 55.3121 30.16 55.2661 30.1911 55.2266C30.2222 55.1872 30.2616 55.1552 30.3066 55.1331C31.1101 54.7402 31.6554 55.139 31.7199 56.0011C31.806 57.1231 31.8196 58.2706 31.761 59.4434C31.7584 59.5367 31.7211 59.6258 31.6563 59.6939C31.5914 59.762 31.5035 59.8043 31.4091 59.8129L29.685 59.9653C29.6428 59.9715 29.6041 59.9922 29.5756 60.0241C29.5472 60.0559 29.5308 60.0966 29.5294 60.1393C29.528 60.1819 29.5417 60.2237 29.568 60.2573C29.5943 60.2909 29.6316 60.3142 29.6733 60.3231C30.506 60.4521 31.3016 60.3622 32.0601 60.0533C32.1757 60.0049 32.274 59.9229 32.342 59.8183C32.4101 59.7136 32.4447 59.5911 32.4413 59.4669C32.4119 58.0536 33.2447 53.5439 30.3829 54.4646C30.2812 54.4998 30.1933 54.4802 30.119 54.406L29.9665 54.2535C29.9468 54.2341 29.9215 54.2216 29.8942 54.2177C29.8668 54.2139 29.839 54.2188 29.8147 54.232C29.7904 54.2451 29.771 54.2657 29.7593 54.2906C29.7475 54.3156 29.7441 54.3437 29.7495 54.3708L30.207 56.6403Z" fill="#9B8C70"/>
<path d="M6.55003 93.1408C4.95102 92.6912 4.04401 91.5203 3.82898 89.6281C0.509774 60.4061 -0.751055 33.4127 0.439402 4.14382L0.879226 3.13516C0.945129 2.97924 1.06136 2.8503 1.20939 2.76889C1.35742 2.68748 1.52873 2.65828 1.69603 2.68594C1.86334 2.7136 2.017 2.79652 2.13254 2.92151C2.24809 3.0465 2.31885 3.20635 2.33358 3.3756C2.66784 7.31056 2.22216 11.1224 2.30426 15.0456C2.35704 17.4324 1.56535 20.5112 1.85857 22.5168C2.09314 24.1001 2.12637 26.2386 1.95826 28.9323C1.37769 38.3739 3.00797 48.1908 2.90242 58.1191C2.8555 62.3883 3.69411 66.9507 3.89936 70.6746C4.3255 78.2395 5.20905 85.7283 6.55003 93.1408Z" fill="#F2ECD9"/>
<path d="M11.558 72.6089L12.6546 71.0314C13.0338 70.9845 13.3798 70.8398 13.6926 70.5975C13.8607 70.4606 13.9448 70.2847 13.9448 70.0697L13.8627 63.5544L14.1207 60.8099L14.3435 46.0846C14.3123 39.9622 14.3279 33.8399 14.3905 27.7175C14.3905 27.6901 14.4335 27.3305 14.5195 26.6385C14.5859 26.0872 14.41 25.7197 13.9917 25.536C11.3469 24.1403 12.0916 21.431 12.0389 19.097C12.0349 18.9015 11.9431 18.7686 11.7632 18.6982C11.5013 18.5926 11.2413 18.6298 10.9833 18.8096C10.2522 19.1693 9.63449 19.138 9.13016 18.7158L8.65515 17.0034C8.10781 12.308 9.52502 8.23819 12.9068 4.79388C12.9628 4.73695 13.0305 4.69289 13.1053 4.66466C13.1801 4.63642 13.2603 4.62469 13.3404 4.63025C13.4205 4.63581 13.4986 4.65854 13.5695 4.69689C13.6404 4.73524 13.7024 4.78832 13.7512 4.85253L15.5105 7.21585C15.6356 7.38396 15.6943 7.57357 15.6865 7.78469C15.5184 11.5457 15.4754 14.0497 15.5575 15.2969C15.9269 20.956 15.405 27.5709 15.4343 32.1627C15.5985 57.8289 15.4929 74.2959 15.1176 81.5637C14.9026 85.79 14.8264 88.9762 14.8889 91.1226C14.8967 91.322 14.8244 91.4881 14.6719 91.621C13.4815 92.6649 12.2734 92.184 11.4583 91.0464C7.14215 85.0335 7.17538 78.8877 11.558 72.6089Z" fill="#F2ECD9"/>
<path d="M32.4707 47.9435C32.2635 47.2632 31.548 46.9602 30.3244 47.0345C30.1093 47.0501 29.9823 47.1616 29.9432 47.3688L29.6382 48.9463L29.4623 48.6882L29.6265 45.9496L32.0426 45.6388C32.2537 45.6114 32.371 45.4922 32.3945 45.2811C32.5704 43.7798 32.5997 42.2746 32.4824 40.7655C32.3827 39.5282 30.512 39.2877 29.8669 40.1381C29.3587 39.6611 29.3743 39.0649 29.9139 38.3494C30.6332 38.5527 31.3408 38.5703 32.0367 38.4022C32.24 38.3514 32.3554 38.2224 32.3827 38.0152C32.586 36.51 32.6603 34.995 32.6056 33.4703C32.5587 31.9691 30.3244 31.5175 29.8435 33.0481L29.4564 30.4326L29.6675 27.7995L38.6576 27.647C38.6953 27.6463 38.7325 27.638 38.7671 27.6225C38.8017 27.6071 38.8329 27.5849 38.8591 27.5571C38.8852 27.5293 38.9058 27.4965 38.9195 27.4607C38.9332 27.4248 38.9398 27.3865 38.9391 27.348L38.7397 17.8243C38.7383 17.7585 38.7235 17.6938 38.6961 17.634C38.6687 17.5742 38.6293 17.5206 38.5804 17.4766C38.5314 17.4327 38.474 17.3992 38.4116 17.3783C38.3493 17.3574 38.2833 17.3495 38.2177 17.3552C37.4749 17.4216 36.6656 17.2418 35.7899 16.8156L35.4556 10.1538C35.4517 10.1045 35.4639 10.0556 35.4905 10.0143C35.517 9.97303 35.5566 9.9415 35.6033 9.9244C35.65 9.9073 35.7013 9.90555 35.7497 9.9194C35.7981 9.93325 35.841 9.96196 35.872 10.0013C36.7947 11.2015 37.9656 12.0694 39.3847 12.6051C39.5685 12.6754 39.7268 12.7829 39.8598 12.9276L41.6542 14.9039C41.6962 14.9533 41.7209 15.013 41.7246 15.0739C41.9983 22.8031 41.9142 30.5323 41.4724 38.2615C41.4611 38.4478 41.4022 38.628 41.3012 38.785C41.2003 38.942 41.0608 39.0705 40.8961 39.1581C40.7313 39.2458 40.5468 39.2897 40.3603 39.2857C40.1737 39.2817 39.9913 39.2299 39.8304 39.1352C39.3965 38.8811 39.0426 38.9085 38.769 39.2174C38.6361 39.3698 38.4719 39.4597 38.2764 39.4871C37.0566 39.6689 34.1244 40.3081 34.8809 41.9501C35.9482 44.2431 35.3853 47.4391 32.4707 47.9435Z" fill="#867354"/>
<path d="M29.6674 27.8003L29.9782 26.516C30.0251 26.3283 30.1287 26.1817 30.289 26.0762C33.3912 24.0354 32.7227 21.9066 32.7227 18.6813C32.7227 18.478 32.8244 18.3744 33.0277 18.3705C33.1919 18.3705 33.313 18.4174 33.3912 18.5112L33.6962 23.3493C33.6998 23.431 33.6836 23.5125 33.6489 23.587C33.6142 23.6615 33.5621 23.7268 33.4968 23.7774L32.4705 24.5456C32.3941 24.602 32.3366 24.6803 32.3057 24.7701C32.2747 24.8599 32.2718 24.957 32.2972 25.0485C32.3226 25.1401 32.3752 25.2217 32.4481 25.2827C32.5209 25.3437 32.6105 25.3811 32.7051 25.3901L33.3091 25.4487C33.5476 25.4761 33.6571 25.609 33.6375 25.8475L33.5906 26.516C33.5794 26.6696 33.6075 26.8235 33.6721 26.9632C33.7367 27.103 33.8357 27.2238 33.9597 27.3143C34.0837 27.4048 34.2285 27.462 34.3805 27.4803C34.5325 27.4986 34.6865 27.4776 34.828 27.4191C35.6021 27.0985 35.7331 26.5004 35.2209 25.6246C35.0958 25.4096 35.1525 25.3392 35.391 25.4135C36.3488 25.7145 37.1092 26.2736 37.6722 27.0907C37.7179 27.159 37.7845 27.2106 37.8619 27.238C37.9394 27.2654 38.0236 27.267 38.1021 27.2426C38.1805 27.2182 38.249 27.1691 38.2973 27.1026C38.3456 27.0362 38.3711 26.9559 38.3701 26.8737L38.2704 18.7868C38.269 18.6366 38.2249 18.4898 38.1433 18.3637C38.0616 18.2376 37.9458 18.1373 37.8092 18.0746C37.6727 18.0119 37.5212 17.9893 37.3723 18.0095C37.2234 18.0297 37.0834 18.0918 36.9685 18.1887C36.4563 18.6148 35.8718 18.8161 35.215 18.7927C35.6881 18.2297 35.8797 17.5709 35.7897 16.8164C36.6655 17.2425 37.4748 17.4224 38.2176 17.3559C38.2831 17.3503 38.3491 17.3582 38.4115 17.3791C38.4739 17.4 38.5313 17.4334 38.5802 17.4774C38.6291 17.5214 38.6685 17.5749 38.6959 17.6347C38.7233 17.6945 38.7381 17.7593 38.7395 17.8251L38.9389 27.3487C38.9397 27.3873 38.933 27.4255 38.9193 27.4614C38.9056 27.4973 38.8851 27.5301 38.8589 27.5578C38.8328 27.5856 38.8015 27.6079 38.767 27.6233C38.7324 27.6387 38.6951 27.6471 38.6574 27.6478L29.6674 27.8003Z" fill="#010101"/>
<path d="M8.65526 17.0039L9.13027 18.7163C8.46955 18.6576 7.85575 18.4172 7.28887 17.995C7.18441 17.9168 7.06056 17.8687 6.93072 17.8559C6.80089 17.843 6.67003 17.8659 6.55227 17.9221C6.43451 17.9782 6.33435 18.0655 6.26262 18.1745C6.1909 18.2835 6.15033 18.41 6.14532 18.5404L5.79933 26.7094C5.7927 26.8528 5.82835 26.995 5.90184 27.1184C5.97533 27.2417 6.08342 27.3408 6.21272 27.4033C6.34201 27.4657 6.4868 27.4888 6.62912 27.4697C6.77143 27.4506 6.905 27.3901 7.01325 27.2958L8.46173 26.0408C8.62203 25.904 8.75495 25.9255 8.8605 26.1053C9.03252 26.3907 9.16741 26.6761 9.26514 26.9615C9.51145 27.6692 10.051 27.8236 10.8837 27.4248L13.3643 27.331C13.4083 27.3308 13.4507 27.3152 13.4844 27.2869C13.518 27.2586 13.5406 27.2194 13.5483 27.1761C13.556 27.1328 13.5482 27.0882 13.5264 27.0501C13.5045 27.012 13.47 26.9827 13.4288 26.9674C12.2169 26.4787 11.3802 26.467 10.9189 26.9322C10.6648 26.7993 10.5123 26.5901 10.4615 26.3047C10.4263 26.0897 10.5123 25.9509 10.7195 25.8884C10.9658 25.8102 11.2356 25.7887 11.5288 25.8238C12.0957 26.1601 12.6723 26.3125 13.2587 26.2813C13.4229 26.2734 13.509 26.1855 13.5168 26.0174C13.5168 25.9587 13.5168 25.8981 13.5168 25.8356C13.5207 25.6675 13.6087 25.5736 13.7807 25.5541C13.8471 25.5463 13.9175 25.5404 13.9918 25.5365C14.4101 25.7202 14.586 26.0877 14.5196 26.639C14.4336 27.331 14.3906 27.6907 14.3906 27.718C14.328 33.8404 14.3124 39.9627 14.3437 46.0851L13.9683 46.0968L12.256 45.6922C12.1429 45.6641 12.0428 45.5982 11.9724 45.5054C11.902 45.4125 11.8655 45.2984 11.8689 45.182L12.0448 40.1504C12.0527 39.9158 12.1758 39.7946 12.4143 39.7868L13.3057 39.7692C13.4712 39.7747 13.6325 39.7163 13.7562 39.6061C13.8799 39.496 13.9564 39.3424 13.97 39.1773C13.9836 39.0122 13.9331 38.8483 13.8291 38.7194C13.7251 38.5905 13.5755 38.5065 13.4112 38.4849L12.385 38.2914C12.2959 38.2749 12.2155 38.2278 12.1576 38.1581C12.0998 38.0885 12.0682 38.0008 12.0683 37.9102L12.0624 32.7086C12.0624 32.517 12.1563 32.4212 12.3439 32.4212H13.5813C13.855 32.4212 14.0113 32.2863 14.0504 32.0166C14.2146 30.873 13.7279 29.6532 13.8393 28.7853C13.855 28.6446 13.8843 28.5547 13.9273 28.5156C13.9749 28.4744 14.0079 28.4199 14.0222 28.3591C14.0364 28.2983 14.0312 28.234 14.0071 28.1746C13.9831 28.1152 13.9414 28.0633 13.8874 28.0258C13.8334 27.9883 13.7697 27.9669 13.7044 27.9643L5.7231 27.6359C5.50807 27.6242 5.40251 27.5108 5.40642 27.2958L5.54129 17.6021C5.5452 17.3323 5.684 17.1896 5.95767 17.174L8.65526 17.0039ZM13.5754 33.0194L12.7134 32.861C12.3381 32.7907 12.1914 32.9412 12.2735 33.3126C12.5472 34.591 12.5609 35.8655 12.3146 37.1361C12.2908 37.261 12.3062 37.3881 12.359 37.5027C12.4118 37.6173 12.4998 37.7147 12.6129 37.7835C12.7259 37.8523 12.8593 37.8897 12.9975 37.8914C13.1358 37.8931 13.2731 37.8589 13.3936 37.7929C13.4366 37.7656 13.4777 37.7186 13.5168 37.6522C13.5872 37.5232 13.5989 37.3902 13.552 37.2534C13.1024 35.9046 13.1551 34.5754 13.7103 33.2657C13.7212 33.2414 13.7263 33.215 13.7251 33.1883C13.724 33.1617 13.7166 33.1355 13.7036 33.1118C13.6907 33.0881 13.6724 33.0674 13.6502 33.0514C13.628 33.0354 13.6024 33.0245 13.5754 33.0194ZM12.5257 41.9683L12.4377 44.6718C12.426 44.9454 12.557 45.0764 12.8307 45.0647L13.3174 45.0412C13.3562 45.0397 13.3939 45.0278 13.4266 45.0067C13.4592 44.9857 13.4856 44.9562 13.503 44.9215C13.5204 44.8867 13.5281 44.8479 13.5254 44.8092C13.5226 44.7704 13.5095 44.7331 13.4875 44.7011C12.858 43.7315 12.9382 42.9262 13.7279 42.285C13.8374 42.199 13.8862 42.0856 13.8745 41.9449L13.7689 40.9127C13.7494 40.7094 13.6497 40.5589 13.4699 40.4612C13.1649 40.297 12.8502 40.383 12.5257 40.7192C12.3498 40.8991 12.3048 41.1063 12.3908 41.3408L12.4495 41.4992C12.5042 41.6517 12.5296 41.808 12.5257 41.9683Z" fill="#010101"/>
<path d="M9.13028 18.7155C9.63461 19.1377 10.2523 19.169 10.9834 18.8093C12.0272 21.0026 9.8164 23.319 12.3029 24.4039C12.3909 24.4423 12.4607 24.5136 12.4978 24.6031C12.5349 24.6925 12.5365 24.7934 12.5023 24.8848C12.3733 25.2249 12.0488 25.5376 11.5288 25.823C11.2356 25.7879 10.9658 25.8094 10.7195 25.8875C10.5123 25.9501 10.4263 26.0889 10.4615 26.3039C10.5123 26.5893 10.6648 26.7985 10.9189 26.9314L10.8837 27.424C10.051 27.8228 9.51146 27.6683 9.26516 26.9607C9.16742 26.6753 9.03254 26.3899 8.86052 26.1045C8.75496 25.9247 8.62204 25.9032 8.46175 26.04L7.01326 27.295C6.90502 27.3893 6.77144 27.4498 6.62913 27.4689C6.48681 27.488 6.34202 27.4649 6.21273 27.4024C6.08344 27.34 5.97534 27.2409 5.90185 27.1176C5.82836 26.9942 5.79271 26.852 5.79934 26.7086L6.14533 18.5395C6.15034 18.4092 6.19091 18.2827 6.26263 18.1737C6.33436 18.0647 6.43452 17.9774 6.55228 17.9212C6.67004 17.8651 6.80091 17.8422 6.93074 17.855C7.06057 17.8679 7.18442 17.916 7.28888 17.9942C7.85577 18.4164 8.46957 18.6568 9.13028 18.7155Z" fill="#BCAE93"/>
<path d="M33.3909 18.5089L35.2147 18.7904C35.8715 18.8138 36.456 18.6125 36.9681 18.1863C37.083 18.0895 37.2231 18.0274 37.3719 18.0072C37.5208 17.987 37.6724 18.0096 37.8089 18.0723C37.9454 18.135 38.0613 18.2353 38.1429 18.3614C38.2246 18.4875 38.2687 18.6343 38.27 18.7845L38.3697 26.8714C38.3708 26.9536 38.3452 27.0338 38.2969 27.1003C38.2487 27.1668 38.1802 27.2159 38.1017 27.2403C38.0233 27.2647 37.939 27.263 37.8616 27.2357C37.7841 27.2083 37.7176 27.1567 37.6719 27.0884C37.1089 26.2713 36.3485 25.7122 35.3906 25.4112C35.1521 25.3369 35.0955 25.4073 35.2206 25.6223C35.7327 26.4981 35.6017 27.0962 34.8276 27.4168C34.6862 27.4753 34.5321 27.4963 34.3802 27.478C34.2282 27.4597 34.0833 27.4025 33.9593 27.312C33.8353 27.2215 33.7363 27.1007 33.6717 26.9609C33.6071 26.8212 33.5791 26.6672 33.5903 26.5137L33.6372 25.8452C33.6567 25.6067 33.5473 25.4737 33.3088 25.4464L32.7048 25.3877C32.6102 25.3788 32.5206 25.3414 32.4477 25.2804C32.3749 25.2194 32.3223 25.1378 32.2969 25.0462C32.2714 24.9547 32.2744 24.8576 32.3053 24.7678C32.3363 24.678 32.3938 24.5997 32.4702 24.5433L33.4965 23.7751C33.5617 23.7245 33.6139 23.6592 33.6486 23.5847C33.6833 23.5102 33.6995 23.4287 33.6958 23.347L33.3909 18.5089ZM36.5342 24.3204L36.6925 24.6606C36.7141 24.7185 36.7572 24.7658 36.8128 24.7928C36.8684 24.8197 36.9323 24.8243 36.9911 24.8054C37.05 24.7865 37.0993 24.7457 37.1289 24.6915C37.1585 24.6372 37.166 24.5736 37.1499 24.514L36.9623 23.4994C36.9271 23.3313 36.8665 23.3215 36.7805 23.4701L36.5576 23.8454C36.5145 23.9154 36.4898 23.9956 36.4857 24.0785C36.4816 24.1615 36.4983 24.2446 36.5342 24.3204Z" fill="#867354"/>
<path d="M13.9919 25.537C13.9176 25.5409 13.8472 25.5468 13.7808 25.5546C13.6087 25.5741 13.5208 25.668 13.5169 25.8361C13.5169 25.8986 13.5169 25.9592 13.5169 26.0179C13.5091 26.186 13.423 26.2739 13.2588 26.2818C12.6724 26.313 12.0957 26.1606 11.5289 25.8243C12.0488 25.5389 12.3733 25.2262 12.5023 24.8861C12.5366 24.7947 12.535 24.6938 12.4979 24.6044C12.4608 24.5149 12.391 24.4436 12.303 24.4052C9.81648 23.3203 12.0273 21.0039 10.9835 18.8106C11.2415 18.6308 11.5015 18.5936 11.7634 18.6992C11.9433 18.7696 12.0351 18.9025 12.0391 19.098C12.0918 21.432 11.3471 24.1413 13.9919 25.537Z" fill="#867354"/>
<path d="M36.5577 23.847L36.7806 23.4717C36.8666 23.3232 36.9272 23.3329 36.9624 23.5011L37.15 24.5156C37.1661 24.5753 37.1586 24.6388 37.129 24.6931C37.0994 24.7474 37.0501 24.7882 36.9913 24.807C36.9324 24.8259 36.8685 24.8214 36.8129 24.7944C36.7573 24.7674 36.7143 24.7201 36.6926 24.6622L36.5343 24.3221C36.4984 24.2463 36.4817 24.1631 36.4858 24.0802C36.4899 23.9972 36.5146 23.9171 36.5577 23.847Z" fill="#010101"/>
<path d="M10.8837 27.4267L10.9189 26.9341C11.3802 26.4689 12.2169 26.4806 13.4288 26.9693C13.47 26.9846 13.5046 27.0138 13.5264 27.052C13.5482 27.0901 13.556 27.1347 13.5483 27.178C13.5406 27.2213 13.518 27.2605 13.4844 27.2888C13.4508 27.3171 13.4083 27.3327 13.3643 27.3329L10.8837 27.4267Z" fill="#9B8C70"/>
<path d="M29.9136 38.352L29.943 37.8946C29.9586 37.6444 30.0876 37.5466 30.33 37.6014L31.368 37.8418C31.4163 37.8527 31.4665 37.8522 31.5146 37.8406C31.5627 37.8289 31.6075 37.8063 31.6455 37.7746C31.6835 37.7428 31.7137 37.7028 31.7337 37.6575C31.7537 37.6122 31.763 37.5629 31.7609 37.5134L31.5967 33.8717C31.5928 33.7837 31.5704 33.6976 31.531 33.6189C31.4916 33.5402 31.4361 33.4706 31.368 33.4148C31.3 33.3589 31.221 33.318 31.1361 33.2947C31.0512 33.2713 30.9624 33.2661 30.8754 33.2794C30.0036 33.4045 29.7221 33.8912 30.0309 34.7396C30.1169 34.9702 30.2831 35.0875 30.5294 35.0914C30.5919 35.0914 30.6506 35.0954 30.7053 35.1032C30.8969 35.1345 30.9907 35.2478 30.9868 35.4433L30.9458 36.6572C30.9454 36.7058 30.9296 36.7529 30.9007 36.7919C30.8717 36.8309 30.8311 36.8596 30.7847 36.874C30.7384 36.8883 30.6887 36.8876 30.6427 36.8718C30.5968 36.856 30.5571 36.8261 30.5294 36.7862C29.6615 35.6173 29.4328 34.3721 29.8433 33.0507C30.3241 31.5201 32.5585 31.9716 32.6054 33.4729C32.6601 34.9976 32.5858 36.5126 32.3825 38.0177C32.3552 38.225 32.2398 38.354 32.0365 38.4048C31.3406 38.5729 30.633 38.5553 29.9136 38.352Z" fill="#010101"/>
<path d="M13.5758 33.0189C13.6028 33.024 13.6284 33.035 13.6506 33.051C13.6728 33.067 13.6911 33.0876 13.704 33.1113C13.717 33.135 13.7244 33.1612 13.7255 33.1878C13.7267 33.2145 13.7216 33.2409 13.7107 33.2652C13.1555 34.5749 13.1028 35.9042 13.5524 37.2529C13.5993 37.3898 13.5875 37.5227 13.5172 37.6517C13.4781 37.7182 13.437 37.7651 13.394 37.7925C13.2735 37.8585 13.1361 37.8926 12.9979 37.8909C12.8597 37.8893 12.7263 37.8519 12.6132 37.783C12.5002 37.7142 12.4121 37.6168 12.3593 37.5022C12.3065 37.3876 12.2912 37.2605 12.315 37.1357C12.5613 35.8651 12.5476 34.5905 12.2739 33.3121C12.1918 32.9407 12.3384 32.7902 12.7138 32.8606L13.5758 33.0189Z" fill="#BCAE93"/>
<path d="M29.6259 45.9511C29.7628 45.2122 30.2339 44.876 31.0392 44.9425C31.5123 44.9816 31.743 44.7626 31.7312 44.2857L31.655 41.0662C31.6528 40.9871 31.6346 40.9092 31.6016 40.8373C31.5685 40.7654 31.5213 40.701 31.4626 40.6478C31.404 40.5947 31.3352 40.5539 31.2605 40.5281C31.1857 40.5022 31.1064 40.4917 31.0275 40.4973C30.0188 40.5599 29.5595 41.1013 29.6494 42.1217C29.6689 42.3602 29.7882 42.5244 30.0071 42.6143L31.0041 43.0248C31.1683 43.0952 31.2543 43.2184 31.2621 43.3943C31.2621 43.4686 31.2406 43.535 31.1976 43.5937C31.1076 43.6992 30.9982 43.7246 30.8692 43.6699C29.2741 43.017 28.9398 41.8402 29.8664 40.1396C30.5114 39.2893 32.3822 39.5297 32.4819 40.7671C32.5991 42.2762 32.5698 43.7813 32.3939 45.2826C32.3704 45.4937 32.2531 45.613 32.042 45.6403L29.6259 45.9511Z" fill="#010101"/>
<path d="M12.4497 41.4977L12.391 41.3394C12.305 41.1048 12.35 40.8976 12.5259 40.7178C12.8504 40.3815 13.1651 40.2955 13.4701 40.4597C13.6499 40.5575 13.7496 40.708 13.7691 40.9113L13.8747 41.9434C13.8864 42.0841 13.8376 42.1975 13.7281 42.2835C12.9384 42.9247 12.8582 43.7301 13.4877 44.6996C13.5097 44.7316 13.5228 44.7689 13.5256 44.8077C13.5283 44.8464 13.5206 44.8852 13.5032 44.92C13.4858 44.9547 13.4594 44.9842 13.4268 45.0053C13.3941 45.0263 13.3564 45.0382 13.3176 45.0398L12.8309 45.0632C12.5572 45.0749 12.4262 44.944 12.4379 44.6703L12.5259 41.9669C12.5298 41.8066 12.5044 41.6502 12.4497 41.4977Z" fill="#BCAE93"/>
<path d="M13.9684 46.0977L14.3437 46.0859L14.1209 60.8113L12.0391 60.1427C11.8162 60.0723 11.7087 59.9199 11.7165 59.6853L11.8749 54.9352C11.8827 54.6615 12.0234 54.511 12.2971 54.4837L13.7632 54.3429C13.8734 54.331 13.9762 54.2814 14.054 54.2025C14.1319 54.1235 14.18 54.0201 14.1904 53.9097C14.2007 53.7993 14.1726 53.6887 14.1108 53.5967C14.049 53.5046 13.9572 53.4368 13.8511 53.4046L12.0801 52.8651C11.9878 52.8382 11.9068 52.7817 11.8496 52.7044C11.7924 52.6271 11.7622 52.5332 11.7634 52.437L11.8045 47.6576C11.8045 47.4856 11.8846 47.3624 12.0449 47.2881C12.6314 47.0242 13.2061 47.2353 13.7104 46.9597C14.1013 46.7408 14.1874 46.4534 13.9684 46.0977ZM13.8453 48.2264L12.8718 47.7983C12.6138 47.681 12.4945 47.7631 12.5141 48.0446C12.6079 49.1628 12.5805 50.2711 12.432 51.3697C12.3851 51.7137 12.4027 51.9679 12.4848 52.1321C12.6333 52.4409 12.9109 52.5777 13.3175 52.5426C13.5169 52.5269 13.5755 52.4272 13.4934 52.2435C12.9383 50.9885 13.1044 49.8958 13.9919 48.9653C14.0428 48.9111 14.0801 48.8456 14.1006 48.7742C14.1212 48.7029 14.1244 48.6278 14.1101 48.5553C14.0957 48.4829 14.0641 48.4152 14.018 48.3579C13.9719 48.3007 13.9127 48.2556 13.8453 48.2264ZM12.3381 55.8911C12.2209 56.847 12.2736 58.5359 12.3616 59.4566C12.3851 59.699 12.5199 59.83 12.7662 59.8495L13.0477 59.873C13.3214 59.8925 13.425 59.7674 13.3585 59.4976C13.0223 58.1606 13.0927 56.847 13.5696 55.5568C13.6439 55.3613 13.5794 55.2401 13.3761 55.1932C12.7623 55.0525 12.4163 55.2851 12.3381 55.8911Z" fill="#867354"/>
<path d="M32.4702 47.9434L32.3822 52.5117C32.3812 52.6343 32.3339 52.7522 32.2496 52.8431C32.1652 52.934 32.0496 52.9914 31.9248 53.0043L30.2359 53.1626C30.013 53.1822 29.8782 53.0825 29.8312 52.8635C29.8078 52.7736 29.7941 52.6818 29.7902 52.5879C29.7894 52.5697 29.7921 52.5515 29.7983 52.5344C29.8044 52.5174 29.8138 52.5018 29.8258 52.4886C29.8379 52.4755 29.8524 52.465 29.8684 52.4579C29.8845 52.4508 29.9018 52.4471 29.9192 52.4472L31.4908 52.4179C31.5381 52.4171 31.5847 52.407 31.6278 52.3881C31.671 52.3693 31.7099 52.3421 31.7422 52.3082C31.7745 52.2742 31.7995 52.2343 31.8158 52.1907C31.832 52.147 31.8392 52.1006 31.8368 52.0543L31.6668 48.2601C31.659 48.045 31.5475 47.916 31.3325 47.873C30.5115 47.7088 30.0228 47.9277 29.8664 48.5298C29.6788 49.2746 30.2593 49.8082 30.7813 50.2363C30.9181 50.3497 30.9806 50.4963 30.9689 50.6762L30.9455 50.9752C30.9431 51.025 30.9211 51.0718 30.8843 51.1053C30.8474 51.1389 30.7988 51.1564 30.749 51.1541C30.6992 51.1518 30.6524 51.1298 30.6189 51.0929C30.5853 51.0561 30.5678 51.0074 30.5701 50.9576C30.5701 50.8912 30.5897 50.8208 30.6288 50.7465C30.6835 50.6371 30.662 50.5432 30.5643 50.465C29.9622 49.9881 29.6534 49.4818 29.6377 48.9462L29.9427 47.3687C29.9818 47.1615 30.1088 47.05 30.3238 47.0344C31.5475 46.9601 32.263 47.2631 32.4702 47.9434Z" fill="#010101"/>
<path d="M13.8453 48.2259C13.9127 48.2551 13.9719 48.3002 14.018 48.3574C14.0641 48.4147 14.0957 48.4824 14.1101 48.5549C14.1244 48.6273 14.1212 48.7024 14.1006 48.7738C14.0801 48.8451 14.0428 48.9107 13.9919 48.9648C13.1044 49.8953 12.9383 50.988 13.4934 52.243C13.5755 52.4267 13.5169 52.5264 13.3175 52.5421C12.9109 52.5773 12.6333 52.4404 12.4848 52.1316C12.4027 51.9674 12.3851 51.7132 12.432 51.3692C12.5805 50.2706 12.6079 49.1623 12.5141 48.0441C12.4945 47.7627 12.6138 47.6806 12.8718 47.7978L13.8453 48.2259Z" fill="#BCAE93"/>
<path d="M30.817 58.1341C30.9303 57.1019 30.7271 56.6035 30.2071 56.6387L29.7497 54.3692C29.7442 54.3421 29.7477 54.314 29.7594 54.289C29.7711 54.2641 29.7905 54.2435 29.8148 54.2304C29.8391 54.2172 29.867 54.2122 29.8943 54.2161C29.9216 54.22 29.947 54.2325 29.9666 54.2519L30.1191 54.4044C30.1934 54.4786 30.2814 54.4982 30.383 54.463C33.2448 53.5423 32.4121 58.052 32.4414 59.4653C32.4448 59.5895 32.4102 59.712 32.3422 59.8167C32.2741 59.9213 32.1758 60.0033 32.0602 60.0517C31.3017 60.3606 30.5062 60.4505 29.6734 60.3215C29.6317 60.3126 29.5944 60.2893 29.5681 60.2557C29.5418 60.2221 29.5282 60.1803 29.5296 60.1377C29.531 60.095 29.5473 60.0542 29.5758 60.0224C29.6042 59.9906 29.6429 59.9699 29.6852 59.9637L31.4093 59.8113C31.5036 59.8027 31.5916 59.7604 31.6564 59.6923C31.7213 59.6242 31.7585 59.5351 31.7611 59.4418C31.8198 58.2689 31.8061 57.1215 31.7201 55.9995C31.6556 55.1374 31.1102 54.7386 30.3068 55.1315C30.2618 55.1536 30.2223 55.1855 30.1912 55.225C30.1601 55.2645 30.1382 55.3105 30.127 55.3598C30.1158 55.4092 30.1156 55.4605 30.1264 55.5103C30.1372 55.56 30.1587 55.6069 30.1895 55.6476L31.1336 56.8498C31.2353 56.9788 31.2705 57.1254 31.2392 57.2896C31.1884 57.5906 31.0476 57.8721 30.817 58.1341Z" fill="#010101"/>
<path d="M12.3617 59.4555C12.2737 58.5348 12.2209 56.8459 12.3382 55.89C12.4164 55.284 12.7624 55.0514 13.3762 55.1921C13.5795 55.239 13.644 55.3602 13.5697 55.5557C13.0928 56.8459 13.0224 58.1595 13.3586 59.4965C13.4251 59.7663 13.3215 59.8914 13.0478 59.8719L12.7663 59.8484C12.52 59.8289 12.3851 59.6979 12.3617 59.4555Z" fill="#BCAE93"/>
<path d="M30.2064 56.6402C30.7264 56.605 30.9297 57.1035 30.8163 58.1356C30.6873 58.3506 30.5016 58.4777 30.2592 58.5168C30.0637 58.5519 29.9718 58.4718 29.9836 58.2763C30.0031 57.8775 29.9445 57.4885 29.8076 57.1093C29.7568 56.9647 29.751 56.8513 29.7901 56.7692C29.8565 56.6284 29.9953 56.5854 30.2064 56.6402Z" fill="#BCAE93"/>
<path d="M29.7608 67.3077C31.2191 67.4759 31.8935 67.1709 31.784 66.3929L31.7899 62.8978C31.7899 62.6788 31.6824 62.5596 31.4673 62.54L30.0482 62.4169C29.2115 61.936 29.5145 61.7366 30.9571 61.8187C33.3087 61.9478 32.2414 65.1966 32.2825 66.7272C32.2866 66.8713 32.2611 67.0146 32.2076 67.1485C32.1542 67.2824 32.0739 67.4039 31.9717 67.5055C31.8695 67.6072 31.7476 67.6868 31.6134 67.7395C31.4793 67.7922 31.3358 67.8169 31.1917 67.8121C30.0267 67.7691 29.5497 67.601 29.7608 67.3077Z" fill="#010101"/>
<path d="M12.0329 66.007L12.2322 67.0801C12.2674 67.2521 12.2029 67.3069 12.0387 67.2443C11.9527 67.2091 11.9058 67.1407 11.898 67.0391C11.81 65.5906 12.0798 64.06 11.898 62.6584C11.8706 62.4669 11.9351 62.3183 12.0915 62.2127C12.287 62.0798 12.3691 62.1306 12.3378 62.3652L12.1736 63.5439C12.1423 63.7785 12.1795 64.0014 12.285 64.2125C12.5274 64.6934 12.4746 65.1586 12.1267 65.6082C12.0843 65.6656 12.0541 65.7306 12.0379 65.7992C12.0218 65.8678 12.0201 65.9386 12.0329 66.007Z" fill="#867354"/>
<path d="M29.4092 62.4453L29.5147 65.4537L29.4737 66.7556C29.3799 66.736 29.2352 66.7888 29.0397 66.9139L29.1101 64.1342L29.4092 62.4453Z" fill="#867354"/>
<path d="M30.0484 62.418L31.4675 62.5411C31.6826 62.5607 31.7901 62.6799 31.7901 62.8988L31.7842 66.394C31.749 65.5378 31.5965 65.1019 31.3268 65.0862C30.7677 64.664 30.3259 64.6914 30.0014 65.1683C29.9193 65.1253 29.7571 65.2211 29.5147 65.4557L29.4092 62.4473C29.5421 62.6545 29.7551 62.6447 30.0484 62.418Z" fill="#BCAE93"/>
<path d="M13.8625 63.5553L13.9446 70.0705C13.9446 70.2856 13.8606 70.4615 13.6924 70.5983C13.3797 70.8407 13.0337 70.9854 12.6545 71.0323C12.373 71.0636 12.0758 71.0069 11.7631 70.8622C14.748 71.1554 13.3406 66.7631 13.0943 65.1445C13.063 64.9568 13.1256 64.8102 13.2819 64.7047C13.6924 64.4193 13.6182 64.085 13.0591 63.7019C12.8441 63.5533 12.8636 63.4478 13.1177 63.3852C13.3171 63.3344 13.5654 63.3911 13.8625 63.5553Z" fill="#867354"/>
<path d="M31.3269 65.0865L30.0016 65.1686C30.3261 64.6916 30.7679 64.6642 31.3269 65.0865Z" fill="#9B8C70"/>
<path d="M30.0012 65.168L31.3265 65.0859C31.5963 65.1016 31.7487 65.5375 31.7839 66.3937C31.8934 67.1717 31.219 67.4766 29.7607 67.3085C29.6004 67.117 29.5047 66.9332 29.4734 66.7573L29.5144 65.4554C29.7568 65.2208 29.9191 65.125 30.0012 65.168Z" fill="#F2ECD9"/>
<path d="M11.7636 70.8594C12.0763 71.004 12.3735 71.0607 12.655 71.0294L11.5583 72.6069C11.488 71.958 11.5564 71.3754 11.7636 70.8594Z" fill="#010101"/>
<path d="M8.72014 93.9213C9.72098 93.8001 10.7335 93.9389 11.7579 94.3376L10.5205 94.8127C10.4313 94.8459 10.3558 94.9083 10.3059 94.9901C10.256 95.0719 10.2345 95.1683 10.2449 95.2642C10.6495 98.9822 9.71707 101.51 12.8662 104.354C12.935 104.415 12.9907 104.489 13.03 104.572C13.0693 104.655 13.0914 104.744 13.0949 104.835C13.1594 106.365 13.4233 107.509 13.3764 109.227C13.3451 110.556 13.7713 111.719 14.6548 112.716L13.9159 119.83C13.7674 119.877 13.652 119.769 13.5699 119.507C12.9952 119.503 12.5183 119.427 12.139 119.279C12.0947 119.263 12.0584 119.231 12.038 119.188C12.0177 119.146 12.015 119.097 12.0305 119.053C12.0461 119.009 12.0786 118.972 12.121 118.952C12.1633 118.931 12.212 118.929 12.2563 118.944L13.0245 119.202C13.1111 119.23 13.2041 119.231 13.291 119.204C13.3779 119.177 13.4545 119.125 13.5107 119.053C13.5668 118.982 13.5998 118.895 13.6051 118.804C13.6105 118.713 13.588 118.623 13.5406 118.546C13.3412 118.225 13.3549 117.891 13.5817 117.543C13.6135 117.496 13.6322 117.442 13.6357 117.386C13.6391 117.33 13.6273 117.274 13.6014 117.224C13.5755 117.174 13.5366 117.132 13.4887 117.102C13.4408 117.073 13.3858 117.057 13.3295 117.056L11.6406 117.033C11.6082 117.028 11.5784 117.013 11.5561 116.989C11.5338 116.965 11.5205 116.935 11.5184 116.902C11.5164 116.869 11.5257 116.837 11.5447 116.811C11.5638 116.784 11.5914 116.765 11.623 116.757L13.1946 116.522C13.4018 116.491 13.5191 116.374 13.5465 116.171C13.7302 114.783 13.5621 113.448 13.0421 112.165C12.9796 112.013 12.9561 111.856 12.9718 111.696C13.0382 111 12.8916 110.265 12.5319 109.491C12.7001 109.464 12.8467 109.407 12.9718 109.321C13.0208 109.288 13.0565 109.239 13.0731 109.182C13.0896 109.126 13.0859 109.065 13.0626 109.01C13.0394 108.956 12.9979 108.91 12.9451 108.881C12.8923 108.852 12.8314 108.842 12.7724 108.852L11.189 109.145C11.3024 107.663 11.1323 106.952 10.6788 107.01C12.3482 106.42 12.5339 105.883 11.2359 105.398C11.7403 104.506 11.3884 103.775 10.1803 103.204C10.0044 103.122 9.84022 103.142 9.68775 103.263L7.60591 104.934C7.4378 105.067 7.37134 105.237 7.40652 105.445C7.45735 105.761 7.42802 106.058 7.31855 106.336C6.99406 106.199 6.83182 106.074 6.83182 105.961C7.32443 104.307 8.26467 103.044 9.65256 102.172C9.934 101.996 10.1418 101.722 10.2377 101.403C10.3336 101.084 10.3112 100.741 10.1745 100.437C9.63497 99.2559 9.4219 98.0361 9.53528 96.7772C9.55482 96.5895 9.47076 96.5035 9.28311 96.5192L8.93124 96.5426C9.41212 95.0648 9.34175 94.191 8.72014 93.9213Z" fill="#9B8C70"/>
<path d="M22.935 94.5736C22.376 97.9514 22.6868 101.361 23.8674 104.801C23.9339 104.993 23.9339 105.184 23.8674 105.376C23.7384 105.743 23.5273 105.962 23.2341 106.032L22.0026 105.575C21.7954 105.497 21.6722 105.35 21.6331 105.135L20.5834 99.441C20.4661 98.2251 20.3645 96.9975 20.2785 95.7582C20.2628 95.5431 20.2101 95.3828 20.1201 95.2773C20.0029 95.1365 19.8504 95.0388 19.6627 94.9841C19.7566 94.902 19.8133 94.8062 19.8328 94.6967C19.8602 94.5364 19.954 94.4406 20.1143 94.4094C21.3223 94.1787 22.2626 94.2334 22.935 94.5736Z" fill="#F2ECD9"/>
<path d="M8.93092 96.5409L9.28278 96.5174C9.47044 96.5018 9.5545 96.5878 9.53495 96.7755C9.42157 98.0343 9.63464 99.2541 10.1742 100.435C10.3109 100.739 10.3333 101.083 10.2374 101.402C10.1415 101.721 9.93367 101.994 9.65224 102.171C8.26435 103.042 7.3241 104.305 6.8315 105.959C5.01942 105.296 6.20401 103.308 7.11298 102.382C7.75219 101.737 8.96611 101.543 8.76086 100.2C8.56929 98.9531 8.62597 97.7333 8.93092 96.5409Z" fill="#F2ECD9"/>
<path d="M20.5833 99.4414L21.633 105.136C21.6721 105.351 21.7952 105.497 22.0024 105.575L23.2339 106.033C22.9915 106.314 22.8606 106.535 22.841 106.696C22.1608 106.574 21.5704 106.307 21.07 105.892C20.9214 105.767 20.8354 105.611 20.812 105.423L20.2724 100.767C20.4797 100.493 20.5833 100.051 20.5833 99.4414Z" fill="#9B8C70"/>
<path d="M20.2726 100.766L20.8121 105.422C20.8356 105.61 20.9216 105.766 21.0701 105.891C21.5706 106.305 22.1609 106.573 22.8412 106.694L22.331 107.903L19.7331 106.032C19.6422 105.967 19.5758 105.87 19.5454 105.756C19.3617 105.049 18.9785 104.493 18.396 104.091C18.358 104.063 18.3117 104.049 18.2651 104.053C18.2185 104.057 18.1747 104.077 18.1411 104.11C18.1076 104.144 18.0866 104.189 18.0817 104.236C18.0769 104.284 18.0885 104.332 18.1145 104.372C19.1623 105.956 19.563 107.343 19.3167 108.536C18.3628 108.032 17.6942 107.408 17.3111 106.665C17.2916 106.626 17.2603 106.612 17.2173 106.624C17.1625 106.64 17.1117 106.659 17.0648 106.683C17.0383 106.694 17.0147 106.711 16.9959 106.733C16.977 106.754 16.9634 106.78 16.956 106.808C16.9487 106.835 16.9478 106.864 16.9534 106.893C16.959 106.921 16.9711 106.947 16.9886 106.97L18.6247 109.093C18.6599 109.609 18.5876 110.061 18.4077 110.448C18.3846 110.496 18.3496 110.537 18.306 110.567C18.2624 110.598 18.2116 110.617 18.1586 110.622C18.1057 110.627 18.0522 110.619 18.0034 110.598C17.9546 110.576 17.9121 110.543 17.88 110.5C17.7275 110.293 17.5379 110.127 17.3111 110.002C17.0218 109.834 16.9319 109.908 17.0413 110.225C17.272 110.897 17.1059 111.45 16.5429 111.884C16.5008 111.915 16.4662 111.956 16.4418 112.003C16.4175 112.049 16.4039 112.101 16.4021 112.154L16.2849 115.198C16.277 115.342 16.3103 115.477 16.3845 115.602L17.2525 117.086C17.2808 117.135 17.2937 117.191 17.2894 117.248C17.2852 117.304 17.264 117.358 17.2287 117.402C17.1935 117.445 17.1459 117.477 17.0924 117.491C17.0389 117.506 16.9822 117.504 16.9299 117.485L15.716 117.057C15.6775 117.04 15.6342 117.039 15.5949 117.054C15.5556 117.068 15.5233 117.097 15.5045 117.134C15.4858 117.172 15.4821 117.215 15.4942 117.255C15.5062 117.295 15.5331 117.329 15.5694 117.35L17.3874 118.535C17.4337 118.564 17.4703 118.607 17.4928 118.657C17.5153 118.707 17.5227 118.762 17.5139 118.817C17.5052 118.871 17.4808 118.921 17.4437 118.962C17.4066 119.002 17.3585 119.031 17.3053 119.045L16.496 119.262C16.3474 119.305 16.2614 119.4 16.2379 119.549L15.7864 122.27C15.7551 122.469 15.8138 122.638 15.9623 122.774C16.1773 122.974 16.2321 123.234 16.1265 123.554C16.0718 123.73 16.0014 123.9 15.9154 124.065C15.6691 124.545 15.7395 125.294 16.1265 126.311C16.2907 126.733 16.1558 126.876 15.7219 126.739L15.1237 126.551C15.0714 126.531 15.0135 126.533 14.9622 126.555C14.9108 126.577 14.87 126.618 14.848 126.669C14.8261 126.721 14.8249 126.778 14.8446 126.831C14.8642 126.883 14.9033 126.926 14.9537 126.95L16.9475 128.035C17.0922 128.113 17.1665 128.234 17.1704 128.398C17.2525 130.832 16.6484 133.201 16.9534 135.529C17.2114 137.482 17.6806 139.541 17.4401 141.517C17.3815 141.986 17.4323 142.494 17.5926 143.042C17.663 143.292 17.5828 143.477 17.3522 143.599C17.1645 143.692 17.1293 143.827 17.2466 144.003L18.3139 145.569C18.339 145.605 18.3537 145.647 18.3562 145.69C18.3588 145.734 18.3492 145.777 18.3285 145.815C18.3078 145.854 18.2768 145.886 18.239 145.907C18.2012 145.929 18.1581 145.94 18.1145 145.939L16.9123 145.921C16.8715 145.923 16.8323 145.938 16.8008 145.964C16.7694 145.99 16.7473 146.026 16.738 146.066C16.7287 146.106 16.7327 146.147 16.7493 146.185C16.766 146.222 16.7944 146.253 16.8302 146.273C17.4988 146.589 17.7822 147.107 17.6806 147.827C17.6532 148.014 17.5476 148.138 17.3639 148.196L16.8889 148.343C16.8546 148.354 16.8234 148.373 16.7976 148.398C16.7718 148.424 16.7522 148.454 16.7403 148.488C16.7284 148.522 16.7245 148.559 16.7289 148.595C16.7333 148.63 16.7459 148.665 16.7657 148.695C17.2114 149.348 17.1997 149.977 16.7305 150.583C16.6054 150.747 16.5409 150.935 16.537 151.146C16.4842 154.917 15.4169 158.963 14.9302 162.746C14.7484 164.165 13.9215 165.338 13.4407 166.71C13.3976 166.835 13.427 166.939 13.5286 167.021L13.8805 167.308C13.9126 167.334 13.9373 167.369 13.9519 167.408C13.9664 167.447 13.9703 167.488 13.963 167.529C13.9558 167.569 13.9377 167.607 13.9108 167.637C13.8838 167.667 13.849 167.689 13.8101 167.701L13.3937 167.83C13.1944 167.893 13.1338 168.02 13.2119 168.211L13.64 169.267C13.6591 169.32 13.6591 169.38 13.64 169.437C13.4837 169.89 13.1357 170.111 12.5962 170.1C12.555 170.099 12.515 170.113 12.4831 170.14C12.4513 170.166 12.4297 170.202 12.422 170.243C12.4143 170.283 12.4211 170.325 12.4411 170.361C12.4612 170.397 12.4932 170.425 12.5317 170.44L13.1533 170.668C13.2534 170.705 13.3381 170.774 13.3935 170.866C13.4489 170.958 13.4717 171.066 13.4582 171.173L13.3468 172.064C13.3407 172.114 13.3242 172.161 13.2985 172.204C13.2728 172.247 13.2384 172.284 13.1975 172.313C13.1566 172.342 13.1102 172.361 13.0611 172.371C13.0121 172.381 12.9616 172.38 12.9129 172.369L12.1153 172.193C11.5993 172.076 11.5289 172.205 11.9042 172.58L12.7721 173.448C12.9911 173.667 12.952 173.821 12.6548 173.911C12.0958 174.079 11.5289 174.068 10.9542 173.876C10.9284 173.868 10.9011 173.866 10.8743 173.87C10.8476 173.874 10.8223 173.885 10.8005 173.901C10.7787 173.917 10.7611 173.938 10.749 173.962C10.737 173.987 10.7309 174.013 10.7313 174.04C10.7313 174.126 10.7333 174.208 10.7372 174.287C10.7411 174.439 10.8154 174.541 10.96 174.592L12.4144 175.108C12.5191 175.148 12.6065 175.224 12.6607 175.322C12.7148 175.421 12.7321 175.536 12.7093 175.645C12.6866 175.755 12.6253 175.852 12.5367 175.919C12.4481 175.986 12.3381 176.019 12.2267 176.011L10.5613 175.882C10.1508 175.85 10.1078 175.962 10.4323 176.216C11.093 176.732 11.8358 177.072 12.6607 177.236C12.7112 177.246 12.7577 177.27 12.795 177.306C12.8322 177.341 12.8586 177.387 12.8709 177.437C12.8832 177.486 12.881 177.539 12.8645 177.588C12.8481 177.636 12.8181 177.679 12.778 177.711C12.2854 178.098 11.7205 178.249 11.0832 178.163C11.0521 178.159 11.0202 178.163 10.9899 178.173C10.9595 178.183 10.9313 178.2 10.9073 178.222L10.7607 178.374C10.7371 178.398 10.7201 178.428 10.7114 178.461C10.7026 178.494 10.7023 178.528 10.7105 178.561C10.7187 178.594 10.7352 178.624 10.7583 178.649C10.7815 178.674 10.8105 178.692 10.8428 178.702L12.5141 179.213C12.5579 179.226 12.5973 179.251 12.6277 179.285C12.6581 179.319 12.6784 179.361 12.6863 179.406C12.6942 179.451 12.6894 179.498 12.6725 179.54C12.6555 179.583 12.6271 179.619 12.5903 179.647C11.9413 180.131 11.2415 180.214 10.4909 179.893C10.3306 179.823 10.2211 179.869 10.1625 180.034C10.143 180.085 10.1351 180.137 10.139 180.192C10.143 180.235 10.1605 180.272 10.1918 180.303C10.9112 180.917 11.7205 181.189 12.6197 181.119C12.6823 181.116 12.7438 181.136 12.7933 181.174C12.8427 181.213 12.8768 181.267 12.8895 181.329C12.9022 181.39 12.8927 181.454 12.8626 181.509C12.8325 181.564 12.7838 181.606 12.7252 181.629L10.9131 182.245C10.8389 182.272 10.7841 182.319 10.7489 182.385C10.7294 182.424 10.7098 182.471 10.6903 182.526C10.6781 182.56 10.6746 182.597 10.6801 182.634C10.6855 182.67 10.6997 182.704 10.7215 182.734C10.7434 182.764 10.7721 182.788 10.8055 182.805C10.8388 182.822 10.8757 182.831 10.9131 182.831H12.6783C12.7372 182.831 12.7945 182.85 12.8418 182.886C12.889 182.921 12.9237 182.97 12.9408 183.027C12.9578 183.083 12.9564 183.144 12.9366 183.199C12.9168 183.255 12.8797 183.302 12.8308 183.335C12.0919 183.812 11.2904 183.955 10.4264 183.763C10.3867 183.752 10.3444 183.755 10.3068 183.772C10.2691 183.789 10.2386 183.818 10.2204 183.855C10.2023 183.892 10.1977 183.934 10.2075 183.974C10.2173 184.014 10.2408 184.05 10.2739 184.074C11.0128 184.68 11.8417 184.813 12.7604 184.473C12.8043 184.459 12.8516 184.46 12.895 184.475C12.9384 184.491 12.9756 184.52 13.0008 184.559C13.0261 184.597 13.038 184.643 13.0349 184.689C13.0317 184.735 13.0136 184.778 12.9832 184.813C12.4554 185.357 11.8026 185.587 11.0246 185.505C10.9842 185.501 10.9434 185.505 10.9049 185.518C10.8665 185.531 10.8313 185.552 10.8018 185.58C10.7722 185.608 10.7491 185.642 10.7339 185.68C10.7187 185.717 10.7118 185.758 10.7137 185.798C10.7372 186.115 10.9425 186.307 11.3295 186.373C12.0019 186.486 12.606 186.353 13.1416 185.974C13.2119 185.927 13.2784 185.933 13.341 185.992L13.5228 186.174C13.5463 186.198 13.5633 186.228 13.5724 186.261C13.5815 186.294 13.5823 186.328 13.5747 186.361C13.5671 186.394 13.5515 186.425 13.5291 186.451C13.5067 186.476 13.4784 186.496 13.4465 186.508L11.2767 187.317C11.2279 187.337 11.1869 187.373 11.1598 187.418C11.1326 187.464 11.1208 187.517 11.1261 187.569C11.1314 187.622 11.1534 187.671 11.189 187.71C11.2245 187.75 11.2718 187.776 11.3236 187.786C12.3127 187.943 13.1474 187.665 13.8277 186.954C13.8333 186.948 13.8402 186.944 13.8477 186.942C13.8551 186.94 13.863 186.94 13.8705 186.942C13.8781 186.944 13.8851 186.947 13.8909 186.952C13.8968 186.957 13.9012 186.964 13.9039 186.971C13.9235 187.018 13.9391 187.067 13.9509 187.118C14.0017 187.321 13.945 187.489 13.7808 187.622L12.7604 188.426C12.7036 188.47 12.6653 188.533 12.6533 188.604C12.6412 188.675 12.6562 188.748 12.6952 188.809C12.7343 188.869 12.7945 188.913 12.8642 188.931C12.9338 188.949 13.0077 188.94 13.0712 188.906C13.4543 188.703 13.8277 188.537 14.1913 188.408C14.5705 188.279 14.6096 188.345 14.3086 188.607C14.2656 188.646 14.2226 188.687 14.1796 188.73C14.0075 188.914 14.0154 189.09 14.203 189.258C14.5901 189.602 15.1765 189.829 15.9623 189.939C12.1153 192.894 9.33563 188.977 8.87235 185.476C7.95752 178.632 8.4853 172.228 10.5026 165.66C11.3412 162.945 12.1798 160.552 11.6989 157.603C11.4018 155.812 11.2259 154.217 11.1712 152.817C10.8506 144.455 10.7607 135.267 10.9014 125.255C10.9776 119.848 9.57607 114.781 8.36216 109.574C8.02203 108.112 7.67407 107.033 7.3183 106.337C7.42777 106.059 7.45709 105.762 7.40627 105.445C7.37108 105.238 7.43754 105.068 7.60565 104.935L9.68749 103.264C9.83996 103.143 10.0042 103.123 10.1801 103.205C11.3881 103.776 11.74 104.507 11.2357 105.398C10.1918 105.754 9.32195 106.255 8.62605 106.9C8.59001 106.932 8.56528 106.974 8.55555 107.022C8.54583 107.069 8.55163 107.118 8.5721 107.161C8.59257 107.205 8.62659 107.241 8.66909 107.263C8.71159 107.286 8.76026 107.294 8.80784 107.287L10.6786 107.011C11.1321 106.953 11.3021 107.664 11.1888 109.146L9.3239 109.498C9.28886 109.504 9.25545 109.518 9.22558 109.537C9.19571 109.556 9.16997 109.582 9.14983 109.611C9.10913 109.67 9.0937 109.744 9.10692 109.814C9.12014 109.885 9.16093 109.948 9.22032 109.988C9.27971 110.029 9.35283 110.044 9.4236 110.031L12.5317 109.492C12.8914 110.266 13.038 111.001 12.9715 111.697C12.9559 111.857 12.9793 112.013 13.0419 112.166C13.5619 113.448 13.73 114.783 13.5462 116.171C13.5188 116.375 13.4016 116.492 13.1944 116.523L11.6227 116.758C11.5912 116.766 11.5635 116.785 11.5445 116.811C11.5254 116.838 11.5161 116.87 11.5182 116.903C11.5203 116.935 11.5336 116.966 11.5559 116.99C11.5781 117.014 11.608 117.029 11.6403 117.033L13.3292 117.057C13.3855 117.057 13.4405 117.073 13.4884 117.103C13.5363 117.133 13.5753 117.175 13.6012 117.225C13.6271 117.274 13.6389 117.331 13.6354 117.387C13.6319 117.443 13.6133 117.497 13.5814 117.543C13.3546 117.891 13.341 118.226 13.5403 118.546C13.5877 118.624 13.6102 118.714 13.6049 118.805C13.5995 118.895 13.5666 118.982 13.5104 119.054C13.4543 119.125 13.3776 119.178 13.2907 119.205C13.2038 119.231 13.1109 119.231 13.0243 119.203L12.2561 118.945C12.2117 118.929 12.163 118.932 12.1207 118.953C12.0784 118.973 12.0458 119.009 12.0303 119.054C12.0147 119.098 12.0174 119.147 12.0378 119.189C12.0581 119.231 12.0944 119.264 12.1388 119.279C12.518 119.428 12.995 119.504 13.5697 119.508C13.3937 120.44 12.2912 120.517 12.3968 121.467C12.4087 121.571 12.4562 121.668 12.5312 121.741C12.6061 121.814 12.7038 121.858 12.8073 121.865L13.2413 121.901C13.3109 121.907 13.3763 121.936 13.4272 121.984C13.478 122.032 13.5111 122.096 13.5213 122.165C13.5314 122.234 13.518 122.305 13.4832 122.365C13.4483 122.426 13.3941 122.473 13.3292 122.499C12.9422 122.651 12.6861 122.911 12.561 123.279C12.4985 123.466 12.5395 123.629 12.6842 123.766L13.2589 124.305C13.4113 124.446 13.4543 124.614 13.3879 124.809C13.2862 125.114 13.1474 125.31 12.9715 125.396C12.7018 125.525 12.6314 125.724 12.7604 125.994C13.0184 126.533 13.0302 127.069 12.7956 127.601C12.7057 127.8 12.6959 128.002 12.7663 128.205C12.9891 128.846 13.0145 129.489 12.8425 130.134C12.7917 130.326 12.8347 130.494 12.9715 130.638C13.382 131.057 13.3566 131.401 12.8953 131.671C12.8097 131.721 12.7468 131.802 12.7196 131.898C12.6923 131.994 12.7027 132.097 12.7487 132.187C13.382 133.406 12.7428 134.005 12.6666 134.978C12.5962 135.952 12.6236 136.915 12.7487 137.869C12.776 138.057 12.7213 138.217 12.5845 138.35C12.4164 138.506 12.3323 138.7 12.3323 138.931C12.3339 139.012 12.3599 139.092 12.4069 139.159C12.4539 139.225 12.5198 139.277 12.5962 139.306L13.382 139.617C13.4381 139.639 13.4864 139.677 13.5209 139.726C13.5553 139.776 13.5744 139.834 13.5756 139.894C13.5769 139.955 13.5603 140.014 13.5279 140.065C13.4955 140.115 13.4489 140.155 13.3937 140.18L12.6666 140.508C12.6159 140.531 12.5708 140.565 12.534 140.607C12.4972 140.649 12.4697 140.698 12.4531 140.752C12.4365 140.805 12.4313 140.862 12.4378 140.918C12.4442 140.974 12.4622 141.028 12.4906 141.077L12.9715 141.875C13.0693 142.039 13.0653 142.203 12.9598 142.367C12.432 143.188 12.9129 143.839 12.9481 144.543C13.0262 146.134 12.9637 147.717 12.7604 149.293C12.7057 149.703 12.7799 150.026 12.9832 150.261C13.0182 150.301 13.064 150.33 13.115 150.344C13.1661 150.359 13.2203 150.358 13.2711 150.343C13.3219 150.327 13.3671 150.297 13.4014 150.257C13.4356 150.216 13.4574 150.167 13.4641 150.114C14.0799 144.836 14.2793 139.822 14.033 134.556C13.9215 132.21 14.2441 129.905 13.9743 127.571C13.6811 124.985 14.1854 122.305 13.9157 119.831L14.6546 112.717C15.1061 110.7 16.6719 104.853 18.179 103.909C18.3484 103.8 18.4684 103.629 18.5133 103.434C18.744 102.417 19.3304 101.528 20.2726 100.766ZM11.1125 112.424C11.523 112.576 11.9101 112.529 12.2737 112.283C12.3073 112.26 12.3326 112.226 12.3457 112.187C12.3589 112.148 12.3593 112.106 12.3469 112.066C12.3345 112.027 12.3099 111.993 12.2767 111.969C12.2435 111.944 12.2034 111.931 12.1622 111.931L9.99244 111.966C9.94729 111.973 9.90586 111.995 9.87544 112.029C9.84502 112.063 9.82757 112.107 9.82617 112.152C9.82477 112.198 9.8395 112.242 9.86777 112.278C9.89604 112.314 9.93604 112.339 9.98071 112.348C10.184 112.363 10.3893 112.363 10.5965 112.348C10.7724 112.336 10.9444 112.361 11.1125 112.424ZM12.8014 114.799C12.8378 114.801 12.8739 114.791 12.9035 114.77C12.9332 114.749 12.9547 114.718 12.9643 114.683C12.974 114.648 12.9712 114.61 12.9565 114.577C12.9418 114.544 12.916 114.516 12.8835 114.5C12.3792 114.257 11.8026 114.259 11.1536 114.506C10.9346 114.592 10.9425 114.645 11.177 114.664L12.8014 114.799Z" fill="#F2ECD9"/>
<path d="M22.331 107.905L21.6097 109.758C20.2023 109.343 19.438 108.937 19.3168 108.538C19.5631 107.346 19.1623 105.958 18.1146 104.374C18.0885 104.335 18.0769 104.286 18.0818 104.239C18.0867 104.191 18.1077 104.146 18.1412 104.113C18.1747 104.079 18.2186 104.059 18.2652 104.055C18.3117 104.052 18.3581 104.065 18.3961 104.093C18.9786 104.496 19.3617 105.051 19.5455 105.758C19.5758 105.872 19.6422 105.97 19.7331 106.034L22.331 107.905Z" fill="#BCAE93"/>
<path d="M11.2355 105.398C12.5335 105.883 12.3478 106.421 10.6784 107.011L8.80767 107.287C8.76009 107.294 8.71141 107.286 8.66891 107.263C8.62642 107.241 8.59239 107.205 8.57192 107.161C8.55146 107.118 8.54566 107.069 8.55538 107.021C8.5651 106.974 8.58984 106.932 8.62587 106.9C9.32177 106.255 10.1916 105.754 11.2355 105.398Z" fill="#867354"/>
<path d="M19.3169 108.537C19.4381 108.936 20.2024 109.342 21.6099 109.757C21.4926 110.292 21.3988 110.484 21.3284 110.331C20.4409 110.155 19.5398 109.743 18.6249 109.094L16.9888 106.971C16.9713 106.948 16.9593 106.922 16.9536 106.894C16.948 106.866 16.9489 106.836 16.9562 106.809C16.9636 106.781 16.9772 106.755 16.9961 106.734C17.0149 106.712 17.0385 106.695 17.065 106.684C17.1119 106.66 17.1628 106.641 17.2175 106.625C17.2605 106.613 17.2918 106.627 17.3113 106.666C17.6945 107.409 18.363 108.033 19.3169 108.537Z" fill="#9B8C70"/>
<path d="M12.5315 109.49L9.42344 110.03C9.3884 110.037 9.3524 110.036 9.31753 110.029C9.28265 110.021 9.24957 110.007 9.22016 109.987C9.16077 109.946 9.11998 109.884 9.10676 109.813C9.09354 109.742 9.10897 109.669 9.14967 109.61C9.19036 109.55 9.25298 109.51 9.32375 109.496L11.1886 109.144L12.772 108.851C12.831 108.841 12.8919 108.852 12.9447 108.881C12.9975 108.91 13.039 108.955 13.0622 109.01C13.0855 109.065 13.0892 109.125 13.0726 109.182C13.0561 109.238 13.0204 109.287 12.9714 109.32C12.8463 109.406 12.6996 109.463 12.5315 109.49Z" fill="#010101"/>
<path d="M18.6247 109.094C19.5395 109.743 20.4407 110.155 21.3281 110.331C21.246 110.929 21.076 111.416 20.8179 111.791L19.3753 111.516C19.1016 111.465 19.0449 111.553 19.2052 111.78C19.4828 112.167 19.909 112.515 20.4837 112.823C20.0732 115.662 19.5336 118.418 19.5395 121.268C19.5688 133.777 19.9207 146.449 17.3521 158.43C17.0354 159.908 17.3345 162.183 17.6277 163.679C18.9922 170.556 19.7193 175.83 19.8093 179.501C19.9031 183.168 18.6208 186.647 15.9623 189.939C15.1764 189.83 14.59 189.603 14.203 189.259C14.0153 189.091 14.0075 188.915 14.1795 188.731C14.2225 188.688 14.2655 188.647 14.3085 188.608C14.6096 188.346 14.5705 188.28 14.1912 188.409C13.8276 188.538 13.4543 188.704 13.0712 188.907C13.0076 188.941 12.9337 188.95 12.8641 188.931C12.7945 188.913 12.7342 188.87 12.6952 188.809C12.6561 188.749 12.6412 188.676 12.6532 188.605C12.6653 188.534 12.7035 188.47 12.7603 188.426L13.7807 187.623C13.9449 187.49 14.0016 187.322 13.9508 187.119C13.9391 187.068 13.9234 187.019 13.9039 186.972C13.9012 186.965 13.8967 186.958 13.8909 186.953C13.8851 186.948 13.878 186.944 13.8705 186.943C13.8629 186.941 13.8551 186.941 13.8476 186.943C13.8401 186.945 13.8333 186.949 13.8277 186.954C13.1474 187.666 12.3127 187.943 11.3236 187.787C11.2717 187.777 11.2245 187.75 11.1889 187.711C11.1533 187.672 11.1313 187.623 11.126 187.57C11.1208 187.517 11.1326 187.464 11.1597 187.419C11.1868 187.374 11.2278 187.338 11.2767 187.318L13.4465 186.509C13.4783 186.497 13.5067 186.477 13.529 186.452C13.5514 186.426 13.5671 186.395 13.5746 186.362C13.5822 186.329 13.5814 186.294 13.5723 186.262C13.5633 186.229 13.5462 186.199 13.5227 186.174L13.3409 185.993C13.2784 185.934 13.2119 185.928 13.1415 185.975C12.6059 186.354 12.0019 186.487 11.3295 186.374C10.9424 186.307 10.7372 186.116 10.7137 185.799C10.7118 185.759 10.7186 185.718 10.7338 185.68C10.749 185.643 10.7722 185.609 10.8017 185.581C10.8312 185.553 10.8664 185.532 10.9049 185.519C10.9433 185.506 10.9841 185.502 11.0245 185.506C11.8025 185.588 12.4554 185.357 12.9832 184.814C13.0135 184.779 13.0316 184.736 13.0348 184.69C13.038 184.644 13.0261 184.598 13.0008 184.559C12.9755 184.521 12.9384 184.492 12.895 184.476C12.8515 184.461 12.8043 184.46 12.7603 184.474C11.8416 184.814 11.0128 184.681 10.2739 184.075C10.2407 184.051 10.2172 184.015 10.2074 183.975C10.1977 183.935 10.2022 183.893 10.2204 183.856C10.2385 183.819 10.2691 183.79 10.3067 183.773C10.3444 183.756 10.3867 183.753 10.4263 183.764C11.2904 183.956 12.0918 183.813 12.8307 183.336C12.8796 183.303 12.9167 183.255 12.9365 183.2C12.9563 183.144 12.9578 183.084 12.9407 183.028C12.9237 182.971 12.889 182.922 12.8417 182.886C12.7945 182.851 12.7372 182.832 12.6782 182.832H10.9131C10.8757 182.832 10.8388 182.823 10.8054 182.806C10.7721 182.789 10.7433 182.765 10.7215 182.735C10.6997 182.705 10.6855 182.671 10.68 182.634C10.6746 182.598 10.6781 182.561 10.6902 182.527C10.7098 182.472 10.7293 182.425 10.7489 182.386C10.7841 182.32 10.8388 182.273 10.9131 182.245L12.7252 181.63C12.7837 181.607 12.8324 181.565 12.8625 181.51C12.8926 181.455 12.9022 181.391 12.8895 181.33C12.8768 181.268 12.8427 181.213 12.7932 181.175C12.7438 181.136 12.6822 181.117 12.6196 181.119C11.7204 181.19 10.9111 180.918 10.1918 180.304C10.1605 180.273 10.1429 180.236 10.139 180.193C10.1351 180.138 10.1429 180.085 10.1624 180.034C10.2211 179.87 10.3306 179.823 10.4908 179.894C11.2415 180.214 11.9413 180.132 12.5903 179.647C12.627 179.62 12.6555 179.583 12.6724 179.541C12.6894 179.498 12.6942 179.452 12.6863 179.407C12.6784 179.362 12.658 179.32 12.6276 179.286C12.5972 179.252 12.5579 179.227 12.514 179.213L10.8427 178.703C10.8105 178.693 10.7814 178.674 10.7583 178.65C10.7351 178.625 10.7187 178.595 10.7105 178.562C10.7023 178.529 10.7026 178.495 10.7113 178.462C10.7201 178.429 10.7371 178.399 10.7606 178.375L10.9072 178.222C10.9313 178.2 10.9595 178.184 10.9898 178.174C11.0202 178.163 11.052 178.16 11.0832 178.164C11.7204 178.25 12.2853 178.099 12.7779 177.712C12.818 177.68 12.848 177.637 12.8645 177.588C12.881 177.54 12.8831 177.487 12.8708 177.437C12.8585 177.387 12.8322 177.342 12.7949 177.307C12.7577 177.271 12.7111 177.247 12.6606 177.237C11.8357 177.073 11.0929 176.733 10.4322 176.217C10.1077 175.963 10.1507 175.851 10.5612 175.883L12.2267 176.012C12.3381 176.019 12.4481 175.987 12.5367 175.92C12.6252 175.853 12.6865 175.755 12.7093 175.646C12.732 175.536 12.7147 175.422 12.6606 175.323C12.6065 175.225 12.5191 175.148 12.4143 175.108L10.96 174.592C10.8153 174.542 10.7411 174.44 10.7371 174.287C10.7332 174.209 10.7313 174.127 10.7313 174.041C10.7309 174.014 10.7369 173.987 10.749 173.963C10.761 173.939 10.7787 173.918 10.8004 173.902C10.8222 173.886 10.8476 173.875 10.8743 173.871C10.901 173.866 10.9284 173.869 10.9541 173.877C11.5288 174.069 12.0957 174.08 12.6548 173.912C12.9519 173.822 12.991 173.668 12.7721 173.449L11.9042 172.581C11.5288 172.206 11.5992 172.077 12.1153 172.194L12.9128 172.37C12.9616 172.381 13.0121 172.382 13.0611 172.372C13.1101 172.362 13.1566 172.342 13.1974 172.314C13.2383 172.285 13.2727 172.248 13.2985 172.205C13.3242 172.162 13.3406 172.114 13.3468 172.065L13.4582 171.173C13.4717 171.067 13.4488 170.958 13.3934 170.867C13.338 170.775 13.2533 170.705 13.1533 170.669L12.5316 170.44C12.4932 170.426 12.4611 170.398 12.4411 170.362C12.421 170.326 12.4143 170.284 12.4219 170.243C12.4296 170.203 12.4513 170.166 12.4831 170.14C12.5149 170.114 12.5549 170.1 12.5961 170.1C13.1357 170.112 13.4836 169.891 13.64 169.438C13.6591 169.381 13.6591 169.321 13.64 169.268L13.2119 168.212C13.1337 168.02 13.1943 167.893 13.3937 167.831L13.8101 167.702C13.849 167.69 13.8838 167.668 13.9107 167.638C13.9377 167.607 13.9558 167.57 13.963 167.53C13.9702 167.489 13.9664 167.447 13.9518 167.408C13.9373 167.37 13.9126 167.335 13.8804 167.309L13.5286 167.022C13.4269 166.939 13.3976 166.836 13.4406 166.711C13.9215 165.338 14.7484 164.166 14.9301 162.746C15.4169 158.964 16.4842 154.918 16.537 151.147C16.5409 150.936 16.6054 150.748 16.7305 150.584C17.1996 149.978 17.2114 149.348 16.7657 148.696C16.7459 148.665 16.7333 148.631 16.7289 148.595C16.7245 148.56 16.7284 148.523 16.7403 148.489C16.7522 148.455 16.7718 148.424 16.7975 148.399C16.8233 148.374 16.8545 148.355 16.8888 148.344L17.3638 148.197C17.5476 148.138 17.6531 148.015 17.6805 147.828C17.7822 147.108 17.4987 146.59 16.8302 146.274C16.7943 146.254 16.7659 146.223 16.7493 146.186C16.7326 146.148 16.7286 146.106 16.7379 146.067C16.7472 146.027 16.7693 145.991 16.8008 145.965C16.8323 145.939 16.8714 145.924 16.9123 145.922L18.1145 145.939C18.158 145.941 18.2012 145.93 18.239 145.908C18.2768 145.886 18.3078 145.855 18.3285 145.816C18.3492 145.778 18.3588 145.735 18.3562 145.691C18.3536 145.647 18.3389 145.606 18.3139 145.57L17.2466 144.004C17.1293 143.828 17.1644 143.693 17.3521 143.599C17.5828 143.478 17.6629 143.293 17.5925 143.042C17.4323 142.495 17.3814 141.987 17.4401 141.518C17.6805 139.541 17.2114 137.483 16.9533 135.53C16.6484 133.202 17.2524 130.833 17.1703 128.399C17.1664 128.235 17.0921 128.114 16.9475 128.036L14.9536 126.951C14.9032 126.926 14.8642 126.884 14.8445 126.831C14.8248 126.779 14.8261 126.721 14.848 126.67C14.8699 126.619 14.9108 126.578 14.9621 126.556C15.0135 126.534 15.0714 126.532 15.1237 126.552L15.7218 126.739C16.1558 126.876 16.2907 126.734 16.1265 126.311C15.7394 125.295 15.669 124.546 15.9153 124.065C16.0014 123.901 16.0717 123.731 16.1265 123.555C16.232 123.235 16.1773 122.975 15.9623 122.775C15.8137 122.638 15.7551 122.47 15.7863 122.271L16.2379 119.55C16.2613 119.401 16.3474 119.305 16.4959 119.262L17.3052 119.046C17.3585 119.032 17.4066 119.003 17.4437 118.963C17.4807 118.922 17.5052 118.872 17.5139 118.817C17.5226 118.763 17.5153 118.708 17.4928 118.657C17.4703 118.607 17.4336 118.565 17.3873 118.535L15.5694 117.351C15.5331 117.33 15.5062 117.296 15.4941 117.256C15.4821 117.216 15.4858 117.172 15.5045 117.135C15.5232 117.098 15.5555 117.069 15.5948 117.054C15.6341 117.04 15.6775 117.041 15.716 117.057L16.9299 117.486C16.9822 117.505 17.0389 117.507 17.0923 117.492C17.1458 117.477 17.1934 117.446 17.2287 117.402C17.2639 117.359 17.2851 117.305 17.2894 117.249C17.2936 117.192 17.2807 117.136 17.2524 117.087L16.3845 115.603C16.3102 115.478 16.277 115.343 16.2848 115.199L16.4021 112.155C16.4038 112.102 16.4174 112.05 16.4418 112.003C16.4662 111.957 16.5007 111.916 16.5428 111.885C17.1058 111.451 17.272 110.898 17.0413 110.226C16.9318 109.909 17.0218 109.835 17.3111 110.003C17.5378 110.128 17.7274 110.294 17.8799 110.501C17.912 110.544 17.9546 110.577 18.0034 110.598C18.0522 110.62 18.1056 110.628 18.1586 110.623C18.2116 110.618 18.2623 110.599 18.3059 110.568C18.3495 110.538 18.3846 110.496 18.4077 110.448C18.5875 110.061 18.6599 109.61 18.6247 109.094ZM15.9447 183.582C16.7149 183.367 16.9885 182.879 16.7657 182.116C16.3004 180.529 16.1265 178.907 16.2437 177.249C16.2555 177.053 16.2047 176.876 16.0913 176.715C15.9349 176.496 15.8684 176.313 15.8919 176.164C16.3728 173.332 15.5752 170.781 15.8919 167.966C15.9002 167.878 15.8762 167.79 15.8242 167.718C15.7723 167.646 15.696 167.596 15.6097 167.577C15.5234 167.557 15.433 167.57 15.3554 167.613C15.2778 167.655 15.2184 167.724 15.1882 167.807C14.5705 169.586 14.2108 171.402 14.1091 173.255C13.9743 175.607 14.9067 178.451 15.1119 181.078C15.1309 181.282 15.07 181.485 14.9419 181.647C13.6908 183.234 13.64 184.884 14.7894 186.597C14.8331 186.662 14.8938 186.714 14.965 186.748C15.0362 186.782 15.1152 186.795 15.1935 186.787C15.2718 186.78 15.3465 186.751 15.4096 186.704C15.4728 186.657 15.5219 186.593 15.5518 186.52C15.8958 185.703 15.9447 184.873 15.6984 184.028C15.6855 183.982 15.6817 183.933 15.6871 183.886C15.6925 183.838 15.7071 183.792 15.73 183.751C15.753 183.709 15.7837 183.673 15.8206 183.644C15.8574 183.615 15.8996 183.594 15.9447 183.582Z" fill="#BCAE93"/>
<path d="M20.8178 111.79L20.4835 112.822C19.9088 112.513 19.4826 112.165 19.2051 111.778C19.0448 111.551 19.1015 111.463 19.3751 111.514L20.8178 111.79Z" fill="#867354"/>
<path d="M10.5964 112.346C10.3892 112.362 10.1839 112.362 9.98061 112.346C9.93595 112.337 9.89595 112.312 9.86768 112.276C9.8394 112.241 9.82467 112.196 9.82608 112.151C9.82748 112.105 9.84493 112.061 9.87535 112.027C9.90576 111.993 9.9472 111.971 9.99234 111.965L12.1621 111.93C12.2033 111.93 12.2434 111.943 12.2766 111.967C12.3098 111.991 12.3344 112.026 12.3468 112.065C12.3592 112.104 12.3588 112.146 12.3456 112.185C12.3325 112.224 12.3072 112.258 12.2736 112.282C11.91 112.528 11.5229 112.575 11.1124 112.422C10.9443 112.36 10.7723 112.334 10.5964 112.346Z" fill="#867354"/>
<path d="M12.8016 114.796L11.1772 114.661C10.9426 114.641 10.9348 114.589 11.1538 114.503C11.8027 114.256 12.3794 114.254 12.8837 114.497C12.9162 114.513 12.942 114.541 12.9567 114.574C12.9714 114.607 12.9742 114.645 12.9645 114.68C12.9549 114.715 12.9334 114.746 12.9037 114.767C12.8741 114.788 12.838 114.798 12.8016 114.796Z" fill="#9B8C70"/>
<path d="M13.5697 119.508C13.6518 119.77 13.7672 119.877 13.9157 119.83C14.1855 122.305 13.6812 124.985 13.9744 127.571C14.2441 129.905 13.9216 132.21 14.033 134.556C14.2793 139.822 14.0799 144.836 13.4642 150.114C13.4575 150.166 13.4357 150.216 13.4014 150.257C13.3672 150.297 13.322 150.327 13.2712 150.343C13.2204 150.358 13.1662 150.358 13.1151 150.344C13.064 150.329 13.0183 150.3 12.9833 150.26C12.78 150.026 12.7057 149.703 12.7605 149.293C12.9638 147.717 13.0263 146.134 12.9481 144.543C12.9129 143.839 12.4321 143.188 12.9599 142.367C13.0654 142.203 13.0693 142.039 12.9716 141.874L12.4907 141.077C12.4623 141.028 12.4443 140.974 12.4378 140.918C12.4314 140.862 12.4366 140.805 12.4532 140.752C12.4697 140.698 12.4973 140.649 12.5341 140.607C12.5708 140.565 12.616 140.531 12.6666 140.508L13.3938 140.18C13.4489 140.155 13.4956 140.115 13.528 140.064C13.5604 140.014 13.577 139.954 13.5757 139.894C13.5745 139.834 13.5554 139.775 13.5209 139.726C13.4865 139.677 13.4382 139.639 13.3821 139.617L12.5963 139.306C12.5199 139.277 12.454 139.225 12.407 139.158C12.36 139.092 12.334 139.012 12.3324 138.93C12.3324 138.7 12.4164 138.506 12.5845 138.35C12.7214 138.217 12.7761 138.057 12.7487 137.869C12.6236 136.915 12.5963 135.951 12.6666 134.978C12.7429 134.004 13.3821 133.406 12.7487 132.186C12.7028 132.097 12.6924 131.994 12.7196 131.898C12.7469 131.802 12.8098 131.72 12.8953 131.67C13.3567 131.401 13.3821 131.057 12.9716 130.638C12.8348 130.494 12.7917 130.326 12.8426 130.134C13.0146 129.489 12.9892 128.846 12.7663 128.205C12.696 128.001 12.7057 127.8 12.7957 127.601C13.0302 127.069 13.0185 126.533 12.7605 125.994C12.6315 125.724 12.7018 125.525 12.9716 125.396C13.1475 125.31 13.2863 125.114 13.3879 124.809C13.4544 124.614 13.4114 124.446 13.2589 124.305L12.6842 123.765C12.5396 123.628 12.4985 123.466 12.5611 123.279C12.6862 122.911 12.9423 122.651 13.3293 122.499C13.3942 122.473 13.4484 122.426 13.4833 122.365C13.5181 122.304 13.5315 122.234 13.5213 122.165C13.5112 122.096 13.478 122.032 13.4272 121.984C13.3764 121.936 13.3109 121.907 13.2413 121.9L12.8074 121.865C12.7038 121.858 12.6062 121.814 12.5312 121.741C12.4563 121.668 12.4088 121.571 12.3969 121.466C12.2913 120.516 13.3938 120.44 13.5697 119.508Z" fill="#BCAE93"/>
<path d="M15.6981 184.027C15.9444 184.871 15.8956 185.702 15.5515 186.519C15.5216 186.592 15.4725 186.655 15.4094 186.702C15.3463 186.749 15.2716 186.778 15.1932 186.786C15.1149 186.794 15.0359 186.78 14.9648 186.747C14.8936 186.713 14.8329 186.661 14.7892 186.595C13.6398 184.883 13.6906 183.233 14.9416 181.646C15.0697 181.484 15.1307 181.28 15.1117 181.077C14.9065 178.45 13.974 175.605 14.1089 173.254C14.2106 171.401 14.5702 169.585 15.1879 167.806C15.2181 167.723 15.2776 167.653 15.3552 167.611C15.4328 167.569 15.5232 167.556 15.6095 167.575C15.6958 167.595 15.772 167.645 15.824 167.716C15.8759 167.788 15.9 167.876 15.8917 167.964C15.575 170.779 16.3725 173.33 15.8917 176.163C15.8682 176.311 15.9347 176.495 16.0911 176.714C16.2044 176.874 16.2552 177.052 16.2435 177.247C16.1262 178.905 16.3002 180.528 16.7654 182.115C16.9883 182.877 16.7146 183.366 15.9444 183.581C15.8994 183.593 15.8572 183.614 15.8203 183.643C15.7835 183.672 15.7527 183.708 15.7298 183.749C15.7069 183.791 15.6923 183.837 15.6869 183.884C15.6814 183.932 15.6853 183.98 15.6981 184.027Z" fill="#F2ECD9"/>
</svg>
