<svg width="30" height="35" viewBox="0 0 30 35" fill="none" xmlns="http://www.w3.org/2000/svg">
<path d="M2.86602 27.2625C10.3333 22.297 17.7459 17.3079 25.2132 12.3424C26.8368 11.2885 25.017 8.87993 23.4481 9.95746C15.9808 14.923 8.56828 19.9121 1.10096 24.8776C-0.522652 25.9316 1.2424 28.3165 2.86602 27.2625Z" fill="white"/>
<path d="M20.61 29.6491C23.4515 23.2089 26.2145 16.7999 29.0559 10.3598C29.4337 9.48333 28.8643 8.39337 27.8698 8.28941C22.9208 7.71484 17.8924 7.62573 12.9103 7.88135C10.9912 7.96339 11.3763 10.9876 13.2643 10.8272C18.0037 10.5319 22.7421 10.6909 27.5031 11.2494C27.0895 10.5514 26.7306 9.87699 26.317 9.179C23.4756 15.6191 20.7126 22.0281 17.8712 28.4683C17.1155 30.2212 19.8544 31.402 20.61 29.6491Z" fill="white"/>
</svg>
