<svg width="36" height="26" viewBox="0 0 36 26" fill="none" xmlns="http://www.w3.org/2000/svg">
<path d="M2.14271 3.2232C9.48416 3.2232 16.8256 3.2232 24.2088 3.2232C26.2944 3.2232 28.4218 3.2232 30.5074 3.2232C31.8422 3.2232 31.8422 0 30.5074 0C23.166 0 15.8245 0 8.44135 0C6.35571 0 4.22835 0 2.14271 0C0.807899 0 0.807899 3.2232 2.14271 3.2232Z" fill="white"/>
<path d="M2.00425 14.5084C10.5971 14.7018 19.1482 14.444 27.7411 13.8638C30.1604 13.6704 32.5797 13.5415 34.9991 13.2836C36.3339 13.1547 36.3339 9.93148 34.9991 10.0604C26.448 10.834 17.8551 11.2852 9.304 11.2852C6.88465 11.2852 4.46531 11.2852 2.04597 11.2208C0.669444 11.2208 0.669445 14.444 2.00425 14.5084Z" fill="white"/>
<path d="M0.995954 25.9362C9.58879 26.1296 18.1399 25.8717 26.7328 25.2915C29.1521 25.0981 31.5714 24.9692 33.9908 24.7113C35.3256 24.5824 35.3256 21.3592 33.9908 21.4881C25.4397 22.2617 16.8468 22.713 8.2957 22.713C5.87635 22.713 3.45701 22.7129 1.03767 22.6485C-0.338857 22.6485 -0.338856 25.8717 0.995954 25.9362Z" fill="white"/>
</svg>
