<svg width="34" height="34" viewBox="0 0 34 34" fill="none" xmlns="http://www.w3.org/2000/svg">
<path d="M16.7164 3.01025C21.1828 3.01025 21.7117 3.02984 23.4682 3.1082C25.1007 3.18003 25.9822 3.45428 26.5699 3.68283C27.347 3.9832 27.9085 4.34887 28.4897 4.93003C29.0774 5.51771 29.4365 6.07275 29.7369 6.8498C29.9654 7.43748 30.2397 8.32554 30.3115 9.95147C30.3899 11.7145 30.4094 12.2434 30.4094 16.7033C30.4094 21.1697 30.3899 21.6986 30.3115 23.4552C30.2397 25.0876 29.9654 25.9692 29.7369 26.5568C29.4365 27.3339 29.0708 27.8955 28.4897 28.4766C27.902 29.0643 27.347 29.4234 26.5699 29.7238C25.9822 29.9524 25.0942 30.2266 23.4682 30.2984C21.7052 30.3768 21.1763 30.3964 16.7164 30.3964C12.25 30.3964 11.7211 30.3768 9.96453 30.2984C8.33207 30.2266 7.45054 29.9524 6.86286 29.7238C6.08581 29.4234 5.52424 29.0578 4.94309 28.4766C4.3554 27.8889 3.99626 27.3339 3.69589 26.5568C3.46734 25.9692 3.19309 25.0811 3.12126 23.4552C3.0429 21.6921 3.02331 21.1632 3.02331 16.7033C3.02331 12.2369 3.0429 11.708 3.12126 9.95147C3.19309 8.31901 3.46734 7.43748 3.69589 6.8498C3.99626 6.07275 4.36193 5.51118 4.94309 4.93003C5.53077 4.34234 6.08581 3.9832 6.86286 3.68283C7.45054 3.45428 8.3386 3.18003 9.96453 3.1082C11.7211 3.02984 12.25 3.01025 16.7164 3.01025ZM16.7164 0C12.1781 0 11.61 0.0195895 9.8274 0.0979475C8.05129 0.176306 6.83021 0.463618 5.77238 0.874998C4.66883 1.30597 3.73507 1.87406 2.80783 2.80783C1.87406 3.73507 1.30597 4.66883 0.874998 5.76585C0.463618 6.83021 0.176306 8.04476 0.0979476 9.82087C0.0195895 11.61 0 12.1781 0 16.7164C0 21.2546 0.0195895 21.8227 0.0979476 23.6054C0.176306 25.3815 0.463618 26.6026 0.874998 27.6604C1.30597 28.7639 1.87406 29.6977 2.80783 30.6249C3.73507 31.5522 4.66883 32.1268 5.76585 32.5512C6.83021 32.9626 8.04476 33.2499 9.82087 33.3283C11.6035 33.4066 12.1716 33.4262 16.7099 33.4262C21.2481 33.4262 21.8162 33.4066 23.5988 33.3283C25.3749 33.2499 26.596 32.9626 27.6539 32.5512C28.7509 32.1268 29.6846 31.5522 30.6119 30.6249C31.5391 29.6977 32.1137 28.7639 32.5382 27.6669C32.9496 26.6026 33.2369 25.388 33.3152 23.6119C33.3936 21.8292 33.4132 21.2611 33.4132 16.7229C33.4132 12.1847 33.3936 11.6166 33.3152 9.83393C33.2369 8.05782 32.9496 6.83674 32.5382 5.7789C32.1268 4.66883 31.5587 3.73507 30.6249 2.80783C29.6977 1.88059 28.7639 1.30597 27.6669 0.881528C26.6026 0.470148 25.388 0.182835 23.6119 0.104477C21.8227 0.0195895 21.2546 0 16.7164 0Z" fill="black"/>
<path d="M16.7164 8.12965C11.9757 8.12965 8.12965 11.9757 8.12965 16.7164C8.12965 21.457 11.9757 25.3031 16.7164 25.3031C21.457 25.3031 25.3031 21.457 25.3031 16.7164C25.3031 11.9757 21.457 8.12965 16.7164 8.12965ZM16.7164 22.2863C13.6408 22.2863 11.1464 19.7919 11.1464 16.7164C11.1464 13.6408 13.6408 11.1464 16.7164 11.1464C19.7919 11.1464 22.2863 13.6408 22.2863 16.7164C22.2863 19.7919 19.7919 22.2863 16.7164 22.2863Z" fill="black"/>
<path d="M27.6473 7.79003C27.6473 8.90011 26.7462 9.7947 25.6427 9.7947C24.5326 9.7947 23.638 8.89358 23.638 7.79003C23.638 6.67996 24.5391 5.78537 25.6427 5.78537C26.7462 5.78537 27.6473 6.68649 27.6473 7.79003Z" fill="black"/>
</svg>
