<svg width="72" height="51" viewBox="0 0 72 51" fill="none" xmlns="http://www.w3.org/2000/svg">
<path d="M4.28566 6.20604C18.9685 6.20604 33.6514 6.20604 48.4177 6.20604C52.5889 6.20604 56.8436 6.20604 61.0149 6.20604C63.6845 6.20604 63.6845 0 61.0149 0C46.332 0 31.6492 0 16.8829 0C12.7116 0 8.45692 0 4.28566 0C1.61604 0 1.61604 6.20604 4.28566 6.20604Z" fill="white"/>
<path d="M4.00826 27.9388C21.1939 28.3112 38.2961 27.8147 55.4817 26.6976C60.3204 26.3252 65.1591 26.077 69.9977 25.5805C72.6673 25.3322 72.6673 19.1262 69.9977 19.3744C52.8955 20.8639 35.7099 21.7328 18.6077 21.7328C13.769 21.7328 8.93035 21.7327 4.09168 21.6086C1.33865 21.6086 1.33865 27.8147 4.00826 27.9388Z" fill="white"/>
<path d="M1.9919 49.9388C19.1775 50.3112 36.2797 49.8147 53.4653 48.6976C58.304 48.3252 63.1427 48.077 67.9814 47.5805C70.651 47.3322 70.651 41.1262 67.9814 41.3744C50.8792 42.8639 33.6935 43.7328 16.5913 43.7328C11.7527 43.7328 6.914 43.7327 2.07533 43.6086C-0.677711 43.6086 -0.67771 49.8147 1.9919 49.9388Z" fill="white"/>
</svg>
