<svg width="296" height="262" viewBox="0 0 296 262" fill="none" xmlns="http://www.w3.org/2000/svg">
<path d="M289.479 258.494H289.479C289.695 258.494 289.909 258.451 290.108 258.368C290.308 258.284 290.489 258.162 290.641 258.007C290.794 257.853 290.915 257.669 290.997 257.467C291.079 257.265 291.121 257.049 291.119 256.831L289.479 258.494ZM289.479 258.494L234.239 258.555C234.239 258.555 234.239 258.555 234.239 258.555C233.867 258.555 233.639 258.462 233.503 258.323C233.368 258.184 233.28 257.953 233.289 257.582C233.41 253.402 233.304 249.115 233.191 244.896C233.185 244.69 233.179 244.483 233.174 244.277C233.065 240.269 232.959 236.33 233.039 232.598C233.439 214.865 233.339 198.725 232.739 184.18C232.266 172.629 232.136 162.826 232.349 154.772C232.355 154.613 232.397 154.538 232.435 154.501C232.473 154.465 232.548 154.427 232.705 154.43L232.707 154.43L289.747 154.924C289.747 154.924 289.747 154.924 289.747 154.924C289.94 154.926 290.125 155.004 290.262 155.142C290.399 155.28 290.477 155.467 290.479 155.663C290.479 155.663 290.479 155.664 290.479 155.664L291.119 256.831L289.479 258.494Z" stroke="white" stroke-width="0.5"/>
<path d="M244.648 162.674L245.397 161.906C245.601 162.277 245.812 162.583 246.032 162.821C246.213 163.016 246.405 163.17 246.609 163.273C246.415 163.529 246.191 163.757 245.937 163.955C245.683 163.405 245.247 162.979 244.648 162.674Z" stroke="white" stroke-width="0.5"/>
<path d="M253.904 163.254C254.297 162.891 254.64 162.448 254.933 161.928C255.277 162.198 255.544 162.49 255.741 162.803C255.141 162.893 254.625 163.136 254.202 163.533L253.904 163.254Z" stroke="white" stroke-width="0.5"/>
<path d="M249.509 171.081L249.508 171.08C249.424 171.059 249.341 171.03 249.271 170.986C249.203 170.942 249.116 170.865 249.092 170.739C249.068 170.613 249.12 170.508 249.169 170.443C249.219 170.377 249.286 170.32 249.356 170.271C249.388 170.248 249.42 170.226 249.451 170.203C250.42 169.513 251.31 168.879 251.804 168.108C252.054 167.719 252.197 167.301 252.195 166.826C252.192 166.349 252.042 165.795 251.672 165.136L249.509 171.081ZM249.509 171.081C251.581 171.6 253.074 170.948 253.774 169.679C254.461 168.435 254.337 166.677 253.375 165.067L253.375 165.067M249.509 171.081L253.375 165.067M253.375 165.067L253.373 165.064M253.375 165.067L253.373 165.064M253.373 165.064C253.226 164.825 253.045 164.635 252.826 164.511C252.605 164.386 252.358 164.335 252.095 164.351L252.095 164.351M253.373 165.064L252.095 164.351M252.095 164.351L252.087 164.351M252.095 164.351L252.087 164.351M252.087 164.351C251.928 164.366 251.719 164.418 251.619 164.606M252.087 164.351L251.619 164.606M251.619 164.606C251.518 164.796 251.594 164.997 251.672 165.136L251.619 164.606ZM250.124 162.356C251.149 162.372 252.232 162.729 253.377 163.449L254.025 164.054C254.831 165.094 255.241 166.145 255.275 167.211C255.309 168.262 254.979 169.353 254.262 170.486C253.657 170.743 253.232 171.096 253.114 171.578C252.051 172.312 250.996 172.638 249.943 172.581C248.876 172.524 247.782 172.069 246.66 171.192C246.482 170.83 246.25 170.533 245.962 170.31C245.298 169.36 244.979 168.412 244.985 167.461C244.991 166.512 245.322 165.535 245.999 164.529C246.476 164.208 246.872 163.806 247.184 163.325C248.131 162.659 249.109 162.34 250.124 162.356Z" stroke="white" stroke-width="0.5"/>
<path d="M280.443 169.502C280.153 169.368 279.868 169.215 279.589 169.064L279.559 169.048C279.288 168.902 279.022 168.759 278.753 168.631C278.195 168.365 277.642 168.176 277.051 168.176C276.038 168.183 274.948 168.099 273.842 168.014C273.782 168.01 273.721 168.005 273.661 168C272.488 167.91 271.298 167.824 270.138 167.842C267.92 167.877 265.859 168.293 264.296 169.752C264.631 169.987 264.89 170.232 265.061 170.489C265.279 170.818 265.354 171.172 265.25 171.532L265.249 171.536L265.249 171.536C265.185 171.749 265.066 171.978 264.828 172.048C264.59 172.118 264.367 171.99 264.198 171.845C264.198 171.845 264.197 171.845 264.197 171.845L262.83 170.688C260.87 175.054 260.34 179.479 261.235 183.971C262.131 188.433 266.29 190.34 270.879 190.33H270.88C271.543 190.33 272.211 190.358 272.871 190.386C273.106 190.396 273.34 190.406 273.572 190.414C274.461 190.446 275.329 190.46 276.168 190.387C277.746 190.25 279.206 189.809 280.466 188.623C279.999 188.311 279.695 187.937 279.623 187.488C279.596 187.333 279.615 187.174 279.677 187.03C279.74 186.885 279.845 186.762 279.978 186.676C280.111 186.59 280.266 186.546 280.424 186.547C280.582 186.549 280.737 186.596 280.868 186.684L280.869 186.684C281.121 186.854 281.357 187.132 281.583 187.499C282.737 186.452 283.464 185.399 283.5 183.723M280.443 169.502C280.442 169.502 280.442 169.502 280.441 169.502L280.55 169.276L280.445 169.503C280.444 169.503 280.443 169.503 280.443 169.502ZM280.443 169.502C280.481 169.521 280.514 169.548 280.54 169.582C280.566 169.617 280.584 169.657 280.591 169.7C280.599 169.743 280.596 169.787 280.584 169.829C280.572 169.87 280.55 169.907 280.521 169.938M280.521 169.938L279.764 170.691L279.764 170.691L279.758 170.697C279.67 170.79 279.609 170.905 279.58 171.031C279.552 171.156 279.558 171.286 279.597 171.409C279.637 171.531 279.708 171.64 279.804 171.725L279.97 171.538M280.521 169.938C280.521 169.939 280.52 169.939 280.519 169.94L280.7 170.113M280.521 169.938L280.524 169.936L280.7 170.113M279.97 171.538L279.804 171.725C279.901 171.81 280.018 171.867 280.145 171.891L280.145 171.891L280.15 171.891C280.426 171.937 280.688 171.897 280.919 171.758C281.145 171.622 281.32 171.404 281.454 171.13C281.551 170.935 281.62 170.918 281.626 170.917C281.634 170.916 281.706 170.915 281.855 171.078C283.137 172.485 283.578 174.661 283.676 177.011C283.74 178.525 283.662 180.065 283.589 181.486C283.549 182.277 283.511 183.031 283.5 183.723M279.97 171.538C280.032 171.593 280.108 171.63 280.19 171.645L280.7 170.113M279.97 171.538C279.907 171.482 279.861 171.411 279.835 171.332C279.81 171.252 279.806 171.167 279.824 171.086C279.843 171.004 279.883 170.929 279.94 170.869L280.7 170.113M283.5 183.723C283.5 183.723 283.5 183.723 283.5 183.722L283.75 183.728L283.5 183.724C283.5 183.723 283.5 183.723 283.5 183.723ZM265.37 187.645L265.37 187.645C265.44 187.516 265.491 187.377 265.518 187.235C265.545 187.092 265.549 186.948 265.527 186.809C265.505 186.67 265.457 186.538 265.382 186.422C265.306 186.307 265.206 186.211 265.086 186.144L264.965 186.363L265.086 186.144C264.841 186.008 264.551 186.011 264.29 186.123C264.031 186.234 263.812 186.445 263.67 186.703L263.89 186.823L263.67 186.703C263.6 186.832 263.549 186.971 263.522 187.114C263.495 187.256 263.491 187.401 263.513 187.54C263.535 187.678 263.583 187.811 263.658 187.926C263.734 188.042 263.834 188.137 263.954 188.204L264.075 187.986L263.954 188.204C264.199 188.341 264.489 188.338 264.75 188.226C265.009 188.115 265.228 187.903 265.37 187.645ZM264.553 187.766C264.411 187.827 264.286 187.817 264.197 187.767C264.152 187.742 264.111 187.705 264.078 187.654C264.044 187.602 264.019 187.538 264.007 187.461C263.994 187.384 263.996 187.298 264.013 187.208C264.03 187.118 264.063 187.028 264.109 186.944C264.203 186.771 264.343 186.644 264.487 186.582C264.629 186.521 264.754 186.531 264.843 186.581C264.888 186.606 264.929 186.644 264.962 186.695C264.996 186.746 265.021 186.811 265.033 186.888C265.045 186.965 265.044 187.051 265.027 187.14C265.01 187.23 264.977 187.32 264.931 187.405C264.837 187.577 264.697 187.704 264.553 187.766Z" stroke="white" stroke-width="0.5"/>
<path d="M244.819 172.351C245.317 171.898 245.68 171.424 245.892 170.925C245.998 171.046 246.094 171.187 246.18 171.349L245.345 172.958C245.139 172.783 244.964 172.581 244.819 172.351Z" stroke="white" stroke-width="0.5"/>
<path d="M253.748 171.417C253.862 171.279 254.042 171.143 254.307 171.015C254.578 171.521 255.038 171.961 255.665 172.341L254.984 172.992C254.754 172.444 254.52 172.028 254.277 171.761C254.13 171.6 253.964 171.475 253.776 171.424C253.766 171.422 253.757 171.419 253.748 171.417Z" stroke="white" stroke-width="0.5"/>
<path d="M240.706 200.727C240.948 200.93 241.272 200.976 241.586 200.895L240.501 199.409C240.435 199.565 240.394 199.728 240.384 199.888C240.373 200.049 240.393 200.208 240.446 200.353C240.501 200.499 240.588 200.628 240.706 200.727ZM240.706 200.727L240.867 200.535L240.706 200.727C240.706 200.727 240.706 200.727 240.706 200.727ZM248.835 245.142L248.835 245.142C247.911 245.161 246.763 244.696 245.505 243.894C244.256 243.097 242.932 241.99 241.667 240.776C239.134 238.347 236.865 235.519 235.913 233.965L235.913 233.965C235.186 232.778 234.803 231.388 234.77 229.787C234.637 222.647 234.54 215.499 234.48 208.345C234.456 204.963 236.777 200.963 239.996 197.788C243.214 194.612 247.252 192.337 250.571 192.322L250.572 192.322C257.75 192.282 264.912 192.312 272.056 192.413C273.481 192.434 275.137 193.028 276.836 194.021C278.531 195.012 280.248 196.39 281.788 197.953C283.329 199.515 284.687 201.256 285.668 202.971C286.651 204.689 287.244 206.361 287.28 207.789L287.28 207.789C287.467 214.969 287.557 222.142 287.55 229.308V229.308C287.55 230.805 286.986 232.538 286.024 234.306C285.064 236.07 283.716 237.852 282.173 239.442C280.63 241.033 278.898 242.426 277.171 243.418C275.441 244.411 273.736 244.991 272.242 244.981H272.242C264.433 244.934 256.631 244.988 248.835 245.142ZM279.979 200.695L279.98 200.695C280.132 200.762 280.3 200.787 280.465 200.768C280.63 200.749 280.788 200.685 280.92 200.585C281.053 200.484 281.157 200.35 281.222 200.197C281.286 200.043 281.309 199.875 281.288 199.71L281.288 199.707L281.178 198.902C281.178 198.902 281.178 198.902 281.178 198.902C281.154 198.72 281.079 198.549 280.961 198.41C280.843 198.27 280.687 198.167 280.512 198.113C280.337 198.06 280.151 198.058 279.975 198.109C279.799 198.159 279.642 198.26 279.522 198.398L279.521 198.398C279.143 198.836 278.928 199.283 279.012 199.716C279.097 200.154 279.466 200.469 279.979 200.695ZM240.754 237.858L241.001 237.895L240.754 237.858C240.708 238.168 240.805 238.478 241.011 238.721C241.216 238.963 241.512 239.122 241.833 239.17C242.154 239.218 242.484 239.154 242.75 238.982C243.017 238.81 243.2 238.542 243.246 238.233L242.999 238.196L243.246 238.233C243.292 237.923 243.195 237.613 242.989 237.37C242.785 237.128 242.488 236.97 242.168 236.921C241.847 236.873 241.517 236.937 241.251 237.109C240.983 237.281 240.8 237.549 240.754 237.858ZM285.719 223.364C286.305 220.144 286.249 216.837 285.552 213.633C284.856 210.429 283.533 207.391 281.66 204.691C279.787 201.991 277.4 199.682 274.635 197.897C271.87 196.112 268.782 194.886 265.547 194.287C262.311 193.689 258.992 193.731 255.778 194.41C252.565 195.089 249.519 196.393 246.817 198.247C244.114 200.1 241.807 202.468 240.026 205.214C238.246 207.96 237.028 211.031 236.442 214.251C235.855 217.471 235.912 220.778 236.608 223.982C237.305 227.186 238.627 230.225 240.501 232.925C242.374 235.625 244.761 237.933 247.526 239.718C250.29 241.503 253.378 242.729 256.614 243.328C259.849 243.926 263.168 243.885 266.382 243.205C269.596 242.526 272.641 241.222 275.344 239.369C278.046 237.515 280.354 235.147 282.134 232.401C283.914 229.655 285.132 226.584 285.719 223.364ZM241.594 198.425C241.282 198.505 240.988 198.706 240.768 198.972L242.474 198.594C242.233 198.391 241.908 198.345 241.594 198.425ZM281.535 236.963C281.428 236.847 281.294 236.761 281.144 236.708C280.994 236.656 280.831 236.639 280.668 236.654C280.504 236.669 280.341 236.715 280.187 236.787C280.032 236.86 279.887 236.959 279.76 237.077C279.504 237.315 279.325 237.627 279.269 237.953C279.214 238.281 279.288 238.608 279.505 238.846C279.612 238.962 279.746 239.048 279.897 239.101C280.047 239.153 280.209 239.17 280.373 239.155C280.536 239.141 280.699 239.094 280.854 239.022C281.008 238.949 281.153 238.85 281.28 238.732C281.536 238.494 281.716 238.182 281.771 237.856C281.827 237.528 281.752 237.201 281.535 236.963Z" stroke="white" stroke-width="0.5"/>
<path d="M262.606 197.757L262.606 197.757C274.743 199.082 283.518 210.475 281.259 222.692C280.099 227.747 277.345 231.911 272.986 235.188C265.396 240.546 256.937 240.463 250.471 236.774C244.002 233.083 239.512 225.775 239.893 216.646C240.357 205.545 251.609 196.552 262.606 197.757Z" stroke="white" stroke-width="0.5"/>
<path d="M280.682 198.97L280.682 198.97L280.682 198.971L280.792 199.776C280.802 199.854 280.791 199.933 280.761 200.006C280.73 200.078 280.681 200.141 280.619 200.188C280.557 200.235 280.483 200.265 280.406 200.274C280.33 200.283 280.252 200.271 280.181 200.24C279.72 200.037 279.541 199.819 279.503 199.623C279.464 199.421 279.551 199.13 279.899 198.728C279.956 198.663 280.03 198.615 280.113 198.592C280.196 198.568 280.284 198.568 280.366 198.594C280.449 198.619 280.522 198.668 280.579 198.734C280.635 198.801 280.671 198.883 280.682 198.97Z" stroke="white" stroke-width="0.5"/>
<path d="M241.026 200.345C240.929 200.263 240.869 200.12 240.882 199.924C240.895 199.728 240.982 199.5 241.152 199.294C241.321 199.089 241.529 198.961 241.718 198.913C241.907 198.865 242.057 198.898 242.154 198.98C242.251 199.062 242.312 199.204 242.298 199.401C242.285 199.596 242.198 199.825 242.029 200.031C241.859 200.236 241.651 200.364 241.462 200.412C241.273 200.46 241.123 200.426 241.026 200.345Z" stroke="white" stroke-width="0.5"/>
<path d="M281.167 237.305C281.362 237.517 281.346 237.991 280.941 238.367C280.536 238.744 280.067 238.721 279.873 238.509C279.678 238.297 279.694 237.824 280.099 237.447C280.504 237.071 280.973 237.093 281.167 237.305Z" stroke="white" stroke-width="0.5"/>
<path d="M242.752 238.16C242.705 238.479 242.353 238.744 241.907 238.677C241.46 238.61 241.201 238.252 241.248 237.934C241.296 237.615 241.647 237.35 242.094 237.417C242.54 237.485 242.799 237.842 242.752 238.16Z" stroke="white" stroke-width="0.5"/>
<path d="M250.591 250.036C251.067 252.147 249.56 254.335 247.161 254.884C244.762 255.434 242.466 254.116 241.99 252.005C241.514 249.894 243.02 247.706 245.419 247.157C247.818 246.607 250.115 247.925 250.591 250.036Z" stroke="white" stroke-width="0.5"/>
<path d="M230.019 152.414H292C292.414 152.414 292.75 152.75 292.75 153.164V260.751H231.982C231.573 260.751 231.239 260.424 231.232 260.015L229.269 153.178C229.261 152.758 229.599 152.414 230.019 152.414Z" stroke="white" stroke-width="0.5"/>
<path d="M293.5 148.635C293.9 149.442 293.667 151.431 293 152.439V260.205C293.5 259.533 295.5 258.453 295.5 257.243C295.5 256.034 295.167 255.396 295 255.228L295.5 150.65C295.5 149.978 294.3 147.829 293.5 148.635Z" stroke="white" stroke-width="0.5"/>
<path d="M235.451 148.925L235.475 148.93H235.5C235.572 148.93 236.423 148.919 237.885 148.902C241.557 148.857 249.081 148.766 257.753 148.675C269.801 148.548 284.069 148.421 293.323 148.418C293.543 149.079 293.743 150.107 293.688 151.029C293.658 151.53 293.554 151.978 293.355 152.319C293.164 152.644 292.885 152.875 292.475 152.964C292.337 152.963 291.697 152.956 290.64 152.944C287.016 152.904 278.489 152.808 268.477 152.713C255.513 152.589 240.064 152.465 229.568 152.461C230.233 151.76 231.163 150.889 232.146 150.181C232.741 149.753 233.348 149.39 233.921 149.159C234.498 148.927 235.018 148.838 235.451 148.925Z" stroke="white" stroke-width="0.5"/>
<path d="M238 135.031V143.093L245.5 145.109L284 144.101L283.5 135.535L246.5 136.543H244C243.2 136.543 239.667 135.535 238 135.031Z" stroke="white" stroke-width="0.5"/>
<path d="M245 135.535C244.2 135.535 240 134.527 238 134.023V133.016C240.167 133.351 244.7 134.023 245.5 134.023C246.5 134.023 246 135.535 245 135.535Z" stroke="white" stroke-width="0.5"/>
<path d="M283 135.031L246 135.535C246.167 135.031 246.4 133.922 246 133.519C245.6 133.116 240.5 132.68 238 132.512C247.5 132.176 266.8 131.504 268 131.504C269.2 131.504 272.833 131.168 274.5 131C276.833 131.672 281.7 133.016 282.5 133.016C283.3 133.016 283.167 134.359 283 135.031Z" stroke="white" stroke-width="0.5"/>
<path d="M239.558 143.901L239.558 143.9L239.549 143.899C238.848 143.758 238.301 143.941 237.906 144.352C237.526 144.746 237.31 145.327 237.192 145.945C236.955 147.184 237.085 148.708 237.254 149.647L237.282 149.8L237.431 149.843L244.431 151.858L244.468 151.869L244.506 151.868L244.506 151.868L244.507 151.868L244.507 151.868C251.007 151.7 260.757 151.448 269.008 151.175C273.134 151.038 276.885 150.897 279.669 150.757C281.06 150.688 282.212 150.619 283.048 150.551C283.465 150.517 283.807 150.484 284.061 150.45C284.189 150.434 284.297 150.417 284.384 150.399C284.463 150.383 284.549 150.362 284.613 150.329C284.777 150.246 284.844 150.079 284.874 149.95C284.906 149.812 284.914 149.646 284.909 149.471C284.898 149.12 284.832 148.671 284.748 148.203C284.68 147.821 284.6 147.427 284.523 147.049C284.408 146.484 284.3 145.954 284.25 145.555C284.247 145.348 284.185 145.051 284.003 144.796C283.807 144.522 283.482 144.314 283 144.314C282.836 144.314 281.706 144.355 279.907 144.421C277.274 144.518 273.206 144.668 268.629 144.818C260.929 145.069 251.774 145.32 245.529 145.321L239.558 143.901Z" stroke="white" stroke-width="0.5"/>
<mask id="path-20-inside-1_321_792" fill="white">
<path d="M245.503 145.109H245.003V151.66H245.503V145.109Z"/>
</mask>
<path d="M245.503 145.109V129.109H261.503V145.109H245.503ZM245.003 145.109H229.003V129.109H245.003V145.109ZM245.003 151.66V167.66H229.003V151.66H245.003ZM245.503 151.66H261.503V167.66H245.503V151.66ZM245.503 161.109H245.003V129.109H245.503V161.109ZM261.003 145.109V151.66H229.003V145.109H261.003ZM245.003 135.66H245.503V167.66H245.003V135.66ZM229.503 151.66V145.109H261.503V151.66H229.503Z" fill="white" mask="url(#path-20-inside-1_321_792)"/>
<path d="M281.753 179.371C281.753 184.231 277.623 188.19 272.503 188.19C267.384 188.19 263.253 184.231 263.253 179.371C263.253 174.51 267.384 170.551 272.503 170.551C277.623 170.551 281.753 174.51 281.753 179.371Z" stroke="white" stroke-width="0.5"/>
<path d="M264.753 219.179C264.753 221.576 263.046 223.464 261.003 223.464C258.961 223.464 257.253 221.576 257.253 219.179C257.253 216.783 258.961 214.895 261.003 214.895C263.046 214.895 264.753 216.783 264.753 219.179Z" stroke="white" stroke-width="0.5"/>
<path d="M274.753 178.363C274.753 179.941 273.704 181.136 272.503 181.136C271.303 181.136 270.253 179.941 270.253 178.363C270.253 176.785 271.303 175.59 272.503 175.59C273.704 175.59 274.753 176.785 274.753 178.363Z" stroke="white" stroke-width="0.5"/>
<rect x="2.5" y="107.5" width="204" height="111" rx="4.5" stroke="white"/>
<path d="M12.9289 95.5H196.369C197.186 95.5 197.952 95.8995 198.42 96.57L203.301 103.57C204.457 105.227 203.271 107.5 201.25 107.5H6.69144C4.53288 107.5 3.3889 104.948 4.82494 103.337L11.0624 96.3368C11.5368 95.8045 12.2159 95.5 12.9289 95.5Z" stroke="white"/>
<path d="M152.776 16.613C152.749 16.6536 152.72 16.6939 152.69 16.7338C152.592 16.8695 152.533 17.0144 152.509 17.174C152.509 17.1742 152.509 17.1745 152.509 17.1747L152.161 19.5105C152.161 19.5116 152.161 19.5126 152.161 19.5137C152.133 19.7125 152.042 19.8972 151.9 20.04C151.757 20.1836 151.572 20.2762 151.373 20.3056C151.174 20.335 150.971 20.2997 150.794 20.2065C150.617 20.1132 150.473 19.9662 150.385 19.7864L150.382 19.7808L150.382 19.7807C149.735 18.4273 149.798 17.439 149.991 16.5187C150.033 16.3206 150.077 16.1324 150.121 15.9489C150.258 15.3739 150.385 14.8435 150.363 14.1883C150.042 15.3435 149.801 16.537 149.657 17.7857L149.657 17.7862C149.355 20.374 148.99 22.9362 148.627 25.4873C147.879 30.7378 147.138 35.9417 146.968 41.2262L147.425 39.9534C147.48 37.173 148.464 34.4967 149.704 31.9711C150.331 30.6935 151.029 29.4437 151.713 28.2329C151.783 28.1097 151.852 27.9868 151.921 27.8645C152.532 26.7842 153.124 25.7375 153.646 24.7158C153.806 24.3593 153.852 24.007 153.871 23.6351C153.875 23.5591 153.877 23.4771 153.88 23.3914C153.89 23.0929 153.901 22.7484 153.973 22.4475C153.973 22.4472 153.973 22.4468 153.973 22.4465L154.459 22.563C154.837 20.956 155.622 19.8042 156.815 19.1077L152.776 16.613ZM152.776 16.613L152.379 19.6204C152.35 19.8283 152.395 20.0399 152.505 20.2187C152.615 20.3986 152.786 20.5339 152.986 20.6012C153.186 20.6685 153.403 20.6636 153.6 20.5872C153.797 20.5108 153.961 20.3679 154.063 20.1832L154.064 20.1826C154.957 18.5662 155.357 16.6876 155.285 14.5657C155.634 13.8775 155.756 13.1199 155.666 12.3087C155.915 12.3652 156.214 12.5366 156.564 12.8864C156.44 12.9583 156.324 13.0422 156.217 13.1388C155.918 13.41 155.721 13.7584 155.613 14.1611C155.404 14.9446 155.533 15.9474 155.901 17.1141C156.007 17.4496 156.209 17.8361 156.625 17.9625C156.953 18.0624 157.262 17.9534 157.513 17.795L156.516 18.7034L152.776 16.613ZM155.644 12.1316C155.641 12.113 155.641 12.1044 155.641 12.104C155.641 12.1036 155.641 12.1074 155.64 12.1146C155.639 12.1194 155.637 12.1253 155.635 12.1321L155.512 12.1503L155.518 11.7873L155.506 12.1511L155.149 12.2038L155.506 12.1519L155.503 12.2806C155.497 12.2829 155.493 12.2847 155.489 12.2859C155.483 12.2879 155.48 12.2885 155.48 12.2885C155.48 12.2885 155.488 12.2871 155.506 12.2872L155.644 12.1316ZM153.739 6.39567C154.151 5.65686 154.581 4.91693 155.023 4.17025C154.841 5.02423 154.789 5.90232 154.865 6.80331C154.823 6.74225 154.774 6.68562 154.718 6.63455C154.56 6.48815 154.36 6.39473 154.145 6.36726C154.009 6.34968 153.87 6.35964 153.739 6.39567ZM153.893 9.64289C153.918 9.61823 154.002 9.56364 154.217 9.54694C154.139 9.60969 154.069 9.68225 154.009 9.76315C153.949 9.84458 153.9 9.93322 153.863 10.0268C153.86 10.008 153.858 9.98924 153.855 9.97042L153.855 9.96892C153.819 9.71819 153.88 9.65531 153.893 9.64289ZM157.27 0.420856C157.27 0.420909 157.269 0.421753 157.268 0.423226C157.269 0.421541 157.27 0.420803 157.27 0.420856Z" stroke="white"/>
<path d="M152.902 14.0072C153.43 12.9693 153.583 11.6468 153.36 10.0397C153.264 9.36598 153.606 9.03365 154.384 9.04275C154.446 9.044 154.506 9.0314 154.562 9.00589C154.618 8.98039 154.668 8.94263 154.707 8.89541C154.746 8.8482 154.775 8.79273 154.79 8.73313C154.805 8.67352 154.806 8.61131 154.794 8.55109L152.902 14.0072ZM152.902 14.0072C152.808 14.1946 152.768 14.4027 152.786 14.6081C152.854 15.291 152.688 15.901 152.288 16.4382M152.902 14.0072L152.288 16.4382M152.288 16.4382C152.142 16.6385 152.051 16.8593 152.015 17.1006M152.288 16.4382L152.015 17.1006M152.015 17.1006L151.666 19.4429L152.015 17.1006ZM151.338 13.7881C151.436 14.7719 151.244 15.5701 151.08 16.2487C151.04 16.414 151.002 16.5721 150.97 16.7242C150.818 17.4495 150.763 18.1615 151.202 19.169L151.52 17.0271L151.52 17.026C151.569 16.7042 151.691 16.4083 151.883 16.1442L151.887 16.1393L151.887 16.1393C152.211 15.7048 152.345 15.2199 152.289 14.6579L152.288 14.6517L152.288 14.6517C152.262 14.3525 152.321 14.052 152.455 13.7833L152.457 13.7805L152.457 13.7805C152.923 12.8631 153.079 11.6528 152.865 10.1085L153.36 10.0397L152.865 10.11C152.847 9.98501 152.84 9.85853 152.847 9.7341C152.264 10.9509 151.69 12.1518 151.125 13.3368C151.144 13.3559 151.162 13.3761 151.179 13.3972C151.269 13.5093 151.324 13.6452 151.338 13.7881ZM151.338 13.7881C151.338 13.7887 151.338 13.7892 151.338 13.7897L150.84 13.8365L151.338 13.7866C151.338 13.7871 151.338 13.7876 151.338 13.7881ZM151.028 13.5414C151.028 13.5414 151.029 13.5396 151.031 13.5356C151.029 13.5393 151.028 13.5413 151.028 13.5414ZM154.282 8.54342C153.909 8.55242 153.543 8.63469 153.264 8.865C153.501 8.37253 153.739 7.8775 153.979 7.37991C153.982 7.37318 153.988 7.36765 153.995 7.36402C154.002 7.36016 154.01 7.35865 154.018 7.3597C154.026 7.36074 154.034 7.36429 154.04 7.36985C154.046 7.37516 154.05 7.38207 154.052 7.38968L154.282 8.54342ZM154.394 8.54284L154.393 8.54282L154.394 8.54284Z" stroke="white"/>
<path d="M162.115 13.8653L160.362 15.3099C160.404 15.1415 160.424 14.9264 160.333 14.7193C160.323 14.6952 160.311 14.6723 160.299 14.6507L162.705 10.1523L162.705 10.1523L162.709 10.1457C162.715 10.1328 162.726 10.1228 162.74 10.1174C162.754 10.1121 162.769 10.1119 162.782 10.1168C162.796 10.1217 162.807 10.1315 162.814 10.1442C162.821 10.1569 162.824 10.1717 162.821 10.186L162.82 10.1859L162.818 10.1978L162.115 13.8653Z" stroke="white"/>
<path d="M159.397 15.0343C159.397 15.0343 159.397 15.0353 159.397 15.0373L159.397 15.0343ZM159.331 15.2357C159.245 15.4278 159.082 15.7075 158.816 16.0852C158.1 16.2723 157.508 16.5296 157.076 16.8799C157.009 16.9324 156.959 16.9632 156.924 16.9805C156.905 16.9466 156.88 16.8929 156.855 16.8123L156.855 16.812C156.504 15.7025 156.445 14.9231 156.579 14.4181C156.644 14.1767 156.751 14.0044 156.889 13.8785C156.972 13.8037 157.074 13.7371 157.202 13.6827C157.79 14.4918 158.496 15.0333 159.331 15.2357Z" stroke="white"/>
<path d="M170.769 19.745L170.769 19.745L170.768 19.747C170.483 20.2855 170.185 20.7464 169.876 21.1338L170.013 20.3166C171.001 19.2052 171.77 17.8776 172.323 16.3418C172.325 16.3405 172.327 16.3391 172.329 16.3378C172.166 17.3197 171.934 18.2811 171.635 19.2221C171.581 19.2168 171.526 19.2165 171.469 19.2224C171.111 19.2596 170.892 19.5158 170.769 19.745ZM172.58 14.1467C172.567 14.1284 172.554 14.1101 172.541 14.0919L172.586 14.0476C172.584 14.0807 172.582 14.1137 172.58 14.1467Z" stroke="white"/>
<path d="M154.026 14.792C154.124 14.7629 154.212 14.7395 154.289 14.7214C154.332 16.419 154.045 17.9072 153.444 19.1981L154.026 14.792ZM154.592 14.6761C154.6 14.6765 154.604 14.6772 154.604 14.6774C154.603 14.6776 154.599 14.6774 154.592 14.6761ZM154.329 14.2359C154.331 14.23 154.333 14.2268 154.333 14.2267C154.333 14.2266 154.332 14.2295 154.329 14.2359Z" stroke="white"/>
<path d="M171.703 14.9852C171.744 14.933 171.786 14.8813 171.829 14.83C171.882 14.9185 171.918 14.995 171.942 15.06C171.866 15.0215 171.786 14.997 171.703 14.9852Z" stroke="white"/>
<path d="M153.982 39.6051L154.051 39.6253C154.051 39.6252 154.051 39.6251 154.051 39.6249C154.051 39.6248 154.051 39.6246 154.051 39.6245L153.982 39.6044M153.982 39.6051L153.982 39.6044M153.982 39.6051L153.571 39.4849L153.982 39.6044M153.982 39.6051L153.982 39.6044M153.536 41.416C153.635 41.6683 153.646 42.0029 153.498 42.4551L152.58 43.9719C152.913 43.114 153.225 42.2428 153.515 41.3584C153.522 41.3775 153.529 41.3965 153.536 41.4154L153.536 41.416ZM157.177 32.1581C157.919 29.2432 158.648 26.3237 159.363 23.3996C159.497 22.8531 159.54 22.2862 159.576 21.7543C159.578 21.7166 159.581 21.6791 159.583 21.6418C159.615 21.1595 159.646 20.7039 159.726 20.2576L160.629 24.5958L159.197 29.3211L154.18 39.2145C154.529 38.1724 155.012 37.2106 155.515 36.2074C155.545 36.1485 155.574 36.0893 155.604 36.03C156.199 34.8431 156.81 33.596 157.176 32.1583L157.177 32.1581ZM159.494 19.1416L159.553 19.4235C159.539 19.4103 159.524 19.3974 159.508 19.385C159.341 19.255 159.154 19.2397 159.022 19.2527C158.891 19.2656 158.769 19.3088 158.665 19.3553L158.665 19.3552L158.659 19.3583L157.899 19.713L157.489 19.1705L159.751 17.1096L161.2 15.9154L159.677 18.1952L159.677 18.1952L159.675 18.1981C159.488 18.4821 159.427 18.8052 159.493 19.1378L159.493 19.1378L159.494 19.1416Z" stroke="white"/>
<path d="M160.51 18.7518L162.091 16.3853C162.266 18.4659 161.999 20.6097 161.28 22.8206L160.474 18.943C160.459 18.8671 160.47 18.8129 160.51 18.7518Z" stroke="white"/>
<path d="M170.853 16.5198C171.047 16.3383 171.21 16.205 171.342 16.1135C170.986 17.0774 170.54 17.9419 170.008 18.7094C170.09 17.8894 170.374 17.1633 170.853 16.5198Z" stroke="white"/>
<path d="M135.004 42.2243C136.511 43.0301 136.798 44.4664 135.864 46.5332L138.548 53.4643C138.639 53.692 138.564 53.8422 138.323 53.915L135.004 42.2243ZM135.004 42.2243C134.781 42.1059 134.628 42.1651 134.546 42.4018L135.004 42.2243ZM146.188 69.5177C146.231 68.203 146.322 66.961 146.414 65.7055L146.425 65.5548C146.532 64.0826 146.639 62.584 146.673 60.8987C146.673 60.8983 146.673 60.898 146.673 60.8976L147.173 60.9076L146.188 69.5177ZM146.188 69.5177L145.789 69.4962C145.804 69.4803 145.819 69.4636 145.833 69.446C145.949 69.3027 146.004 69.1366 146.018 68.974L146.019 68.9706C146.352 64.7311 146.283 60.6004 145.81 56.5791L146.189 50.8919C147.804 49.5431 149.147 48.0868 150.214 46.5217C151.06 45.287 151.298 43.5972 151.486 42.0099C151.502 41.8713 151.518 41.7335 151.534 41.5963C151.707 40.1025 151.87 38.6999 152.38 37.5837L152.38 37.5836C152.509 37.3005 152.566 37.0005 152.547 36.6904M146.188 69.5177L152.547 36.6904M152.547 36.6904C152.547 36.6905 152.547 36.6907 152.547 36.6908L152.048 36.7204L152.547 36.6904ZM158.186 20.6834C157.795 22.6123 156.946 24.3402 155.644 25.8602L155.462 26.0732C155.489 26.7275 155.606 27.287 155.801 27.7595L158.186 20.6834ZM158.186 20.6834L158.685 20.4508C158.634 20.8325 158.609 21.2102 158.586 21.5658C158.583 21.607 158.581 21.6479 158.578 21.6886C158.542 22.2269 158.503 22.7114 158.392 23.1618L158.391 23.1627C157.677 26.0838 156.949 29.0004 156.207 31.9123L158.186 20.6834ZM153.091 39.3463L153.091 39.3455C153.47 38.0523 154.05 36.8967 154.611 35.7806C154.644 35.7145 154.677 35.6487 154.71 35.5829C155.307 34.3934 155.87 33.2335 156.207 31.9125L153.091 39.3463ZM153.091 39.3463C152.333 41.9517 151.393 44.442 150.271 46.8178L153.091 39.3463ZM139.012 53.2786L136.405 46.5449C136.487 46.3511 136.56 46.1604 136.622 45.973C136.642 46.0852 136.675 46.1959 136.719 46.3044C136.719 46.3049 136.719 46.3054 136.719 46.306L138.823 51.5438C138.988 53.1019 139.375 54.4846 139.995 55.6826C139.968 55.7355 139.945 55.7918 139.927 55.8516C139.92 55.8763 139.914 55.9009 139.909 55.9256L139.721 55.2089L139.721 55.2063C139.67 55.0181 139.582 54.8422 139.46 54.6898C139.339 54.5374 139.187 54.4118 139.015 54.321C138.944 54.284 138.871 54.2531 138.796 54.2286C138.878 54.1641 138.953 54.0803 139.007 53.9713C139.133 53.7203 139.086 53.4658 139.013 53.2816C139.013 53.2806 139.013 53.2796 139.012 53.2786ZM142.596 69.0041C142.688 68.8801 142.745 68.7427 142.774 68.6012C142.783 68.6557 142.791 68.7102 142.799 68.7647C142.83 68.9818 142.907 69.1781 143.027 69.3483L142.235 69.3058C142.372 69.2353 142.497 69.1368 142.596 69.0041ZM155.78 28.7771L155.326 28.5669L155.779 28.7776C155.78 28.7774 155.78 28.7772 155.78 28.7771ZM137.08 42.5614L136.86 43.9233C136.854 43.8846 136.847 43.8462 136.839 43.808C136.662 42.9179 136.1 42.2437 135.24 41.7834L135.238 41.7826C135.068 41.6924 134.812 41.6086 134.541 41.7138C134.269 41.8195 134.137 42.0553 134.074 42.2383L134.074 42.239C134.024 42.3831 133.977 42.4643 133.944 42.5063C133.886 42.4798 133.821 42.4353 133.749 42.3621L133.637 41.9449C133.704 41.8718 133.763 41.7892 133.809 41.6959C133.923 41.4599 133.923 41.2075 133.832 40.9753C133.749 40.7619 133.597 40.5827 133.429 40.4328C133.259 40.2803 133.046 40.1335 132.799 39.9906C132.685 39.9223 132.6 39.8212 132.553 39.7047C132.148 38.6716 131.543 37.8187 130.734 37.1603C130.648 37.0812 130.619 37.0056 130.62 36.907C130.62 36.8813 130.622 36.8524 130.627 36.8204C131.362 37.4212 131.949 38.1308 132.575 38.8879C132.787 39.1442 133.003 39.4059 133.231 39.6707C134.191 40.7843 135.311 41.8784 137.08 42.5614ZM136.07 55.1018L136.918 54.8512C136.622 55.0584 136.418 55.1581 136.259 55.1634C136.178 55.1656 136.135 55.1488 136.11 55.1337C136.099 55.1271 136.085 55.1172 136.07 55.1018ZM155.319 25.9268L155.326 25.9338C155.344 25.9141 155.353 25.9068 155.353 25.9068C155.353 25.9068 155.353 25.9071 155.352 25.9078L155.352 25.9079C155.35 25.9091 155.339 25.9173 155.319 25.9268Z" stroke="white"/>
<path d="M171.493 20.7989L171.475 20.8524L171.47 20.9083C171.29 22.8301 170.846 24.5152 170.149 25.9716C169.309 26.4115 168.656 26.5809 168.167 26.554C167.987 26.5429 167.803 26.5707 167.63 26.6571C167.457 26.7435 167.325 26.8741 167.227 27.0255L164.276 31.477C164.251 31.4703 164.235 31.4632 164.224 31.4577C164.224 31.4573 164.223 31.457 164.222 31.4566C164.212 31.451 164.207 31.4487 164.2 31.4224C164.187 31.3762 164.177 31.2721 164.217 31.082C164.256 30.8961 164.336 30.6589 164.468 30.3657L164.468 30.3656C164.774 29.6871 165.222 29.0304 165.713 28.3249C165.74 28.2866 165.767 28.2482 165.794 28.2096C166.246 27.5619 166.726 26.8729 167.103 26.1354L169.49 22.9059C170.266 22.336 170.945 21.4994 171.54 20.4261C171.549 20.5581 171.532 20.6813 171.493 20.7989Z" stroke="white"/>
<path d="M158.884 57.1794L159.078 57.5894C159.12 57.5512 159.163 57.5135 159.207 57.4761L159.207 57.4758C159.485 57.2377 159.71 56.9687 159.886 56.6679C160.01 56.4547 160.135 56.2432 160.26 56.0334L160.031 55.9502M158.884 57.1794C159.449 56.9153 159.831 56.5056 160.031 55.9502M158.884 57.1794C158.764 57.2361 158.632 57.2617 158.499 57.2539C158.366 57.246 158.237 57.205 158.124 57.1345C158.011 57.064 157.917 56.9663 157.85 56.8501C157.784 56.7339 157.747 56.603 157.744 56.4692L159.076 57.5905L158.884 57.1794ZM160.031 55.9502C160.362 55.0406 160.739 54.1494 161.114 53.2626C161.81 51.6195 162.499 49.9914 162.872 48.2884M160.031 55.9502L160.261 56.0329L162.872 48.2884M162.872 48.2884C163.555 45.1426 164.14 41.9787 164.627 38.7965L162.872 48.2884ZM161.495 58.8082C161.692 58.5007 161.9 58.1949 162.121 57.8907C161.596 58.4359 161.08 58.964 160.586 59.4696C159.933 60.1389 159.317 60.7688 158.769 61.3474L158.769 61.3477C157.939 62.2216 157.397 63.3056 156.896 64.4943C156.774 64.7821 156.655 65.0783 156.533 65.3787C156.165 66.2907 155.78 67.2415 155.287 68.1133C155.2 68.2749 155.056 68.3986 154.883 68.46C154.706 68.5228 154.512 68.5159 154.34 68.4406C154.168 68.3653 154.031 68.2273 153.957 68.0547C153.884 67.8853 153.877 67.695 153.938 67.5211C153.958 67.4582 153.979 67.3949 154 67.3313C154.528 65.7125 155.123 63.8875 155.911 62.1779C156.685 60.4969 157.661 58.8918 158.976 57.6815C158.814 57.7387 158.642 57.7632 158.469 57.753C158.253 57.7402 158.044 57.6734 157.86 57.559C157.676 57.4445 157.524 57.2862 157.417 57.0984C157.309 56.9106 157.25 56.6992 157.244 56.483L157.244 56.4812C157.204 54.8144 156.966 53.1888 156.531 51.6035C155.785 48.9137 155.851 47.0846 155.988 44.5875M161.495 58.8082C161.495 58.8081 161.495 58.808 161.495 58.8079L161.916 59.0778L161.495 58.8082ZM161.495 58.8082C159.256 62.3003 157.136 65.913 155.134 69.6464M155.134 69.6464C154.868 69.8054 154.418 69.8923 153.721 69.8324M155.134 69.6464C155.115 69.6823 155.096 69.7182 155.077 69.7541L155.517 69.99M155.134 69.6464C155.163 69.6292 155.19 69.6113 155.214 69.5925L155.517 69.99M153.721 69.8324C153.721 69.7544 153.706 69.673 153.672 69.5912C153.596 69.4124 153.457 69.305 153.357 69.244C153.158 69.1222 152.879 69.0452 152.584 68.9875C152.288 68.9299 151.921 68.8821 151.487 68.8427M153.721 69.8324C153.561 69.8187 153.388 69.7972 153.202 69.7671C153.089 69.5753 152.479 69.431 151.372 69.3345M153.721 69.8324C153.721 69.9537 153.686 70.0668 153.632 70.1603C153.599 70.2187 153.559 70.2699 153.516 70.3147C154.434 70.4161 155.101 70.3078 155.517 69.99M151.487 68.8427L151.707 66.2075L151.707 66.2036C151.732 65.8713 151.668 65.5512 151.519 65.2526L151.514 65.2429L151.509 65.2334C151.457 65.1391 151.399 65.0457 151.338 64.9531L151.331 64.9432L151.324 64.9336C151.184 64.7438 150.983 64.608 150.755 64.5491C150.526 64.4903 150.284 64.512 150.07 64.6105C149.856 64.7091 149.682 64.8785 149.578 65.0902C149.474 65.302 149.446 65.5431 149.499 65.7729L149.501 65.78L149.502 65.787C149.746 66.7198 149.766 67.6691 149.559 68.6414M151.487 68.8427L151.481 68.9116L151.481 68.9183L151.481 68.9183C151.479 68.9387 151.48 68.948 151.48 68.9485C151.48 68.9487 151.48 68.9471 151.479 68.9438C151.478 68.9376 151.475 68.9282 151.469 68.9171C151.468 68.9149 151.467 68.9127 151.466 68.9103C151.46 68.9 151.453 68.8884 151.443 68.8767C151.435 68.8666 151.426 68.8585 151.418 68.852L151.413 68.9059L151.413 68.9117L151.372 69.3345M151.487 68.8427C151.464 68.8406 151.441 68.8386 151.418 68.8366C151.394 68.8342 151.384 68.8308 151.384 68.8309C151.384 68.8309 151.385 68.8312 151.387 68.8319C151.393 68.8344 151.403 68.8397 151.415 68.8491L151.41 68.9057L151.409 68.9113L151.372 69.3345M149.559 68.6414C149.558 68.6479 149.556 68.6535 149.555 68.6585M149.559 68.6414C149.559 68.641 149.559 68.6407 149.559 68.6403L150.048 68.7472M149.559 68.6414C149.559 68.6419 149.559 68.6425 149.559 68.643L150.048 68.7472M149.555 68.6585C149.548 68.6586 149.541 68.6584 149.532 68.6578L149.526 68.6575L148.953 68.6289M149.555 68.6585C149.549 68.6783 149.545 68.6868 149.544 68.6876C149.544 68.688 149.545 68.6855 149.549 68.6815C149.552 68.6773 149.557 68.6726 149.563 68.6681C149.569 68.6636 149.575 68.6604 149.58 68.6583C149.583 68.6565 149.586 68.6559 149.586 68.6559L149.585 68.6559C149.584 68.6564 149.574 68.6584 149.555 68.6585ZM148.953 68.6289C148.99 68.3755 148.996 68.1071 148.907 67.8786C148.854 67.741 148.76 67.6032 148.61 67.5075M148.953 68.6289C148.948 68.666 148.942 68.7029 148.935 68.7392L148.84 68.7222L148.818 69.1227L148.838 68.7232L148.839 68.722L148.838 68.7219L148.836 68.7215L148.443 68.6516M148.953 68.6289L148.845 68.6235M148.61 67.5075C148.597 67.3957 148.582 67.2799 148.566 67.1607C148.507 66.7025 148.441 66.1947 148.428 65.6708C148.419 65.2838 148.443 64.9394 148.513 64.6651C148.584 64.3897 148.689 64.2359 148.802 64.1556L148.802 64.1557L148.806 64.1521C148.96 64.0394 149.094 63.8885 149.169 63.6925C149.245 63.4956 149.247 63.2934 149.204 63.1052L148.716 63.2159M148.61 67.5075C148.6 67.5009 148.589 67.4944 148.578 67.4882C148.414 67.3948 148.24 67.3807 148.095 67.3966L148.114 67.5746C148.103 67.4786 148.09 67.3768 148.076 67.2704C147.923 66.086 147.696 64.3299 148.511 63.7486C148.698 63.612 148.766 63.4345 148.716 63.2159M148.61 67.5075C148.625 67.626 148.638 67.74 148.647 67.8489L148.168 67.8919C148.445 67.8727 148.536 68.1259 148.443 68.6516M148.716 63.2159L149.203 63.1043L148.507 60.0394M148.716 63.2159L148.02 60.1499M148.507 60.0394C148.475 59.8972 148.485 59.763 148.539 59.6238L148.538 59.6257L148.074 59.4397M148.507 60.0394L148.02 60.1499M148.507 60.0394L148.507 60.0391L148.02 60.1499M148.074 59.4397L148.54 59.6222L149.132 58.1449L148.668 57.9578M148.074 59.4397L148.668 57.9578M148.074 59.4397C147.983 59.6718 147.965 59.9086 148.02 60.1499M148.668 57.9578L149.132 58.1439L149.132 58.1444C149.28 57.7786 149.296 57.3972 149.181 57.0198L149.18 57.0175C149.062 56.6359 149.116 56.3217 149.337 56.0215C149.562 55.7156 149.617 55.3545 149.487 54.996M148.668 57.9578C148.773 57.6984 148.784 57.4343 148.702 57.1657C148.539 56.6376 148.616 56.1573 148.935 55.7249C149.062 55.5519 149.089 55.3652 149.017 55.1649M149.487 54.996C149.101 53.9081 149.242 52.605 149.694 51.261C150.142 49.9244 150.877 48.6097 151.59 47.5417L151.596 47.5324L151.602 47.5228L154.347 42.9848M149.487 54.996C149.487 54.9965 149.487 54.997 149.488 54.9975L149.017 55.1649M149.487 54.996C149.487 54.9953 149.487 54.9947 149.486 54.994L149.017 55.1649M154.347 42.9848L156.814 40.6439M154.347 42.9848L154.298 43.0311L153.954 42.6684M154.347 42.9848L154.382 42.9271L153.954 42.6684M156.814 40.6439C156.74 41.0808 156.632 41.5164 156.516 41.9596C156.492 42.052 156.468 42.1451 156.443 42.2388C156.242 42.9963 156.03 43.7927 155.988 44.5875M156.814 40.6439L157.39 40.0974L155.517 69.99M156.814 40.6439C156.858 40.386 156.89 40.1278 156.906 39.8673L153.954 42.6684M155.988 44.5875C155.988 44.5874 155.988 44.5873 155.988 44.5871L156.487 44.6146L155.988 44.5879C155.988 44.5877 155.988 44.5876 155.988 44.5875ZM153.954 42.6684L151.174 47.2641C149.72 49.4425 148.136 52.6861 149.017 55.1649M148.443 68.6516C148.433 68.7077 148.435 68.7652 148.45 68.8204C148.464 68.8755 148.489 68.9271 148.525 68.9716C148.56 69.0161 148.605 69.0526 148.655 69.0786C148.706 69.1047 148.762 69.1198 148.818 69.1228L149.501 69.1569C149.802 69.1751 149.984 69.0386 150.048 68.7472M148.443 68.6516L148.839 68.7202L148.843 68.6234L148.845 68.6235M150.048 68.7472C150.271 67.7001 150.25 66.6713 149.986 65.6606C149.959 65.5428 149.973 65.4192 150.027 65.3107C150.08 65.2022 150.169 65.1153 150.279 65.0648C150.389 65.0143 150.513 65.0032 150.63 65.0333C150.747 65.0635 150.85 65.1331 150.922 65.2304C150.976 65.3124 151.026 65.3943 151.072 65.4762C151.181 65.6948 151.227 65.9247 151.209 66.1659L150.983 68.8701C150.956 69.1524 151.086 69.3071 151.372 69.3345M169.031 48.4591C166.97 52.2173 163.232 56.0444 160.241 59.1078C159.585 59.7793 158.965 60.4141 158.406 61.0034L171.695 42.0265C171.859 43.4286 171.264 44.7898 169.912 46.1101C170.217 46.7292 169.924 47.5122 169.031 48.4591ZM169.031 48.4591L169.395 48.802C169.41 48.7863 169.425 48.7706 169.439 48.755M169.031 48.4591L169.47 48.6996C169.46 48.718 169.45 48.7365 169.439 48.755M169.439 48.755C168.475 50.4997 167.166 52.248 165.751 53.9187C169.036 50.7751 172.215 47.3822 175.287 43.7397C176.977 40.2187 177.671 36.1674 177.349 31.5705L177.334 31.5768L177.331 31.5778C177.261 31.6061 177.23 31.6398 177.208 31.7149C176.674 33.6217 175.673 35.1848 174.206 36.3872C174.022 38.7071 173.367 40.6472 172.211 42.1767C172.311 43.6169 171.699 44.9759 170.487 46.2407C170.569 46.5972 170.527 46.969 170.389 47.3372C170.215 47.8006 169.886 48.2734 169.439 48.755ZM148.845 68.6235C148.859 68.6242 148.872 68.6278 148.884 68.6341C148.897 68.6404 148.907 68.6492 148.916 68.6599C148.924 68.6706 148.931 68.683 148.934 68.6964C148.937 68.7097 148.938 68.7236 148.936 68.737L148.84 68.7205L148.845 68.6235ZM172.979 28.5348L172.98 28.5373C173.002 28.5912 173.003 28.6235 173.001 28.6413C172.998 28.6677 172.993 28.6937 172.989 28.7191C172.928 28.7564 172.864 28.8109 172.812 28.889C172.746 28.987 172.719 29.094 172.718 29.1925C172.616 33.1004 171.703 36.7406 169.981 40.1193C167.821 41.4977 166.48 43.4666 165.971 45.997C165.012 46.664 164.309 47.4348 163.901 48.3198C163.497 49.1961 163.399 50.1489 163.585 51.16C162.685 52.3155 161.822 53.5416 160.998 54.8381C161.184 54.3817 161.376 53.9276 161.569 53.471C161.73 53.09 161.893 52.7074 162.052 52.3201C162.576 51.0499 163.064 49.7504 163.36 48.3953L163.361 48.3945C164.046 45.2393 164.632 42.0658 165.121 38.8741C165.141 38.7493 165.19 38.6579 165.269 38.5815L165.27 38.5806C165.425 38.4289 165.58 38.2807 165.733 38.1339C166.701 37.2071 167.612 36.3349 168.261 34.9684C169.407 32.5549 170.161 29.9524 170.526 27.1639C170.574 27.132 170.616 27.0963 170.654 27.0591C170.796 26.9197 170.899 26.7325 170.981 26.5439C171.305 25.8886 171.578 25.1941 171.802 24.461C172.053 25.8476 172.446 27.2057 172.979 28.5348ZM177.144 31.1142L177.308 31.0468L177.144 31.1142Z" stroke="white"/>
<path d="M112.736 21.9309C115.103 22.7606 117.084 24.2211 118.682 26.3279C116.963 24.75 115.022 23.3419 112.861 22.103L112.861 22.1025C112.841 22.0915 112.822 22.0744 112.808 22.0513L112.736 21.9309Z" stroke="white"/>
<path d="M154.312 25.6063L154.371 25.6366C153.995 26.3366 153.589 27.0075 153.177 27.6757C153.569 26.9787 153.953 26.2878 154.312 25.6063ZM149.252 35.6159C149.594 34.6092 150.022 33.6094 150.502 32.6166C150.094 33.6024 149.677 34.6022 149.252 35.6159Z" stroke="white"/>
<path d="M143.874 47.8025C143.293 47.1828 142.962 46.3193 142.747 45.4937C142.556 44.7591 142.435 43.96 142.334 43.2828C142.29 42.9913 142.249 42.7223 142.208 42.4909L142.208 42.4895C142.076 41.74 141.793 41.1736 141.439 40.6052C141.334 40.4367 141.217 40.2604 141.095 40.0758C140.938 39.8382 140.771 39.5866 140.608 39.3196C140.392 39.6173 140.269 39.8998 140.222 40.1661C140.15 40.5663 140.235 40.9951 140.534 41.473C140.73 41.7785 140.787 42.1233 140.71 42.476C140.71 42.4762 140.71 42.4763 140.71 42.4764L139.696 47.099C139.692 47.4319 139.752 47.7541 139.84 48.088C139.885 48.2575 139.936 48.4243 139.99 48.5987L139.995 48.6171C140.049 48.7949 140.106 48.9816 140.154 49.1692C140.22 49.4278 140.275 49.7042 140.286 49.9944C140.325 49.9523 140.368 49.9143 140.416 49.8815C140.582 49.7674 140.787 49.7241 140.986 49.7612C141.184 49.7982 141.359 49.9124 141.473 50.0788C141.581 50.2356 141.625 50.4265 141.599 50.6139L141.552 51.2475C141.594 51.2696 141.635 51.2963 141.674 51.3283C141.815 51.4428 141.893 51.5917 141.932 51.7347L141.934 51.7404L141.934 51.7404C141.999 51.9887 142.007 52.2655 141.881 52.5249C141.754 52.7862 141.53 52.9499 141.291 53.0476M143.874 47.8025L141.102 52.5847M143.874 47.8025C143.704 47.7655 143.526 47.7933 143.376 47.8807C143.224 47.9686 143.111 48.1102 143.059 48.2775C143.009 48.4377 143.019 48.6103 143.086 48.7638L143.544 49.9234C143.533 50.6299 143.562 51.3263 143.632 52.0123L143.382 51.4519L143.381 51.4491C143.337 51.3528 143.278 51.2448 143.196 51.1531C143.117 51.0645 142.962 50.9329 142.731 50.929C142.496 50.925 142.335 51.0554 142.252 51.1472C142.168 51.2398 142.109 51.3491 142.066 51.4447C141.91 51.7919 141.952 52.1497 142.146 52.4604L142.15 52.4666L142.154 52.4727C142.16 52.4811 142.163 52.4925 142.162 52.5056L142.161 52.5096C142.126 52.8739 142.181 53.2268 142.363 53.5365C142.545 53.8463 142.828 54.065 143.163 54.2109L143.171 54.2144L143.179 54.2175C143.32 54.2732 143.475 54.2857 143.623 54.2534C143.754 54.2249 143.874 54.1629 143.973 54.0739C144.181 54.9754 144.463 55.8579 144.82 56.7209C145.279 60.634 145.349 64.6568 145.03 68.7899C145.024 68.7904 145.018 68.7908 145.011 68.7912L144.092 61.3119M143.874 47.8025L144.045 49.8327C143.995 52.2091 144.416 54.4626 145.309 56.5931C145.782 60.5947 145.853 64.7079 145.52 68.9326M141.291 53.0476L141.102 52.5847M141.291 53.0476C141.291 53.0475 141.292 53.0474 141.292 53.0473L141.102 52.5847M141.291 53.0476C141.152 53.1043 141.002 53.1284 140.853 53.118C140.703 53.1076 140.558 53.0628 140.428 52.9872C140.298 52.9115 140.188 52.807 140.105 52.6818C140.022 52.5565 139.969 52.4139 139.951 52.2649L139.95 52.2624C139.916 51.9784 139.906 51.6975 139.92 51.4199M141.102 52.5847C141.034 52.6125 140.961 52.6243 140.888 52.6192C140.814 52.6141 140.743 52.5923 140.68 52.5553C140.617 52.5183 140.563 52.4672 140.522 52.406C140.482 52.3448 140.456 52.2751 140.447 52.2023C140.374 51.6013 140.422 51.0209 140.59 50.461M139.92 51.4199C140.122 51.0817 140.232 50.743 140.271 50.4014L140.59 50.461M139.92 51.4199C139.892 51.4667 139.862 51.5135 139.831 51.5603M139.92 51.4199C139.939 51.0526 140 50.6912 140.105 50.3367L139.831 51.5603M140.59 50.461L140.275 50.3662L141.191 51.656C141.077 51.6514 141.025 51.5922 141.034 51.4784L141.102 50.5566C141.115 50.4886 141.1 50.4185 141.061 50.3615C141.022 50.3045 140.962 50.2654 140.894 50.2527C140.826 50.24 140.756 50.2548 140.699 50.2939C140.642 50.3329 140.603 50.393 140.59 50.461ZM139.831 51.5603C139.824 51.4984 139.817 51.4361 139.811 51.3734L139.313 51.4238M139.831 51.5603L139.197 47.0398C139.179 47.6563 139.349 48.2111 139.51 48.7416C139.786 49.6447 140.04 50.4774 139.313 51.4238M139.831 51.5603C139.793 51.6163 139.753 51.6724 139.71 51.7284L139.313 51.4238M139.831 51.5603C139.977 52.8375 140.283 53.96 140.741 54.9344M139.313 51.4238C139.468 52.9565 139.843 54.2974 140.436 55.4467C140.438 55.4367 140.441 55.4269 140.444 55.4175C140.496 55.2316 140.599 55.0644 140.741 54.9344M140.741 54.9344C140.818 55.0989 140.9 55.2592 140.986 55.4153C141.016 55.3656 141.055 55.3209 141.101 55.2834C141.187 55.2134 141.292 55.1717 141.402 55.1642C141.513 55.1567 141.623 55.1837 141.717 55.2416C141.811 55.2994 141.885 55.3851 141.928 55.4869M140.741 54.9344C140.755 54.9214 140.769 54.9088 140.784 54.8965C140.95 54.7607 141.154 54.6799 141.368 54.6654C141.582 54.6508 141.795 54.7032 141.978 54.8153C142.159 54.9264 142.302 55.0906 142.386 55.2854M142.386 55.2854C142.385 55.2841 142.385 55.2828 142.384 55.2815L141.928 55.4869M142.386 55.2854C142.387 55.2873 142.388 55.2891 142.388 55.2909L141.928 55.4869M142.386 55.2854C143.335 57.3921 143.907 59.4017 144.092 61.3119M141.928 55.4869C141.942 55.5163 141.955 55.5456 141.968 55.575L142.494 55.6706L142.107 55.8917C142.933 57.814 143.429 59.6389 143.595 61.3664M144.092 61.3119L144.091 61.3054L143.595 61.3664M144.092 61.3119C144.092 61.3141 144.092 61.3164 144.092 61.3186L143.595 61.3664M143.595 61.3664L144.564 69.2535M144.564 69.2535C145.174 69.3582 145.493 69.2513 145.52 68.9326M144.564 69.2535L145.061 69.1925L145.024 68.8935M144.564 69.2535L145.024 68.8935M145.52 68.9326L145.024 68.8935M145.52 68.9326L145.023 68.89L145.023 68.8855L145.024 68.8935M143.704 53.3973L143.704 53.3973L143.704 53.3973ZM143.704 53.3973L143.704 53.3972L143.704 53.3973ZM154.603 27.2542C154.671 27.5675 154.762 27.8646 154.878 28.1447L154.878 28.1447L154.879 28.148C154.91 28.2201 154.91 28.2775 154.873 28.3567L154.873 28.358C154.693 28.7456 154.439 29.2503 154.145 29.8324C154.094 29.9332 154.042 30.0363 153.989 30.1416C153.633 30.8495 153.236 31.6445 152.87 32.4409C152.504 33.2359 152.163 34.0422 151.919 34.7731C151.681 35.4892 151.516 36.1896 151.549 36.7512L151.549 36.7516C151.558 36.8968 151.533 37.0338 151.471 37.1695C150.891 38.4384 150.711 40.0031 150.543 41.4577C150.527 41.6043 150.51 41.7497 150.493 41.8937C150.3 43.5259 150.073 44.9601 149.389 45.9582L149.389 45.9591C148.454 47.3301 147.288 48.6229 145.888 49.8364C145.651 49.4659 145.303 49.1111 144.881 48.7695L144.472 48.2875C144.624 48.3722 144.791 48.4243 144.964 48.4403C145.165 48.4588 145.368 48.4277 145.555 48.3496C145.741 48.2716 145.906 48.1491 146.034 47.9928C146.162 47.8364 146.25 47.651 146.29 47.4528L146.291 47.4522L146.918 44.3199L148.39 40.2298C149.517 37.579 150.593 35.0165 151.616 32.5423L151.616 32.542C152.085 31.4071 152.708 30.3417 153.382 29.2466C153.5 29.0551 153.619 28.8624 153.74 28.6683C154.026 28.2062 154.318 27.736 154.603 27.2542ZM140.925 55.5552C140.914 55.5894 140.907 55.6213 140.902 55.6508L140.862 55.5796L140.911 55.5515L140.925 55.5551L140.912 55.5513L140.928 55.5419C140.927 55.5463 140.926 55.5507 140.925 55.5552ZM140.892 55.4517L140.824 55.5147L140.806 55.483C140.831 55.4689 140.86 55.4577 140.892 55.4517Z" stroke="white"/>
<path d="M164.934 27.6929C164.92 27.7127 164.907 27.7326 164.893 27.7525C164.408 28.4486 163.906 29.1781 163.556 29.9541M164.934 27.6929L163.556 29.9541M164.934 27.6929L162.667 29.2719C162.667 29.272 162.667 29.272 162.666 29.2721C162.629 29.2982 162.601 29.34 162.59 29.3908L162.589 29.397L162.589 29.397C162.393 30.3132 161.861 30.9804 161.013 31.3431L161.012 31.3437C160.79 31.4374 160.544 31.455 160.311 31.3922C160.08 31.3296 159.875 31.1909 159.732 30.9973C159.678 30.9247 159.627 30.8528 159.579 30.7815L154.476 40.8441C154.476 40.8445 154.476 40.8448 154.476 40.8452C154.46 40.8772 154.451 40.9121 154.449 40.9477C154.448 40.9837 154.454 41.0197 154.467 41.0533L154.002 41.2355L154.467 41.0527C154.511 41.1653 154.545 41.2804 154.568 41.3976L156.923 39.1634C157.01 37.8769 157.867 36.7358 158.736 35.7897C159.09 35.4034 159.468 35.028 159.822 34.6765C159.935 34.5644 160.045 34.4547 160.152 34.3479C160.603 33.8953 160.98 33.4961 161.234 33.1355L161.643 33.4236L161.233 33.1369C161.409 32.8864 161.636 32.6905 161.91 32.5535C161.91 32.5533 161.911 32.5532 161.911 32.553L162.585 32.2125L162.607 32.2012L162.631 32.1922L163.331 31.9229L164.934 27.6929ZM163.556 29.9541C163.557 29.954 163.557 29.954 163.557 29.954L164.011 30.159L163.556 29.9541Z" stroke="white"/>
<path d="M168.109 27.5483C168.112 27.5484 168.115 27.5486 168.117 27.5487C168.079 27.5849 168.042 27.6214 168.004 27.6583L168.062 27.5711L168.062 27.5711L168.066 27.5647C168.071 27.5565 168.076 27.5513 168.078 27.5483C168.083 27.5477 168.092 27.5472 168.105 27.548L168.109 27.5483ZM164.453 32.559L164.526 32.5308C164.52 32.5401 164.514 32.5493 164.507 32.5585L164.507 32.5584L164.504 32.5636C164.502 32.5657 164.5 32.5674 164.498 32.5683C164.496 32.5692 164.493 32.5693 164.491 32.5686L164.491 32.5686L164.484 32.567L164.453 32.559Z" stroke="white"/>
<path d="M128.366 37.7052C128.264 37.7585 128.202 37.8177 128.181 37.8829C128.082 37.7215 127.981 37.5788 127.877 37.4486M128.366 37.7052C128.716 37.5189 129.173 37.4396 129.739 37.4673C129.668 37.3124 129.627 37.1433 129.621 36.9629M128.366 37.7052L128.136 37.2615C128.135 37.2619 128.134 37.2624 128.134 37.2628M128.366 37.7052L128.131 37.2641C128.132 37.2636 128.133 37.2632 128.134 37.2628M129.621 36.9629C129.783 36.9662 129.951 36.9778 130.124 36.9971C130.098 36.7266 130.195 36.4072 130.415 36.039M129.621 36.9629C129.62 36.9434 129.62 36.9238 129.62 36.904C129.621 36.6568 129.684 36.408 129.79 36.1619M129.621 36.9629C129.054 36.9513 128.551 37.041 128.134 37.2628M130.415 36.039L119.626 26.793M130.415 36.039L129.986 35.7827C129.911 35.9079 129.845 36.0346 129.79 36.1619M130.415 36.039L130.09 36.4187L129.79 36.1619M119.626 26.793C119.371 26.843 119.145 27.0024 118.95 27.271M119.626 26.793L119.404 27.0519C119.392 27.0336 119.38 27.0153 119.368 26.9971L118.95 27.271M119.626 26.793L119.722 27.2836C119.682 27.2915 119.637 27.3071 119.589 27.3359C119.629 27.3984 119.67 27.461 119.71 27.5236M118.95 27.271C121.426 31.0522 123.555 34.9894 125.338 39.0824L125.55 38.5319C125.581 38.4479 125.576 38.3862 125.535 38.3093L125.534 38.306L125.534 38.306C125.475 38.1933 125.426 38.0787 125.389 37.9625M118.95 27.271L119.354 27.5655C119.418 27.4778 119.478 27.4162 119.534 27.373L119.71 27.5236M125.389 37.9625C125.44 38.0755 125.491 38.1887 125.541 38.3021C125.542 38.3032 125.542 38.3043 125.543 38.3054C125.582 38.3942 125.621 38.4831 125.661 38.572L126.017 38.7091M125.389 37.9625C125.26 37.5617 125.258 37.1413 125.379 36.715L125.38 36.7119L125.38 36.7119C125.418 36.5831 125.487 36.4658 125.581 36.3705C125.675 36.2751 125.791 36.2047 125.919 36.1655C126.048 36.1263 126.184 36.1197 126.315 36.1462C126.446 36.1727 126.569 36.2314 126.672 36.3172L126.677 36.3213L126.677 36.3213C126.758 36.3908 126.837 36.4572 126.914 36.522C127.273 36.8234 127.588 37.0882 127.877 37.4486M125.389 37.9625C123.765 34.3612 121.872 30.8816 119.71 27.5236M126.017 38.7091L125.662 38.5759C125.735 38.7406 125.807 38.9056 125.878 39.0709L126.017 38.7091ZM126.017 38.7091C126.099 38.4905 126.086 38.2788 125.976 38.074C125.776 37.6916 125.737 37.2841 125.86 36.8516C125.875 36.8027 125.901 36.758 125.937 36.7217C125.973 36.6854 126.017 36.6586 126.066 36.6437C126.114 36.6288 126.166 36.6262 126.216 36.6363C126.266 36.6464 126.313 36.6688 126.352 36.7014C126.436 36.7731 126.516 36.8406 126.593 36.9055C127.036 37.2781 127.373 37.562 127.677 38.0217C127.67 37.9669 127.67 37.909 127.678 37.8479C127.701 37.6758 127.782 37.5456 127.877 37.4486M127.877 37.4486C127.962 37.3624 128.058 37.3025 128.134 37.2628M119.71 27.5236L129.79 36.1619M129.603 39.328C129.541 39.3077 129.477 39.2829 129.411 39.2535C128.951 39.0491 128.59 38.6978 128.474 38.4413L128.473 38.4405C128.441 38.3685 128.408 38.2997 128.374 38.2336C128.999 38.793 129.7 38.9651 130.477 38.75C130.566 38.7263 130.661 38.7314 130.747 38.7645C130.833 38.7977 130.906 38.8572 130.955 38.9344C131.109 39.1848 131.048 39.4238 130.77 39.6514C129.91 40.3479 128.38 39.4466 128.018 38.6476C128.001 38.6102 127.984 38.5737 127.967 38.5381C127.999 38.5685 128.031 38.598 128.064 38.6267C128.064 38.6267 128.064 38.6267 128.064 38.6268C128.53 39.0369 129.048 39.2745 129.603 39.328ZM129.603 39.328C129.967 39.4472 130.257 39.4138 130.442 39.2736M129.603 39.328C129.874 39.3542 130.154 39.3365 130.442 39.2736M130.442 39.2736C130.446 39.2704 130.45 39.2671 130.454 39.2638C130.498 39.2281 130.521 39.2011 130.533 39.1846C130.545 39.1688 130.543 39.1663 130.54 39.1769C130.539 39.1818 130.538 39.1869 130.538 39.192L130.586 39.1625L130.477 38.7501L130.59 39.1598L130.596 39.1561L130.955 38.9344L130.593 39.1637L130.591 39.1647L130.592 39.1666L130.61 39.2319C130.56 39.2457 130.51 39.2582 130.461 39.2693L130.77 39.6514L130.458 39.2701C130.452 39.2713 130.447 39.2724 130.442 39.2736ZM130.538 39.2105C130.538 39.2068 130.538 39.2029 130.538 39.1987L130.587 39.1675L130.589 39.1745L130.604 39.2334C130.593 39.2364 130.58 39.2361 130.567 39.231C130.557 39.227 130.547 39.2201 130.538 39.2105Z" stroke="white"/>
<path d="M139.237 39.9889C139.21 40.1401 139.197 40.2908 139.198 40.4406C139.188 40.4385 139.178 40.4366 139.168 40.4348L139.166 40.4345C138.948 40.3969 138.737 40.4172 138.541 40.4907C138.514 39.345 138.558 38.3961 138.957 37.1157C139.353 35.8498 139.29 34.5827 138.98 33.3092C139.606 34.7326 140.018 36.2221 140.184 38.2723C139.681 38.8018 139.348 39.3732 139.237 39.9889Z" stroke="white"/>
<path d="M176.247 31.4386L176.247 31.4386L176.246 31.441C175.843 32.8793 175.153 34.0834 174.177 35.0632C174.184 33.7652 174.439 32.4924 174.941 31.2417C175.553 31.1052 175.99 30.6636 176.303 30.2362C176.49 29.9793 176.651 29.7017 176.792 29.4481C176.812 29.4118 176.831 29.3764 176.85 29.3417L177.191 30.5519L176.955 30.6486C176.598 30.7933 176.352 31.0688 176.247 31.4386Z" stroke="white"/>
<path d="M170.998 40.321C172.547 37.2003 173.437 33.867 173.667 30.3256L174.024 30.8442C173.33 32.5602 173.061 34.3269 173.221 36.138C173.083 38.1598 172.577 39.8157 171.723 41.13C171.499 40.8157 171.258 40.5443 170.998 40.321Z" stroke="white"/>
<mask id="path-49-inside-2_321_792" fill="white">
<path d="M130.408 37.54C131.15 38.1409 131.71 38.9239 132.088 39.8891C132.177 40.1106 132.338 40.2978 132.546 40.4217C133.465 40.9543 133.641 41.4028 133.072 41.767C132.243 42.5272 131.453 42.3906 130.702 41.3572C130.552 41.1524 130.406 41.0249 130.265 40.9748C130.087 40.9111 129.896 40.8951 129.691 40.927C129.509 40.9543 129.457 41.0522 129.534 41.2207L132.266 47.1138C132.366 47.3323 132.5 47.3528 132.669 47.1753C133.292 46.5015 133.907 46.5379 134.512 47.2845C134.603 47.3983 134.724 47.4462 134.874 47.4279L135.107 47.3938C135.557 47.3301 135.546 47.2162 135.072 47.0524C134.758 46.9477 134.515 46.7656 134.342 46.5061C134.21 46.3058 134.025 46.176 133.789 46.1168C132.878 45.8983 132.145 45.4135 131.59 44.6623C131.53 44.5817 131.503 44.4818 131.513 44.382C131.523 44.2823 131.57 44.1899 131.644 44.1229L133.297 42.6069C133.497 42.8482 133.718 42.9893 133.959 43.0303L135.865 46.5334L138.548 53.4645C138.639 53.6921 138.564 53.8424 138.323 53.9152L135.803 54.6595C135.484 54.7551 135.402 54.9463 135.557 55.2331C135.712 55.5291 135.951 55.6725 136.274 55.6634C136.93 55.6429 137.558 54.8917 138.057 54.7142C138.174 54.6713 138.299 54.6536 138.424 54.6622C138.549 54.6707 138.671 54.7053 138.782 54.7637C138.893 54.8222 138.991 54.9032 139.07 55.0017C139.148 55.1001 139.205 55.2138 139.238 55.3356L142.379 67.3473L142.092 67.6068C142.027 67.6665 141.947 67.7087 141.86 67.7292C141.774 67.7497 141.684 67.7478 141.599 67.7238C141.514 67.6998 141.437 67.6545 141.375 67.5921C141.313 67.5298 141.268 67.4525 141.246 67.3677L139.941 62.7447L138.425 59.1323C138.4 59.0725 138.355 59.0227 138.298 58.991C138.241 58.9592 138.175 58.9476 138.111 58.958C138.047 58.9683 137.99 59.0001 137.947 59.0479C137.905 59.0958 137.881 59.1569 137.879 59.2211C137.79 60.5664 139.272 61.5429 139.293 63.3252C138.705 63.5255 138.302 63.785 138.084 64.1036C138.054 64.1462 138.038 64.1969 138.038 64.2489C138.038 64.3009 138.054 64.3517 138.084 64.3943C138.113 64.4369 138.156 64.4692 138.205 64.4868C138.254 64.5045 138.307 64.5066 138.357 64.4929L139.798 64.1036C139.845 64.0909 139.894 64.0893 139.942 64.0989C139.989 64.1084 140.034 64.1289 140.072 64.1587C140.111 64.1885 140.142 64.2267 140.163 64.2705C140.184 64.3143 140.195 64.3623 140.194 64.4109L140.16 66.7395C140.155 66.8715 140.103 66.9785 140.003 67.0605L139.791 67.238C139.712 67.3044 139.657 67.3942 139.632 67.4943C139.608 67.5945 139.616 67.6997 139.656 67.7948C139.696 67.89 139.764 67.97 139.853 68.0234C139.941 68.0767 140.043 68.1006 140.146 68.0916C140.911 68.0142 141.3 68.2896 141.314 68.9179C140.472 68.8632 139.88 69.1113 139.538 69.6622C139.525 69.6485 139.509 69.6326 139.491 69.6144C137.997 68.7358 136.668 68.3716 135.503 68.5218L136.138 67.3063C137.08 66.801 137.283 66.2524 136.745 65.6606C136.613 65.5103 136.538 65.3373 136.52 65.1416L136.377 63.6256C136.144 62.3213 136.206 61.1468 135.824 59.8903C134.697 56.2028 133.877 52.5563 131.788 49.258C129.739 46.0303 127.684 42.8573 125.621 39.7388L126.018 38.7077C126.099 38.4892 126.086 38.2775 125.977 38.0726C125.776 37.6902 125.738 37.2828 125.86 36.8503C125.875 36.8013 125.901 36.7567 125.937 36.7203C125.973 36.684 126.017 36.6572 126.066 36.6423C126.115 36.6274 126.166 36.6249 126.216 36.635C126.266 36.645 126.313 36.6674 126.352 36.7001C127.103 37.342 127.568 37.6561 128.018 38.6462C128.38 39.4452 129.91 40.3466 130.77 39.6501C131.048 39.4224 131.109 39.1834 130.955 38.933C130.906 38.8558 130.833 38.7963 130.747 38.7632C130.661 38.73 130.566 38.7249 130.477 38.7487C129.671 38.9717 128.947 38.7783 128.305 38.1682C128.109 37.9816 128.13 37.8268 128.367 37.7039C128.845 37.4489 129.525 37.3943 130.408 37.54ZM136.868 51.2247L134.758 52.8704C134.742 52.8825 134.729 52.8975 134.719 52.9147C134.709 52.9319 134.703 52.9509 134.7 52.9706C134.698 52.9903 134.699 53.0102 134.705 53.0294C134.71 53.0485 134.719 53.0664 134.731 53.0821L134.779 53.1436C134.852 53.2389 134.952 53.3121 135.073 53.359C135.194 53.4058 135.334 53.4253 135.484 53.4164C135.635 53.4076 135.793 53.3704 135.949 53.3072C136.106 53.244 136.258 53.1559 136.397 53.048L136.636 52.8636C136.916 52.6453 137.125 52.3602 137.217 52.0708C137.309 51.7814 137.277 51.5115 137.128 51.3203L137.08 51.252C137.068 51.2362 137.053 51.223 137.036 51.2131C137.019 51.2032 137 51.1968 136.98 51.1942C136.96 51.1917 136.94 51.1931 136.921 51.1983C136.902 51.2035 136.884 51.2125 136.868 51.2247ZM138.405 56.0458L136.001 56.9676C135.979 56.9759 135.959 56.9886 135.942 57.0048C135.924 57.0211 135.911 57.0406 135.901 57.0622C135.892 57.0838 135.886 57.1071 135.886 57.1308C135.886 57.1544 135.89 57.1779 135.899 57.1998L135.946 57.3296C136.021 57.5233 136.172 57.6788 136.365 57.7619C136.558 57.8451 136.778 57.8492 136.978 57.7734L138.22 57.3022C138.32 57.2644 138.41 57.2078 138.488 57.1357C138.565 57.0637 138.627 56.9776 138.671 56.8825C138.715 56.7873 138.739 56.6849 138.743 56.5811C138.746 56.4774 138.729 56.3744 138.692 56.2779L138.637 56.1482C138.629 56.1261 138.616 56.1058 138.6 56.0886C138.584 56.0715 138.564 56.0577 138.542 56.0482C138.521 56.0386 138.497 56.0335 138.474 56.0331C138.45 56.0327 138.427 56.037 138.405 56.0458Z"/>
</mask>
<path d="M130.408 37.54C131.15 38.1409 131.71 38.9239 132.088 39.8891C132.177 40.1106 132.338 40.2978 132.546 40.4217C133.465 40.9543 133.641 41.4028 133.072 41.767C132.243 42.5272 131.453 42.3906 130.702 41.3572C130.552 41.1524 130.406 41.0249 130.265 40.9748C130.087 40.9111 129.896 40.8951 129.691 40.927C129.509 40.9543 129.457 41.0522 129.534 41.2207L132.266 47.1138C132.366 47.3323 132.5 47.3528 132.669 47.1753C133.292 46.5015 133.907 46.5379 134.512 47.2845C134.603 47.3983 134.724 47.4462 134.874 47.4279L135.107 47.3938C135.557 47.3301 135.546 47.2162 135.072 47.0524C134.758 46.9477 134.515 46.7656 134.342 46.5061C134.21 46.3058 134.025 46.176 133.789 46.1168C132.878 45.8983 132.145 45.4135 131.59 44.6623C131.53 44.5817 131.503 44.4818 131.513 44.382C131.523 44.2823 131.57 44.1899 131.644 44.1229L133.297 42.6069C133.497 42.8482 133.718 42.9893 133.959 43.0303L135.865 46.5334L138.548 53.4645C138.639 53.6921 138.564 53.8424 138.323 53.9152L135.803 54.6595C135.484 54.7551 135.402 54.9463 135.557 55.2331C135.712 55.5291 135.951 55.6725 136.274 55.6634C136.93 55.6429 137.558 54.8917 138.057 54.7142C138.174 54.6713 138.299 54.6536 138.424 54.6622C138.549 54.6707 138.671 54.7053 138.782 54.7637C138.893 54.8222 138.991 54.9032 139.07 55.0017C139.148 55.1001 139.205 55.2138 139.238 55.3356L142.379 67.3473L142.092 67.6068C142.027 67.6665 141.947 67.7087 141.86 67.7292C141.774 67.7497 141.684 67.7478 141.599 67.7238C141.514 67.6998 141.437 67.6545 141.375 67.5921C141.313 67.5298 141.268 67.4525 141.246 67.3677L139.941 62.7447L138.425 59.1323C138.4 59.0725 138.355 59.0227 138.298 58.991C138.241 58.9592 138.175 58.9476 138.111 58.958C138.047 58.9683 137.99 59.0001 137.947 59.0479C137.905 59.0958 137.881 59.1569 137.879 59.2211C137.79 60.5664 139.272 61.5429 139.293 63.3252C138.705 63.5255 138.302 63.785 138.084 64.1036C138.054 64.1462 138.038 64.1969 138.038 64.2489C138.038 64.3009 138.054 64.3517 138.084 64.3943C138.113 64.4369 138.156 64.4692 138.205 64.4868C138.254 64.5045 138.307 64.5066 138.357 64.4929L139.798 64.1036C139.845 64.0909 139.894 64.0893 139.942 64.0989C139.989 64.1084 140.034 64.1289 140.072 64.1587C140.111 64.1885 140.142 64.2267 140.163 64.2705C140.184 64.3143 140.195 64.3623 140.194 64.4109L140.16 66.7395C140.155 66.8715 140.103 66.9785 140.003 67.0605L139.791 67.238C139.712 67.3044 139.657 67.3942 139.632 67.4943C139.608 67.5945 139.616 67.6997 139.656 67.7948C139.696 67.89 139.764 67.97 139.853 68.0234C139.941 68.0767 140.043 68.1006 140.146 68.0916C140.911 68.0142 141.3 68.2896 141.314 68.9179C140.472 68.8632 139.88 69.1113 139.538 69.6622C139.525 69.6485 139.509 69.6326 139.491 69.6144C137.997 68.7358 136.668 68.3716 135.503 68.5218L136.138 67.3063C137.08 66.801 137.283 66.2524 136.745 65.6606C136.613 65.5103 136.538 65.3373 136.52 65.1416L136.377 63.6256C136.144 62.3213 136.206 61.1468 135.824 59.8903C134.697 56.2028 133.877 52.5563 131.788 49.258C129.739 46.0303 127.684 42.8573 125.621 39.7388L126.018 38.7077C126.099 38.4892 126.086 38.2775 125.977 38.0726C125.776 37.6902 125.738 37.2828 125.86 36.8503C125.875 36.8013 125.901 36.7567 125.937 36.7203C125.973 36.684 126.017 36.6572 126.066 36.6423C126.115 36.6274 126.166 36.6249 126.216 36.635C126.266 36.645 126.313 36.6674 126.352 36.7001C127.103 37.342 127.568 37.6561 128.018 38.6462C128.38 39.4452 129.91 40.3466 130.77 39.6501C131.048 39.4224 131.109 39.1834 130.955 38.933C130.906 38.8558 130.833 38.7963 130.747 38.7632C130.661 38.73 130.566 38.7249 130.477 38.7487C129.671 38.9717 128.947 38.7783 128.305 38.1682C128.109 37.9816 128.13 37.8268 128.367 37.7039C128.845 37.4489 129.525 37.3943 130.408 37.54ZM136.868 51.2247L134.758 52.8704C134.742 52.8825 134.729 52.8975 134.719 52.9147C134.709 52.9319 134.703 52.9509 134.7 52.9706C134.698 52.9903 134.699 53.0102 134.705 53.0294C134.71 53.0485 134.719 53.0664 134.731 53.0821L134.779 53.1436C134.852 53.2389 134.952 53.3121 135.073 53.359C135.194 53.4058 135.334 53.4253 135.484 53.4164C135.635 53.4076 135.793 53.3704 135.949 53.3072C136.106 53.244 136.258 53.1559 136.397 53.048L136.636 52.8636C136.916 52.6453 137.125 52.3602 137.217 52.0708C137.309 51.7814 137.277 51.5115 137.128 51.3203L137.08 51.252C137.068 51.2362 137.053 51.223 137.036 51.2131C137.019 51.2032 137 51.1968 136.98 51.1942C136.96 51.1917 136.94 51.1931 136.921 51.1983C136.902 51.2035 136.884 51.2125 136.868 51.2247ZM138.405 56.0458L136.001 56.9676C135.979 56.9759 135.959 56.9886 135.942 57.0048C135.924 57.0211 135.911 57.0406 135.901 57.0622C135.892 57.0838 135.886 57.1071 135.886 57.1308C135.886 57.1544 135.89 57.1779 135.899 57.1998L135.946 57.3296C136.021 57.5233 136.172 57.6788 136.365 57.7619C136.558 57.8451 136.778 57.8492 136.978 57.7734L138.22 57.3022C138.32 57.2644 138.41 57.2078 138.488 57.1357C138.565 57.0637 138.627 56.9776 138.671 56.8825C138.715 56.7873 138.739 56.6849 138.743 56.5811C138.746 56.4774 138.729 56.3744 138.692 56.2779L138.637 56.1482C138.629 56.1261 138.616 56.1058 138.6 56.0886C138.584 56.0715 138.564 56.0577 138.542 56.0482C138.521 56.0386 138.497 56.0335 138.474 56.0331C138.45 56.0327 138.427 56.037 138.405 56.0458Z" stroke="white" stroke-width="2" mask="url(#path-49-inside-2_321_792)"/>
<path d="M131.247 44.9189L131.38 45.2055C131.656 45.5318 131.968 45.8073 132.314 46.0313M131.247 44.9189L132.266 47.1168C132.366 47.3353 132.5 47.3558 132.669 47.1783M131.247 44.9189L131.59 44.6653L131.247 44.9187L131.247 44.9189ZM132.314 46.0313L132.57 46.5846M132.314 46.0313C132.505 46.1551 132.706 46.2631 132.918 46.3553M132.314 46.0313L132.918 46.3553M132.57 46.5846C132.477 46.6605 132.388 46.745 132.304 46.8357C132.297 46.8428 132.294 46.8457 132.294 46.8457C132.294 46.8457 132.297 46.8433 132.303 46.8395L132.49 47.0129L132.491 47.0136L132.669 47.1783M132.57 46.5846L132.719 46.9065L132.72 46.9085L132.72 46.9085C132.723 46.9144 132.725 46.9179 132.726 46.9195M132.57 46.5846C132.68 46.4947 132.796 46.417 132.918 46.3553M132.669 47.1783C133.092 46.7206 133.512 46.5906 133.927 46.7883L132.726 46.9205C132.726 46.9205 132.726 46.9202 132.726 46.9195M132.669 47.1783L132.494 47.0123L132.493 47.0115L132.308 46.8362C132.311 46.8344 132.314 46.8325 132.318 46.8305C132.35 46.8139 132.422 46.7873 132.517 46.8018C132.613 46.8165 132.676 46.8643 132.704 46.8934C132.709 46.8988 132.714 46.9036 132.717 46.9076C132.717 46.9082 132.718 46.9088 132.718 46.9093C132.722 46.9143 132.725 46.9179 132.726 46.9195M132.726 46.9195L132.918 46.3553M131.308 43.7559C131.296 43.7664 131.285 43.7772 131.274 43.7882L130.265 41.6117C130.276 41.6252 130.287 41.6397 130.298 41.6551C130.706 42.2166 131.191 42.6299 131.772 42.7304C132.011 42.7716 132.242 42.7565 132.463 42.6959L131.308 43.7559ZM135.106 47.3968L134.961 47.4181C134.96 47.4131 134.958 47.408 134.956 47.4028L135.061 47.0888L135.062 47.0851L135.072 47.0554L135.062 47.0844L135.061 47.0879L134.954 47.396C134.947 47.371 134.941 47.3434 134.938 47.3133C134.927 47.196 134.96 47.1 135.003 47.0304C135.02 47.0371 135.038 47.0435 135.055 47.0496C135.056 47.0498 135.057 47.0501 135.057 47.0503C135.062 47.052 135.067 47.0537 135.072 47.0553C135.546 47.2192 135.557 47.333 135.106 47.3968ZM129.986 41.0085C129.986 41.0085 129.987 41.0102 129.988 41.0133C129.986 41.01 129.986 41.0084 129.986 41.0085ZM129.759 41.4256C129.759 41.4256 129.761 41.4252 129.764 41.4247C129.761 41.4254 129.759 41.4257 129.759 41.4256Z" stroke="white"/>
<path d="M138.698 47.0107L138.697 47.0186L138.697 47.0265C138.683 47.5107 138.769 47.9513 138.874 48.346C138.924 48.5335 138.979 48.7159 139.031 48.886L139.038 48.91C139.093 49.0902 139.144 49.256 139.185 49.4184C139.241 49.6351 139.277 49.8307 139.286 50.0154L137.646 45.9327L137.646 45.9327L137.645 45.9297C137.599 45.8174 137.586 45.7022 137.607 45.573L137.608 45.5704L138.113 42.4368L138.475 41.9629L138.504 41.9242L138.526 41.8805C138.643 41.6424 138.75 41.5211 138.827 41.4649C138.888 41.4203 138.935 41.4116 138.994 41.4217C139.005 41.4238 139.015 41.4297 139.022 41.4384C139.029 41.447 139.032 41.4578 139.032 41.4688L138.698 47.0107Z" stroke="white"/>
<path d="M135.859 44.0027C135.931 44.3638 135.911 44.8 135.774 45.3199L134.638 43.2295C134.767 43.0965 134.866 42.9321 134.941 42.7633C135.475 43.0938 135.76 43.5073 135.859 44.0027ZM134.752 42.6564C134.752 42.6563 134.753 42.6566 134.755 42.6575C134.753 42.6569 134.752 42.6564 134.752 42.6564Z" stroke="white"/>
<path d="M161.873 69.4067C163.399 69.2784 164.925 69.1303 166.451 68.9627C166.444 68.8693 166.421 68.8233 166.408 68.8052C166.396 68.7885 166.332 68.7098 166.041 68.7062L166.04 68.7062C165.141 68.692 164.376 68.5593 163.773 68.2766L163.768 68.2744L163.768 68.2744C163.537 68.1631 163.359 67.9661 163.271 67.7252C163.183 67.4847 163.192 67.2196 163.296 66.9859C163.296 66.9854 163.296 66.9849 163.297 66.9844L163.753 67.1888L161.873 69.4067ZM161.873 69.4067C161.893 69.3282 161.906 69.2481 161.914 69.1717" stroke="white"/>
<path d="M163.712 63.0352C163.738 63.0469 163.764 63.0576 163.791 63.0673C163.259 64.1892 162.543 65.1753 161.641 66.0285C161.983 64.2893 162.38 62.6508 163.056 60.76L163.059 60.7513L163.062 60.7424C163.11 60.5887 163.105 60.4229 163.046 60.2726C162.987 60.1225 162.878 59.9971 162.738 59.9174C162.598 59.8376 162.435 59.8084 162.275 59.8346C162.139 59.857 162.013 59.9188 161.912 60.0117C162.053 59.7892 162.195 59.5672 162.337 59.3457L162.337 59.3454C163.226 57.9558 164.382 56.5869 165.81 55.2399C168.642 52.5679 171.395 49.7149 174.07 46.6809C172.612 49.4872 170.372 51.9262 167.331 53.9973C166.432 54.5982 165.773 55.2521 165.423 55.9745C165.098 56.6466 165.056 57.3463 165.289 58.045L163.304 61.8397C163.304 61.8401 163.304 61.8405 163.303 61.8408C163.209 62.0201 163.133 62.269 163.223 62.5341C163.313 62.8009 163.525 62.9522 163.712 63.0352Z" stroke="white"/>
<path d="M166.069 48.2438L164.496 50.0798C164.511 49.6008 164.617 49.1549 164.81 48.7378C165.089 48.1309 165.565 47.5562 166.263 47.0206C166.462 47.3339 166.674 47.5972 166.903 47.8005C166.971 47.8608 167.041 47.9165 167.113 47.967C166.954 47.906 166.773 47.8788 166.583 47.9207C166.364 47.9691 166.194 48.0962 166.069 48.2438Z" stroke="white"/>
<path d="M148.281 55.8583C148.29 55.4381 148.314 55.0234 148.354 54.6142C148.399 54.8566 148.462 55.0955 148.545 55.3298L148.545 55.3298L148.547 55.3332C148.558 55.3651 148.556 55.3783 148.556 55.38L148.556 55.3801L148.556 55.3802C148.556 55.3821 148.554 55.3964 148.532 55.4257C148.429 55.5652 148.346 55.7097 148.281 55.8583Z" stroke="white"/>
<mask id="path-57-inside-3_321_792" fill="white">
<path d="M144.53 49.1241C144.444 49.115 144.36 49.1173 144.278 49.1309C144.1 49.1537 144.016 49.2538 144.025 49.4314L144.045 49.8274L143.547 48.5641C143.526 48.5192 143.522 48.468 143.537 48.4205C143.551 48.3731 143.584 48.3329 143.627 48.308C143.669 48.283 143.72 48.2752 143.769 48.286C143.817 48.2967 143.86 48.3253 143.888 48.3661L144.53 49.1241Z"/>
</mask>
<path d="M144.53 49.1241L144.426 50.1186L146.904 50.3795L145.293 48.4778L144.53 49.1241ZM144.278 49.1309L144.405 50.1228L144.423 50.1204L144.442 50.1173L144.278 49.1309ZM144.025 49.4314L143.026 49.4826L143.026 49.483L144.025 49.4314ZM144.045 49.8274L143.115 50.1945L145.044 49.7758L144.045 49.8274ZM143.547 48.5641L144.477 48.1971L144.465 48.1659L144.45 48.1357L143.547 48.5641ZM143.888 48.3661L143.068 48.9376L143.095 48.9764L143.125 49.0124L143.888 48.3661ZM144.635 48.1296C144.463 48.1115 144.288 48.1154 144.113 48.1445L144.442 50.1173C144.437 50.1182 144.432 50.1185 144.429 50.1186C144.426 50.1187 144.425 50.1185 144.426 50.1186L144.635 48.1296ZM144.15 48.139C143.905 48.1705 143.571 48.2762 143.316 48.5795C143.06 48.8839 143.013 49.2331 143.026 49.4826L145.024 49.3802C145.027 49.4521 145.018 49.6625 144.847 49.8667C144.676 50.0698 144.472 50.1141 144.405 50.1228L144.15 48.139ZM143.026 49.483L143.047 49.8791L145.044 49.7758L145.024 49.3797L143.026 49.483ZM144.976 49.4604L144.477 48.1971L142.617 48.9312L143.115 50.1945L144.976 49.4604ZM144.45 48.1357C144.537 48.3177 144.551 48.5252 144.492 48.7172L142.582 48.1239C142.493 48.4107 142.514 48.7208 142.643 48.9926L144.45 48.1357ZM144.492 48.7172C144.432 48.9093 144.302 49.072 144.128 49.173L143.125 47.4429C142.865 47.5938 142.671 47.8369 142.582 48.1239L144.492 48.7172ZM144.128 49.173C143.954 49.274 143.748 49.3058 143.552 49.2622L143.985 47.3097C143.692 47.2446 143.385 47.2921 143.125 47.4429L144.128 49.173ZM143.552 49.2622C143.356 49.2186 143.183 49.1026 143.068 48.9376L144.709 47.7946C144.537 47.548 144.279 47.3749 143.985 47.3097L143.552 49.2622ZM143.125 49.0124L143.767 49.7703L145.293 48.4778L144.651 47.7199L143.125 49.0124Z" fill="white" mask="url(#path-57-inside-3_321_792)"/>
<path d="M158.043 60.6606C157.806 60.9107 157.591 61.1739 157.393 61.4467C158.071 60.1951 158.874 59.0822 159.858 58.2361C160.218 57.928 160.516 57.5735 160.75 57.1733L160.751 57.1719C161.922 55.1544 163.174 53.299 164.508 51.6048L166.805 48.9244C167.186 49.0911 167.607 49.156 168.059 49.1359C166.861 51.0773 165.253 53.0326 163.571 54.8855C162.325 56.2598 161.058 57.5567 159.895 58.7471C159.237 59.4208 158.612 60.0604 158.043 60.6606ZM154.636 67.7646L154.636 67.7646L154.636 67.7646Z" stroke="white"/>
<path d="M145.2 50.6917L144.981 53.9878C144.66 52.6524 144.515 51.2703 144.545 49.8404L144.546 49.8223L144.545 49.8041L144.544 49.7965C144.928 50.1526 145.126 50.4525 145.2 50.6917Z" stroke="white"/>
<path d="M140.94 52.1077C140.94 52.1078 140.939 52.1079 140.939 52.1081C140.939 52.1078 140.939 52.1076 140.939 52.1074C140.939 52.1075 140.94 52.1076 140.94 52.1077Z" stroke="white"/>
<path d="M135.519 52.9091L136.72 51.9724C136.654 52.1366 136.521 52.3172 136.329 52.467L136.091 52.6505L136.091 52.6505L136.09 52.6514C135.986 52.7322 135.874 52.7967 135.762 52.842C135.675 52.8769 135.594 52.8986 135.519 52.9091Z" stroke="white"/>
<mask id="path-63-inside-4_321_792" fill="white">
<path d="M142.57 52.1962C142.457 52.0141 142.441 51.832 142.523 51.6499C142.655 51.354 142.789 51.3563 142.926 51.6568L143.704 53.3981C143.725 53.4464 143.732 53.4999 143.723 53.5519C143.713 53.6039 143.689 53.652 143.652 53.69C143.616 53.7281 143.569 53.7544 143.517 53.7656C143.465 53.7769 143.412 53.7725 143.363 53.7532C142.839 53.5255 142.605 53.1272 142.659 52.5581C142.673 52.4303 142.641 52.3023 142.57 52.1962Z"/>
</mask>
<path d="M142.57 52.1962L141.722 52.7262L141.73 52.7386L141.738 52.7507L142.57 52.1962ZM142.523 51.6499L143.435 52.0603L143.436 52.0574L142.523 51.6499ZM142.926 51.6568L143.838 51.2486L143.836 51.243L142.926 51.6568ZM143.704 53.3981L144.619 52.995L144.617 52.99L143.704 53.3981ZM143.363 53.7532L142.964 54.6702L142.98 54.6771L142.996 54.6834L143.363 53.7532ZM142.659 52.5581L141.665 52.4545L141.664 52.4626L142.659 52.5581ZM143.418 51.6662C143.431 51.6857 143.461 51.7444 143.469 51.8359C143.478 51.9306 143.457 52.0102 143.435 52.0603L141.611 51.2396C141.38 51.7524 141.448 52.2863 141.722 52.7262L143.418 51.6662ZM143.436 52.0574C143.449 52.0269 143.431 52.0802 143.363 52.1557C143.296 52.2293 143.075 52.4358 142.705 52.4296C142.344 52.4234 142.135 52.2179 142.078 52.1541C142.016 52.0843 142 52.0377 142.015 52.0706L143.836 51.243C143.783 51.1256 143.699 50.966 143.569 50.8205C143.444 50.6811 143.167 50.4371 142.739 50.4298C142.303 50.4224 142.015 50.6651 141.881 50.8121C141.746 50.9611 141.662 51.125 141.609 51.2425L143.436 52.0574ZM142.013 52.0649L142.791 53.8062L144.617 52.99L143.838 51.2486L142.013 52.0649ZM142.789 53.8011C142.73 53.6681 142.712 53.5206 142.738 53.3773L144.707 53.7265C144.751 53.4793 144.72 53.2247 144.619 52.995L142.789 53.8011ZM142.738 53.3773C142.763 53.234 142.831 53.1016 142.931 52.9969L144.373 54.3831C144.547 54.2023 144.663 53.9737 144.707 53.7265L142.738 53.3773ZM142.931 52.9969C143.032 52.8921 143.162 52.8196 143.304 52.7886L143.73 54.7427C143.975 54.6892 144.199 54.564 144.373 54.3831L142.931 52.9969ZM143.304 52.7886C143.446 52.7576 143.594 52.7696 143.729 52.8229L142.996 54.6834C143.229 54.7755 143.485 54.7962 143.73 54.7427L143.304 52.7886ZM143.761 52.8361C143.703 52.8106 143.673 52.7894 143.661 52.7794C143.65 52.7706 143.652 52.7695 143.656 52.7765C143.66 52.7835 143.658 52.7841 143.656 52.7702C143.653 52.7544 143.649 52.7177 143.655 52.6537L141.664 52.4626C141.621 52.9066 141.685 53.3707 141.932 53.7909C142.18 54.2113 142.555 54.4923 142.964 54.6702L143.761 52.8361ZM143.654 52.6617C143.691 52.3043 143.604 51.9433 143.403 51.6418L141.738 52.7507C141.679 52.6614 141.654 52.5563 141.665 52.4545L143.654 52.6617Z" fill="white" mask="url(#path-63-inside-4_321_792)"/>
<mask id="path-65-inside-5_321_792" fill="white">
<path d="M143.594 61.3636L141.054 55.9143C140.904 55.8869 140.861 55.7663 140.924 55.5523C140.954 55.4456 141.015 55.3507 141.101 55.2806C141.186 55.2106 141.292 55.1689 141.402 55.1614C141.512 55.1539 141.622 55.1809 141.717 55.2387C141.811 55.2966 141.885 55.3823 141.928 55.4841C142.862 57.5554 143.417 59.5153 143.594 61.3636Z"/>
</mask>
<path d="M143.594 61.3636L142.688 61.7861L144.59 61.2679L143.594 61.3636ZM141.054 55.9143L141.961 55.4917L141.742 55.0229L141.233 54.9304L141.054 55.9143ZM140.924 55.5523L141.883 55.8378L141.886 55.827L141.889 55.816L140.924 55.5523ZM141.928 55.4841L141.008 55.876L141.012 55.8854L141.017 55.8948L141.928 55.4841ZM144.501 60.9411L141.961 55.4917L140.148 56.3368L142.688 61.7861L144.501 60.9411ZM141.233 54.9304C141.313 54.9449 141.44 54.9829 141.569 55.0819C141.706 55.1867 141.8 55.3247 141.85 55.4658C141.897 55.5961 141.898 55.7026 141.895 55.7564C141.893 55.7851 141.89 55.8063 141.887 55.8187C141.885 55.8312 141.883 55.8378 141.883 55.8378L139.966 55.2669C139.914 55.4431 139.838 55.7789 139.968 56.1408C140.135 56.607 140.528 56.8351 140.875 56.8981L141.233 54.9304ZM141.889 55.816C141.863 55.9097 141.809 55.993 141.734 56.0544L140.468 54.5068C140.221 54.7083 140.044 54.9816 139.96 55.2886L141.889 55.816ZM141.734 56.0544C141.659 56.1159 141.567 56.1525 141.47 56.1591L141.334 54.1637C141.017 54.1853 140.714 54.3052 140.468 54.5068L141.734 56.0544ZM141.47 56.1591C141.373 56.1657 141.277 56.1419 141.194 56.0912L142.239 54.3863C141.968 54.2199 141.652 54.1421 141.334 54.1637L141.47 56.1591ZM141.194 56.0912C141.111 56.0405 141.046 55.9652 141.008 55.876L142.848 55.0922C142.724 54.7994 142.511 54.5526 142.239 54.3863L141.194 56.0912ZM141.017 55.8948C141.915 57.8879 142.434 59.741 142.599 61.4592L144.59 61.2679C144.4 59.2895 143.809 57.2229 142.84 55.0733L141.017 55.8948Z" fill="white" mask="url(#path-65-inside-5_321_792)"/>
<path d="M144.564 69.2513C144.259 69.5017 143.943 69.4994 143.615 69.2445C143.433 69.1033 143.326 68.919 143.294 68.6913C142.72 64.8991 141.762 60.7723 140.419 56.3109C140.411 56.2853 140.405 56.2601 140.4 56.2354C140.425 56.2553 140.451 56.2744 140.478 56.2925C140.478 56.2926 140.478 56.2928 140.479 56.293C140.534 56.3301 140.594 56.3627 140.658 56.3881C140.683 56.3981 140.709 56.407 140.735 56.4145L141.369 57.7743M144.564 69.2513L143.594 61.3641M144.564 69.2513L144.247 68.8648C144.162 68.9347 144.116 68.9375 144.102 68.9374C144.09 68.9373 144.063 68.9347 144.019 68.9126M144.564 69.2513L144.068 69.3123L144.019 68.9126M143.594 61.3641L141.266 56.3685C141.172 56.4154 141.076 56.4389 140.981 56.4436C141.114 56.8904 141.244 57.334 141.369 57.7743M143.594 61.3641L143.098 61.4252L143.108 61.5037M143.594 61.3641L143.141 61.5754L143.108 61.5037M141.369 57.7743L143.108 61.5037M141.369 57.7743C142.473 61.6432 143.28 65.2576 143.788 68.6166L143.789 68.622L143.789 68.622C143.803 68.7202 143.842 68.7878 143.921 68.8493L143.922 68.8498C143.96 68.8798 143.993 68.8996 144.019 68.9126M140.59 55.7305L140.529 55.787C140.547 55.7676 140.568 55.7488 140.59 55.7305ZM140.59 55.7305L140.83 56.0195L141.019 55.9314C140.898 55.9753 140.755 55.9084 140.59 55.7305ZM143.108 61.5037L144.019 68.9126" stroke="white"/>
<path d="M138.147 56.7719C138.117 56.7999 138.081 56.8221 138.042 56.8371C138.042 56.8372 138.042 56.8372 138.042 56.8373L136.8 57.308L136.8 57.3083C136.72 57.3385 136.635 57.3358 136.563 57.3048C136.557 57.3022 136.551 57.2995 136.545 57.2966L138.227 56.6517C138.224 56.6597 138.221 56.6677 138.217 56.6756C138.201 56.711 138.177 56.7439 138.147 56.7719Z" stroke="white"/>
<path d="M166.048 58.7561L166.177 58.8237L164.625 61.4765L166.048 58.7561Z" stroke="white"/>
<mask id="path-70-inside-6_321_792" fill="white">
<path d="M139.941 62.7436C139.654 63.085 139.438 63.2785 139.292 63.324C139.272 61.5417 137.79 60.5652 137.879 59.2199C137.881 59.1557 137.905 59.0946 137.947 59.0468C137.99 58.9989 138.047 58.9672 138.111 58.9568C138.175 58.9465 138.241 58.9581 138.298 58.9898C138.355 59.0215 138.4 59.0714 138.425 59.1312L139.941 62.7436Z"/>
</mask>
<path d="M139.941 62.7436L140.707 63.3867L141.099 62.9194L140.863 62.3566L139.941 62.7436ZM139.292 63.324L138.292 63.3355L138.308 64.6793L139.591 64.2785L139.292 63.324ZM137.879 59.2199L138.877 59.2858L138.878 59.2691L138.878 59.2523L137.879 59.2199ZM138.425 59.1312L139.347 58.7442L139.346 58.7413L138.425 59.1312ZM139.175 62.1004C139.048 62.2518 138.956 62.3464 138.897 62.3995C138.868 62.4255 138.857 62.4319 138.864 62.4277C138.867 62.4257 138.912 62.3951 138.994 62.3695L139.591 64.2785C139.874 64.19 140.095 64.0114 140.231 63.89C140.388 63.7496 140.547 63.5767 140.707 63.3867L139.175 62.1004ZM140.292 63.3125C140.279 62.1373 139.774 61.246 139.413 60.6129C139.006 59.8972 138.856 59.5982 138.877 59.2858L136.881 59.1541C136.813 60.1869 137.36 61.0488 137.676 61.6032C138.039 62.2403 138.285 62.7284 138.292 63.3355L140.292 63.3125ZM138.878 59.2523C138.873 59.4187 138.81 59.5806 138.697 59.7083L137.197 58.3852C137 58.6087 136.889 58.8927 136.879 59.1876L138.878 59.2523ZM138.697 59.7083C138.584 59.8361 138.433 59.9176 138.271 59.9439L137.951 57.9698C137.662 58.0167 137.395 58.1617 137.197 58.3852L138.697 59.7083ZM138.271 59.9439C138.111 59.97 137.949 59.9401 137.812 59.8641L138.783 58.1155C138.532 57.9761 138.239 57.9229 137.951 57.9698L138.271 59.9439ZM137.812 59.8641C137.676 59.7882 137.567 59.6682 137.504 59.521L139.346 58.7413C139.233 58.4746 139.034 58.2548 138.783 58.1155L137.812 59.8641ZM137.503 59.5181L139.019 63.1305L140.863 62.3566L139.347 58.7442L137.503 59.5181Z" fill="white" mask="url(#path-70-inside-6_321_792)"/>
<path d="M140.322 67.4465C140.47 67.3251 140.57 67.1713 140.621 66.9979L140.764 67.5026C140.775 67.5433 140.789 67.5832 140.805 67.6219C140.596 67.5771 140.374 67.5717 140.151 67.5904L140.322 67.4465ZM141.657 68.2413C141.707 68.2454 141.758 68.2458 141.809 68.2423L141.799 68.3748C141.799 68.3749 141.799 68.375 141.799 68.3751C141.797 68.3946 141.794 68.4052 141.793 68.4093C141.793 68.4093 141.793 68.4094 141.793 68.4095C141.789 68.4123 141.779 68.4188 141.759 68.4266C141.752 68.4293 141.745 68.4319 141.737 68.4343C141.716 68.3678 141.689 68.3032 141.657 68.2413Z" stroke="white"/>
<path d="M136.177 66.6994L136.235 65.8107C136.274 65.8731 136.319 65.9329 136.37 65.99L136.37 65.99L136.375 65.996C136.571 66.2121 136.54 66.3058 136.527 66.342C136.5 66.415 136.41 66.5403 136.177 66.6994ZM136.745 65.6601C137.162 66.1188 137.133 66.5514 136.661 66.9581L136.745 65.6601Z" stroke="white"/>
<path d="M148.717 69.6138L147.957 69.5498L148.098 69.2341C148.11 69.2505 148.122 69.2665 148.134 69.2821C148.213 69.3819 148.313 69.4637 148.427 69.5221C148.518 69.5689 148.616 69.5999 148.717 69.6138ZM149.666 69.6938L148.817 69.6222L149.474 69.6551C149.703 69.6685 149.951 69.626 150.163 69.4671C150.321 69.3492 150.422 69.1945 150.484 69.031C150.498 69.1958 150.551 69.3679 150.677 69.518C150.74 69.5931 150.812 69.6514 150.887 69.6965L149.666 69.6938ZM150.668 66.6361C150.632 66.2702 150.567 65.9064 150.473 65.5447C150.472 65.5397 150.473 65.5346 150.476 65.5301C150.478 65.5247 150.482 65.5205 150.488 65.518C150.493 65.5155 150.499 65.515 150.505 65.5164C150.509 65.5175 150.513 65.5197 150.516 65.5227C150.558 65.5851 150.595 65.6468 150.629 65.7079C150.695 65.8428 150.721 65.9792 150.71 66.1255L150.668 66.6361Z" stroke="white"/>
<path d="M139.491 69.6138L134.806 69.0538L135.503 68.5212C136.668 68.371 137.997 68.7352 139.491 69.6138Z" fill="white"/>
<path d="M175.259 210.245C174.859 210.363 174.513 210.325 174.221 210.129C174.076 210.033 174.026 209.867 174.071 209.63L174.604 209.364C174.656 209.336 174.714 209.319 174.774 209.314C174.833 209.309 174.893 209.316 174.95 209.334C175.008 209.353 175.061 209.382 175.107 209.421C175.153 209.461 175.191 209.508 175.218 209.562C175.309 209.735 175.323 209.963 175.259 210.245Z" fill="white"/>
<rect x="5.5" y="145.5" width="98" height="3" rx="0.5" stroke="white"/>
<rect x="5.5" y="151.5" width="98" height="3" rx="0.5" stroke="white"/>
<rect x="5.5" y="158.5" width="98" height="3" rx="0.5" stroke="white"/>
<rect x="5.5" y="164.5" width="98" height="3" rx="0.5" stroke="white"/>
<rect x="5.5" y="171.5" width="98" height="3" rx="0.5" stroke="white"/>
<rect x="5.5" y="178.5" width="98" height="3" rx="0.5" stroke="white"/>
<rect x="5.5" y="184.5" width="98" height="3" rx="0.5" stroke="white"/>
<rect x="5.5" y="190.5" width="98" height="3" rx="0.5" stroke="white"/>
<rect x="5.5" y="197.5" width="98" height="3" rx="0.5" stroke="white"/>
<rect x="5.5" y="203.5" width="98" height="3" rx="0.5" stroke="white"/>
<rect x="5.5" y="209.5" width="98" height="3" rx="0.5" stroke="white"/>
<path d="M16.2209 259.5C16.0542 258.833 15.8209 257 16.2209 255C18.0542 244.167 21.7209 222.3 21.7209 221.5C21.7209 220.5 23.2209 219 27.2209 219H183.721H185.221C185.721 219.5 184.721 220.5 184.721 221L188.721 244C189.554 248.833 191.221 258.6 191.221 259C191.221 259.4 190.221 260.167 189.721 260.5C188.388 260.667 185.421 260.8 184.221 260C183.821 260 183.388 258.667 183.221 258C180.388 251 174.521 236.7 173.721 235.5C172.721 234 170.721 231 169.221 229.5C168.021 228.3 167.388 228 167.221 228H39.2209C38.8209 228 38.3875 228.667 38.2209 229C37.7209 230 36.6209 232.1 36.2209 232.5C35.7209 233 32.2209 235.5 31.7209 236C31.3209 236.4 29.8875 240.167 29.2209 242C27.0542 247.667 22.7209 259.1 22.7209 259.5C22.7209 260 20.2209 260 18.2209 260C16.6209 260 16.2209 259.667 16.2209 259.5Z" stroke="white"/>
<path d="M9 113H5C4.6 112.999 4.5 128.333 4.5 136C4.5 136.833 4.6 138.6 5 139C5.5 139.5 99 139 99.5 139C99.9 139 100 138.333 100 138V114.5C100 113.3 99.6667 112.667 99.5 112.5H69.5C68.3333 112.5 65.7 112.7 64.5 113.5C64 114 59 116 57.5 116.5H52C51 116.5 48.7 116.8 45.5 116C44 116 38.5 113.5 37.5 113C36.5 112.5 22 113 21.5 113H9Z" stroke="white"/>
<path d="M110.5 112.5H106.5C106.1 112.499 106 127.833 106 135.5C106 136.333 106.1 138.1 106.5 138.5C107 139 200.5 138.5 201 138.5C201.4 138.5 201.5 137.833 201.5 137.5V114C201.5 112.8 201.167 112.167 201 112H171C169.833 112 167.2 112.2 166 113C165.5 113.5 160.5 115.5 159 116H153.5C152.5 116 150.2 116.3 147 115.5C145.5 115.5 140 113 139 112.5C138 112 123.5 112.5 123 112.5H110.5Z" stroke="white"/>
<rect x="101.5" y="113.5" width="3" height="27" stroke="white"/>
<rect x="4.5" y="140.5" width="198" height="3" rx="1.5" stroke="white"/>
<rect x="105.5" y="146.5" width="96" height="69" stroke="white"/>
<path d="M134.706 69.5079C134.216 70.0159 134.216 70.0159 134.216 71.5397C134.053 76.619 133.824 88.0984 134.216 93.381C134.706 99.9841 138.333 99.6543 139.605 99.9841C141.565 100.492 145.158 100.661 147.934 101C149.894 101 158.222 101 160.182 100.492C161.607 100.122 166.061 98.9683 166.55 98.4603C167.04 97.9524 168.51 95.4127 168.51 93.8889C168.51 92.3651 169 74.5873 169 74.0794C169 73.673 168.347 71.5397 168.02 70.5238C167.53 70.1852 166.354 69.5079 165.571 69.5079C164.591 69.5079 154.303 70.5238 153.813 70.5238C153.323 70.5238 145.484 70.0159 144.505 70.0159C143.525 70.0159 136.176 69 135.686 69C135.196 69 135.196 69 134.706 69.5079Z" stroke="white"/>
<path d="M20 99V95H86.5H99.5C100.333 95.1667 102.1 95.5 102.5 95.5C102.9 95.5 102.667 97.8333 102.5 99C102.333 100 101.9 102.2 101.5 103C101 104 100.5 104.5 100 105C99.6 105.4 95.8333 105.5 94 105.5H90.5H77.8774H64H51.5H40.5H33.5L27.5 105C26.5 104.667 24.4 104 24 104C23.5 104 23.5 102.5 23 102C22.5 101.5 21 101 20.5 101C20.1 101 20 100.667 20 100.5V99Z" stroke="white"/>
<path d="M32 77.4982C29.8333 77.3315 25.1 77.0982 23.5 77.4982L22.5 78.5C22.3333 80.1667 21.8 84 21 86C20.2 88 19.3333 89.5 19 90L20 94H94C96.1667 94.1667 100.7 94.2 101.5 93C102.3 91.8 100.833 86.5 100 84L98.5 78L88 77C86.8333 77.5 84.2 78.6 83 79C81.8 79.4 75.8333 79.1667 73 79L56.5 78.5L32 77.4982Z" stroke="white"/>
<path d="M106.225 147.5H113.949C114.186 147.5 114.391 147.667 114.439 147.9L127.908 213.924C127.971 214.234 127.734 214.524 127.418 214.524H119.694C119.456 214.524 119.251 214.357 119.204 214.124L105.735 148.1C105.671 147.79 105.908 147.5 106.225 147.5Z" stroke="white"/>
<path d="M123.276 147.5H132.524C132.745 147.5 132.94 147.645 133.003 147.856L152.962 214.356C153.058 214.677 152.818 215 152.483 215H141.738C141.513 215 141.316 214.85 141.256 214.634L122.795 148.134C122.706 147.815 122.946 147.5 123.276 147.5Z" stroke="white"/>
<path d="M148.437 147.977H156.684C156.904 147.977 157.098 148.12 157.162 148.331L177.112 213.88C177.21 214.201 176.969 214.525 176.634 214.525H165.394C165.166 214.525 164.967 214.371 164.91 214.15L147.953 148.602C147.871 148.285 148.11 147.977 148.437 147.977Z" stroke="white"/>
<path d="M171.565 148.453H177.734C177.959 148.453 178.157 148.604 178.216 148.821L196.171 214.37C196.259 214.688 196.019 215.002 195.689 215.002H188.523C188.295 215.002 188.096 214.848 188.039 214.627L171.081 149.078C170.999 148.762 171.238 148.453 171.565 148.453Z" stroke="white"/>
</svg>
