<svg width="32" height="63" viewBox="0 0 32 63" fill="none" xmlns="http://www.w3.org/2000/svg">
<path d="M12.5182 61.4188C11.2895 56.7895 10.5863 52.0209 10.3917 47.2157C10.2944 44.8131 10.3397 42.406 10.5078 40.0152C10.6594 37.7474 10.9129 35.4763 11.372 33.2597C11.795 31.187 12.4432 29.1479 13.5264 27.3192C14.5326 25.6356 15.9152 24.2457 17.6591 23.3132C19.2827 22.4458 21.2078 22.0783 22.9966 22.5511C24.7644 23.0042 26.2712 24.22 27.3575 25.6735C28.6152 27.3865 29.2914 29.4036 29.6431 31.4719C30.042 33.7425 30.1176 36.105 30.0888 38.3894C30.0758 40.5304 29.8204 42.7405 28.7806 44.6494C27.9143 46.247 26.5304 47.5961 24.7301 48.0411C21.0088 48.9757 17.7444 45.7163 15.8608 42.9224C14.6839 41.1863 13.7666 39.2789 12.93 37.3485C12.0705 35.3373 11.3319 33.2814 10.7149 31.2012C9.4788 26.9798 8.68818 22.6626 8.16102 18.2962C7.63256 13.8891 7.3485 9.47406 7.1459 5.05647C7.09098 3.9777 7.0354 2.87856 7.00084 1.79913C6.97997 1.1474 5.96164 1.18 5.98251 1.83173C6.19163 6.45298 6.40009 11.0539 6.85295 15.6469C7.30517 20.2196 7.98141 24.7852 9.12283 29.2339C10.2419 33.6221 11.8472 37.9132 14.0333 41.88C15.0072 43.6429 16.2432 45.3158 17.7546 46.6742C19.1819 47.9537 20.9273 48.9783 22.8699 49.1608C24.8329 49.3426 26.7443 48.5474 28.1276 47.178C29.6094 45.7034 30.4627 43.6985 30.8048 41.6488C31.218 39.2706 31.0983 36.8076 30.9399 34.4069C30.7822 32.0267 30.4391 29.5911 29.4713 27.3795C28.6794 25.57 27.465 23.9371 25.8373 22.766C24.2096 21.5948 22.1948 21.0681 20.206 21.356C18.1969 21.6446 16.3525 22.6211 14.8668 23.9735C13.2614 25.4112 12.1599 27.3018 11.3881 29.304C10.5985 31.3885 10.1592 33.584 9.86298 35.7953C9.5339 38.2523 9.34803 40.7252 9.28502 43.2144C9.18 48.2127 9.6459 53.2131 10.6591 58.1144C10.9012 59.3096 11.1841 60.5034 11.5071 61.6755C11.7125 62.3621 12.702 62.0654 12.5182 61.4188Z" fill="white"/>
<path d="M1.1175 9.12562C2.19919 7.88813 3.21913 6.63224 4.2174 5.33626C4.70635 4.68859 5.19529 4.04092 5.66323 3.37354C5.89719 3.03985 6.15153 2.70552 6.38484 2.35146C6.5406 2.12221 6.71476 1.83121 6.97627 1.7209C6.79036 1.6453 6.58409 1.57035 6.39884 1.51512C7.77191 4.28463 9.16471 7.03311 10.5378 9.80262C10.6678 10.0431 11.016 10.0931 11.2361 9.96375C11.4963 9.81271 11.5273 9.5059 11.3972 9.26541C10.0242 6.49591 8.63137 3.74742 7.25829 0.977917C7.17031 0.776859 6.86155 0.684812 6.68086 0.772147C5.91476 1.04132 5.5138 1.89004 5.06493 2.51604C4.597 3.18342 4.08833 3.8521 3.59938 4.49977C2.56234 5.85815 1.4826 7.15674 0.381852 8.43562C-0.0505627 8.93876 0.685089 9.62877 1.1175 9.12562Z" fill="white"/>
</svg>
