<svg width="82" height="83" viewBox="0 0 82 83" fill="none" xmlns="http://www.w3.org/2000/svg">
<path d="M9.1312 79.6998C4.64928 75.6306 1.8613 69.7485 1.04549 63.8134C0.686025 61.0661 0.654746 58.3283 1.2251 55.6076C1.73607 53.0494 2.95808 50.5116 4.28166 48.2503C4.91454 47.1736 5.65527 46.1547 6.39441 45.1905C7.36015 43.9591 8.32588 42.7276 9.39788 41.6087C11.4841 39.4787 14.3141 38.1363 17.1301 37.2861C20.1117 36.386 23.2418 36.0375 26.3094 35.9608C29.7052 35.8936 33.2573 36.1045 36.5749 36.8561C40.0004 37.6656 43.2337 39.4548 45.1168 42.5193C46.7373 45.1931 46.8624 48.481 45.1981 51.1704C43.7058 53.5911 41.0852 55.2679 38.3833 55.9571C35.4063 56.6932 32.3574 56.1135 29.7196 54.5602C24.175 51.2817 21.0307 44.4589 20.1665 38.3034C19.7101 35.1155 19.807 31.7244 20.8805 28.6349C22.0697 25.3298 24.334 22.7122 27.3422 20.8822C30.5723 18.9491 34.2728 17.7958 37.8076 16.6924C41.619 15.4875 45.4805 14.4483 49.3888 13.6841C57.1523 12.0994 65.1128 11.2866 73.0514 11.2396C75.022 11.2412 76.9362 11.2959 78.9037 11.4068C80.6524 11.5115 80.5743 14.2462 78.8256 14.1415C64.0674 13.3916 49.2263 15.5406 35.2933 20.3977C32.2523 21.4603 28.9893 22.6262 26.5734 24.8015C24.4388 26.7112 23.2136 29.3584 22.8058 32.1385C22.3933 35.0826 22.6903 38.1018 23.4857 40.9162C24.2296 43.6197 25.411 46.3357 27.1535 48.575C28.8428 50.7581 31.0353 52.5724 33.7513 53.3068C35.9782 53.9178 38.5129 53.3333 40.5178 52.1316C42.4134 50.9267 43.7808 49.0499 43.7338 46.8589C43.6479 44.1195 41.4663 41.9224 39.1472 40.7066C36.1811 39.1439 32.5181 38.9846 29.2396 38.7815C26.5611 38.6503 23.8201 38.7909 21.126 39.2067C18.485 39.6786 15.8362 40.4241 13.4969 41.8353C11.2685 43.1948 9.67295 45.3936 8.08214 47.4283C6.60385 49.3567 5.50216 51.5148 4.61614 53.7885C3.7348 55.8982 3.51295 57.9173 3.50204 60.216C3.52087 65.3073 5.22897 70.6658 8.34039 74.8054C9.18427 75.9243 10.0875 76.8807 11.1002 77.8401C11.6331 78.348 11.5518 79.2763 11.0455 79.7545C10.4829 80.2858 9.66409 80.2077 9.1312 79.6998Z" fill="white"/>
<path d="M54.7101 26.699C60.9187 23.9751 66.8679 20.7512 72.6093 17.1381C74.0032 16.2474 75.4534 15.3035 76.7942 14.3565C77.2974 13.9876 77.9646 13.6235 78.3631 13.0875C78.6475 12.7125 78.5413 12.5999 78.1662 12.3155C77.6318 11.8623 77.0395 11.517 76.4472 11.1716C75.7487 10.7138 74.9939 10.3091 74.2391 9.90432C72.8389 9.09798 71.3809 8.39948 69.8666 7.7541C66.513 6.34458 62.9859 5.25852 59.448 4.55535C58.74 4.42566 58.329 3.48336 58.5666 2.83327C58.8072 2.07379 59.5276 1.76592 60.2886 1.95187C63.7719 2.65348 67.1912 3.6817 70.4901 5.08966C72.1669 5.79442 73.8421 6.55387 75.4048 7.41959C76.8597 8.22749 78.424 9.03852 79.7086 10.0605C81.1541 11.1966 81.762 12.9109 80.7306 14.5236C79.7587 15.9738 77.9803 16.9083 76.5848 17.8538C73.5157 19.901 70.3403 21.8357 67.1149 23.6047C63.5004 25.5816 59.8343 27.4475 56.065 29.0915C55.3993 29.401 54.5836 29.2135 54.2195 28.5462C53.7991 27.932 54.046 26.9538 54.7101 26.699Z" fill="white"/>
</svg>
