<svg width="424" height="182" viewBox="0 0 424 182" fill="none" xmlns="http://www.w3.org/2000/svg">
<path d="M230.225 138.462C230.527 138.548 230.852 138.487 231.102 138.298C231.353 138.109 231.5 137.814 231.5 137.5V120.5C231.5 120.215 231.379 119.944 231.166 119.754C230.954 119.565 230.671 119.474 230.388 119.506L190.388 124.006L190.376 124.008L166.386 127.006L142.59 129.485L82.2779 112.039C81.9759 111.952 81.6504 112.012 81.3991 112.201C81.1478 112.39 81 112.686 81 113V154C81 154.286 81.1223 154.558 81.3361 154.748C81.5499 154.938 81.8346 155.027 82.1185 154.993L170.118 144.493C170.128 144.492 170.137 144.491 170.147 144.489L183.647 142.489C183.654 142.488 183.661 142.487 183.668 142.486C183.673 142.485 183.677 142.484 183.682 142.483C188.175 141.651 195.29 140.403 202.028 139.363C208.8 138.318 215.093 137.5 218 137.5C224.004 137.5 228.042 137.838 230.225 138.462Z" stroke="white" stroke-width="2" stroke-linejoin="round"/>
<path d="M18.4282 76.5026C17.9374 76.5379 17.5452 76.9251 17.5036 77.4154C17.462 77.9057 17.7832 78.3535 18.2611 78.471L144.261 109.471C144.373 109.499 144.488 109.507 144.603 109.495L421.103 80.9947C421.605 80.943 421.99 80.525 422 80.0203C422.01 79.5156 421.643 79.0824 421.143 79.0103L275.643 58.0103C275.572 58 275.5 57.9974 275.428 58.0026L18.4282 76.5026Z" stroke="white" stroke-width="2" stroke-linejoin="round"/>
<path d="M143.396 109.505C142.898 109.557 142.514 109.971 142.5 110.472L142 128.472C141.992 128.762 142.111 129.042 142.325 129.238C142.539 129.434 142.827 129.527 143.116 129.493L422.116 96.9933C422.62 96.9346 423 96.5075 423 96V81.5C423 81.2168 422.88 80.9468 422.669 80.7572C422.459 80.5676 422.178 80.476 421.896 80.5054L143.396 109.505Z" stroke="white" stroke-width="2" stroke-linejoin="round"/>
<path d="M18.2453 77.5305C17.9337 77.4517 17.6031 77.5275 17.357 77.7342C17.1108 77.9409 16.979 78.2533 17.0027 78.5739L18.0027 92.0739C18.0335 92.4887 18.3177 92.8411 18.7166 92.959L142.217 129.459C142.519 129.548 142.846 129.49 143.099 129.301C143.351 129.112 143.5 128.815 143.5 128.5V110C143.5 109.542 143.189 109.143 142.745 109.031L18.2453 77.5305Z" stroke="white" stroke-width="2" stroke-linejoin="round"/>
<path d="M71.229 98.5266C70.9317 98.4566 70.6186 98.5264 70.3791 98.7161C70.1396 98.9058 70 99.1945 70 99.5V151C70 151.436 70.2828 151.822 70.6989 151.954L80.1989 154.954C80.5059 155.051 80.8409 154.994 81.0988 154.801C81.3567 154.608 81.506 154.303 81.4998 153.981L80.4998 101.481C80.4911 101.024 80.1738 100.631 79.729 100.527L71.229 98.5266Z" stroke="white" stroke-width="2" stroke-linejoin="round"/>
<path d="M232.389 119.006C231.883 119.063 231.5 119.491 231.5 120V138C231.5 138.449 231.799 138.842 232.231 138.963L291.231 155.463C291.536 155.548 291.864 155.484 292.114 155.289C292.364 155.095 292.507 154.793 292.5 154.476L291.5 113.476C291.493 113.195 291.369 112.931 291.157 112.746C290.946 112.562 290.667 112.475 290.389 112.506L232.389 119.006Z" stroke="white" stroke-width="2" stroke-linejoin="round"/>
<path d="M292.363 112.509C291.864 112.578 291.494 113.008 291.5 113.512L292 154.512C292.004 154.81 292.14 155.09 292.371 155.277C292.602 155.464 292.904 155.539 293.196 155.481L305.696 152.981C306.15 152.89 306.482 152.5 306.499 152.037L307.999 111.537C308.01 111.242 307.89 110.957 307.671 110.758C307.452 110.56 307.156 110.469 306.863 110.509L292.363 112.509Z" stroke="white" stroke-width="2" stroke-linejoin="round"/>
<path d="M308.882 110.507C308.394 110.565 308.02 110.97 308.001 111.462L307.501 124.462C307.489 124.756 307.608 125.04 307.826 125.238C308.043 125.437 308.337 125.53 308.629 125.492L347.129 120.492C347.627 120.427 348 120.002 348 119.5V107C348 106.714 347.878 106.442 347.664 106.252C347.451 106.063 347.166 105.973 346.882 106.007L308.882 110.507Z" stroke="white" stroke-width="2" stroke-linejoin="round"/>
<path d="M221.282 33.683L221.283 33.6827C221.638 33.2798 222.148 33.2244 222.598 33.2578C222.827 33.2748 223.058 33.3159 223.268 33.3573C223.323 33.3681 223.377 33.3789 223.428 33.3893C223.579 33.4198 223.715 33.4472 223.84 33.4655C223.841 33.4655 223.841 33.4655 223.841 33.4655L221.282 33.683ZM221.282 33.683C220.616 34.4402 220.736 35.4526 221.21 36.4552C221.688 37.4654 222.559 38.5497 223.556 39.5521C224.557 40.5573 225.698 41.4942 226.733 42.2081C227.25 42.5652 227.744 42.8684 228.182 43.097C228.616 43.3236 229.01 43.4848 229.326 43.5457L229.328 43.5462M221.282 33.683L229.328 43.5462M229.328 43.5462C229.423 43.5637 229.522 43.553 229.612 43.515L229.514 43.2848M229.328 43.5462L229.514 43.2848M229.514 43.2848L229.612 43.515C229.701 43.4772 229.778 43.4138 229.831 43.3325M229.514 43.2848L223.931 33.4466M229.831 43.3325C229.831 43.3328 229.831 43.3331 229.831 43.3334L229.623 43.1944L229.832 43.3316C229.832 43.3319 229.831 43.3322 229.831 43.3325ZM229.831 43.3325C230.089 42.9479 230.384 42.7121 230.713 42.5997C231.044 42.487 231.436 42.4892 231.902 42.631M231.902 42.631C231.902 42.631 231.902 42.631 231.902 42.631L231.975 42.3918L231.902 42.631ZM231.902 42.631C232.172 42.7132 232.417 42.7345 232.629 42.675C232.85 42.6128 233.007 42.47 233.104 42.2845C233.197 42.107 233.234 41.8959 233.24 41.6824C233.247 41.4665 233.223 41.2306 233.182 40.9914C233.017 40.044 232.548 38.929 232.323 38.5068C232.253 38.3714 232.142 38.2736 232 38.219C231.179 37.9015 230.188 37.2671 229.445 36.4656C228.698 35.6601 228.239 34.7292 228.379 33.8095C228.393 33.7177 228.382 33.6237 228.345 33.5381C228.308 33.4533 228.248 33.3803 228.171 33.3279C227.744 33.0324 227.182 32.7452 226.594 32.5953C226.008 32.446 225.368 32.4264 224.807 32.7071M224.807 32.7071C224.807 32.707 224.808 32.7069 224.808 32.7068L224.919 32.9309L224.807 32.7074C224.807 32.7073 224.807 32.7072 224.807 32.7071ZM224.807 32.7071C224.613 32.8036 224.454 32.9624 224.324 33.0941L224.302 33.117C224.172 33.249 224.06 33.3621 223.931 33.4466M223.931 33.4466C223.932 33.4464 223.932 33.4461 223.932 33.4459L224.066 33.6571L223.93 33.4476C223.93 33.4473 223.931 33.4469 223.931 33.4466ZM266.463 67.639L266.462 67.6393C264.835 68.1979 263.216 68.8101 261.609 69.4227C261.446 69.4849 261.283 69.5471 261.12 69.6093C259.678 70.1597 258.246 70.7061 256.822 71.2123L256.822 71.2123C255.308 71.7517 253.771 72.3484 252.26 72.937L252.004 73.0364C250.581 73.5913 249.184 74.1357 247.851 74.6172C241.81 76.7983 235.794 79.0784 229.78 81.358C224.992 83.1729 220.205 84.9873 215.407 86.7511L215.407 86.7511C214.651 87.0291 213.914 86.9113 213.251 86.5598C212.584 86.2058 211.999 85.6176 211.577 84.9781L211.368 85.1159L211.577 84.9781C210.913 83.9725 210.179 82.9695 209.459 81.9913L209.33 81.817C208.654 80.8979 207.994 80.0024 207.416 79.1406C206.5 77.7741 205.578 76.4124 204.648 75.0557C204.574 74.946 204.47 74.8596 204.349 74.8062C203.974 74.6358 203.709 74.3563 203.548 73.9539C203.494 73.8192 203.409 73.7049 203.296 73.6139L203.296 73.6137C202.982 73.3617 202.691 72.9865 202.43 72.4748L202.43 72.4743C202.111 71.8548 201.64 71.2299 201.163 70.6299C201.049 70.4867 200.934 70.3451 200.822 70.2051C200.455 69.7506 200.102 69.3126 199.811 68.8896C199.606 68.5898 199.377 68.2867 199.15 67.987C199.029 67.8262 198.908 67.6664 198.792 67.5086C198.453 67.0482 198.144 66.59 197.921 66.1143C197.731 65.7065 197.541 65.3661 197.352 65.0974C187.627 51.3071 177.929 37.4972 168.258 23.6677L168.258 23.6677C165.499 19.723 162.762 15.7636 160.048 11.7895C159.908 11.5835 159.812 11.3277 159.699 11.0234C159.691 11.004 159.684 10.9843 159.677 10.9645C159.584 10.7183 159.48 10.4477 159.329 10.19C159.704 9.96185 160.068 9.82532 160.419 9.77288C164.057 9.24597 170.007 8.45536 178.272 7.40095C196.851 5.03719 215.429 2.67245 234.006 0.306733C235.25 0.148732 235.968 0.327397 236.572 0.755192C236.882 0.975239 237.173 1.26834 237.492 1.64041C237.706 1.88971 237.926 2.16648 238.171 2.47499C238.295 2.63001 238.424 2.79305 238.563 2.96464L238.563 2.96476C239.594 4.24042 240.365 5.20719 240.877 5.8658C254.793 23.8138 268.758 41.7236 282.772 59.5951L282.772 59.5953C283.156 60.0834 283.296 60.6032 283.207 61.1692L283.207 61.1724C283.2 61.22 283.182 61.2608 283.148 61.2997L282.328 62.2427L267.058 67.9962C267.043 67.9365 267.018 67.8795 266.985 67.826C266.936 67.7476 266.863 67.6735 266.759 67.636C266.654 67.5985 266.55 67.6092 266.463 67.639ZM222.924 32.6047L223.119 32.4473L222.924 32.6048C223.038 32.7447 223.166 32.8619 223.306 32.9362C223.448 33.0115 223.611 33.0467 223.775 33.0019C223.938 32.9571 224.061 32.8438 224.144 32.7068C224.227 32.5716 224.278 32.4055 224.304 32.2272C224.331 32.0474 224.334 31.8477 224.316 31.6401C224.298 31.432 224.259 31.2163 224.201 31.0046C224.143 30.7929 224.067 30.5873 223.976 30.399C223.886 30.2111 223.782 30.0408 223.667 29.8995C223.554 29.7596 223.426 29.6424 223.286 29.5681C223.144 29.4928 222.981 29.4575 222.817 29.5024C222.653 29.5472 222.531 29.6605 222.447 29.7975C222.365 29.9327 222.314 30.0988 222.288 30.277C222.261 30.4569 222.258 30.6566 222.276 30.8642C222.294 31.0723 222.333 31.288 222.391 31.4996C222.449 31.7113 222.525 31.917 222.615 32.1053C222.705 32.2932 222.81 32.4635 222.924 32.6047Z" stroke="white" stroke-width="0.5"/>
<path d="M159.636 12.0722L159.636 12.0721C159.459 11.8135 159.343 11.5017 159.236 11.2137C159.227 11.1891 159.218 11.1647 159.209 11.1405C159.126 10.9197 159.044 10.7092 158.939 10.5155C158.726 10.7588 158.614 11.0032 158.583 11.2481C158.543 11.5651 158.634 11.9241 158.897 12.3342L158.897 12.3344C159.811 13.7612 161.862 16.7206 165.056 21.2179C173.815 33.5428 182.54 45.8921 191.231 58.2659L191.232 58.267C191.366 58.4603 191.381 58.6804 191.321 58.8985L193.346 61.8801L193.347 61.8825L198.902 69.8641L198.902 69.8651L206.019 79.9858C206.131 80.0925 206.213 80.2187 206.26 80.3631L207.594 82.2426L207.595 82.2436L209.039 84.2577L209.04 84.2594L210.882 86.7823C210.882 86.7823 210.882 86.7824 210.882 86.7824C210.901 86.8081 210.915 86.8218 210.924 86.8288C210.933 86.8234 210.949 86.813 210.97 86.7935L211.139 86.9776L210.97 86.7935L211.258 86.5289L211.26 86.5277C211.339 86.4562 211.452 86.3887 211.593 86.3973C211.734 86.406 211.837 86.4869 211.906 86.5689C211.955 86.6257 212.005 86.6559 212.056 86.6706C212.109 86.686 212.179 86.6894 212.275 86.6667L212.279 86.6659C212.343 86.6516 212.409 86.6493 212.473 86.6582C211.951 86.2722 211.503 85.7741 211.16 85.2543C210.504 84.2608 209.777 83.2675 209.056 82.2884L208.926 82.1115C208.251 81.1949 207.586 80.2912 207.001 79.42L207.001 79.4198C206.086 78.0544 205.164 76.6939 204.236 75.3383L204.235 75.3369C204.213 75.3052 204.183 75.2799 204.148 75.2643L204.145 75.2631C203.647 75.0375 203.291 74.6586 203.084 74.1403L203.084 74.1395C203.063 74.0865 203.03 74.0422 202.983 74.0041L203.14 73.8094M203.14 73.8094L202.983 74.0042C202.599 73.6958 202.268 73.2575 201.985 72.703M203.14 73.8094C202.791 73.5291 202.48 73.1224 202.208 72.5893M203.14 73.8094C203.22 73.874 203.279 73.9534 203.316 74.0475C203.5 74.5081 203.811 74.8374 204.248 75.0353C204.327 75.0699 204.394 75.126 204.442 75.197C205.371 76.5534 206.293 77.9146 207.209 79.2807C207.79 80.1471 208.453 81.0467 209.128 81.9645C209.89 82.9992 210.669 84.0571 211.369 85.1166C212.248 86.4484 213.824 87.6009 215.493 86.9864L215.58 87.2211M201.985 72.703L202.208 72.5893M201.985 72.703C201.985 72.7032 201.985 72.7033 201.985 72.7035L202.208 72.5893M201.985 72.703C201.692 72.132 201.249 71.5413 200.772 70.942C200.663 70.8053 200.552 70.668 200.441 70.5306C200.072 70.0729 199.702 69.6138 199.4 69.1734L199.399 69.1731C199.2 68.8818 198.984 68.5966 198.763 68.3039C198.639 68.1409 198.514 67.9755 198.389 67.8055C198.046 67.3383 197.713 66.8484 197.468 66.3274L197.468 66.3268C197.286 65.9352 197.111 65.6231 196.944 65.3863L196.944 65.3863C187.218 51.5954 177.52 37.785 167.849 23.955L168.054 23.8117C177.724 37.6415 187.422 51.4516 197.148 65.2422C197.326 65.495 197.509 65.8214 197.695 66.2212C198.011 66.8956 198.488 67.5256 198.957 68.1458C199.181 68.4422 199.403 68.7362 199.606 69.0319C199.902 69.4635 200.264 69.9121 200.632 70.3682C201.223 71.1018 201.831 71.855 202.208 72.5893M215.58 87.2211C214.942 87.4559 214.317 87.4532 213.739 87.2928L214.145 87.5084C214.393 87.6033 214.587 87.6053 214.743 87.5484C227.62 82.8412 244.893 76.3863 266.564 68.1836C266.572 68.1641 266.574 68.1498 266.575 68.1403C266.576 68.1368 266.576 68.1334 266.575 68.1299C264.974 68.6809 263.378 69.2842 261.788 69.8906C261.625 69.9527 261.462 70.0149 261.299 70.0771C259.857 70.6272 258.419 71.1758 256.99 71.6841C255.484 72.2207 253.953 72.8148 252.442 73.4036L252.184 73.5038C250.762 74.058 249.36 74.6045 248.021 75.0882L248.021 75.0882C241.978 77.2702 235.973 79.5461 229.966 81.8231C225.179 83.6375 220.391 85.4525 215.58 87.2211Z" stroke="white" stroke-width="0.5"/>
<path d="M223.643 32.5202C223.63 32.5235 223.599 32.5272 223.538 32.4939C223.475 32.4597 223.397 32.3944 223.313 32.2903C223.145 32.0829 222.981 31.7595 222.874 31.3682C222.767 30.977 222.743 30.6152 222.782 30.351C222.802 30.2185 222.836 30.1226 222.872 30.0613C222.908 30.0015 222.937 29.9885 222.949 29.9852C222.962 29.9818 222.993 29.9781 223.054 30.0115C223.117 30.0456 223.195 30.111 223.279 30.215C223.447 30.4224 223.611 30.7459 223.718 31.1371C223.825 31.5283 223.849 31.8902 223.81 32.1544C223.79 32.2869 223.756 32.3827 223.72 32.444C223.684 32.5039 223.655 32.5168 223.643 32.5202Z" stroke="white" stroke-width="0.5"/>
<path d="M226.471 33.08C226.989 33.2121 227.496 33.4693 227.885 33.7377C227.712 34.8747 228.287 35.952 229.078 36.8059C229.875 37.6648 230.93 38.3416 231.82 38.6856L231.82 38.6856C231.851 38.6974 231.866 38.7126 231.879 38.7369L231.879 38.7369L231.881 38.7408C232.088 39.1286 232.536 40.1946 232.689 41.0774C232.727 41.296 232.746 41.4961 232.741 41.6672C232.735 41.8407 232.706 41.9677 232.661 42.0525C232.621 42.1291 232.569 42.1727 232.494 42.1939C232.408 42.2179 232.268 42.2198 232.048 42.1529L232.048 42.1528C231.508 41.9888 231.006 41.972 230.552 42.1268C230.098 42.2817 229.721 42.5993 229.416 43.0542C229.172 43.0063 228.83 42.8717 228.413 42.654C227.998 42.4372 227.522 42.1455 227.017 41.7969C226.007 41.0995 224.889 40.1822 223.911 39.1996C222.93 38.2142 222.105 37.1771 221.662 36.2417C221.217 35.2987 221.194 34.5413 221.658 34.0137C221.855 33.7905 222.16 33.7269 222.562 33.7567C222.759 33.7713 222.965 33.8074 223.172 33.8481C223.22 33.8576 223.269 33.8676 223.319 33.8775C223.473 33.9087 223.629 33.9401 223.769 33.9605L223.769 33.9605C223.919 33.9824 224.072 33.9497 224.2 33.8684L224.2 33.8684L224.203 33.8667C224.38 33.7512 224.528 33.6006 224.65 33.4762C224.661 33.4658 224.671 33.4555 224.681 33.4455C224.819 33.3054 224.922 33.2087 225.03 33.1552L225.03 33.1552L225.031 33.1546C225.444 32.9476 225.949 32.9471 226.471 33.08Z" stroke="white" stroke-width="0.5"/>
<path d="M192.773 61.9284L190.945 59.2368C190.513 59.3881 190.08 59.5421 189.648 59.6963C188.038 60.2698 186.425 60.8443 184.785 61.2812C180.945 62.3068 177.093 63.2863 173.228 64.2197C168.594 65.3395 157.765 68.2996 140.735 73.102L140.735 73.102C140.662 73.1226 140.598 73.1555 140.542 73.2012C140.558 73.195 140.574 73.1893 140.59 73.1842C140.681 73.1556 140.777 73.1475 140.872 73.1605L140.878 73.1613L140.878 73.1614C140.948 73.1728 141.01 73.2062 141.043 73.2252C141.074 73.243 141.109 73.2649 141.138 73.2835C141.145 73.2877 141.151 73.2917 141.157 73.2955C141.235 73.3448 141.284 73.371 141.318 73.3793C146.712 74.5996 152.071 75.7625 157.392 76.8679C157.709 76.2991 158.104 75.8751 158.582 75.6166L158.583 75.6166C162.111 73.7145 166.049 72.2254 169.968 70.744C170.582 70.5118 171.195 70.2798 171.807 70.0465C171.807 70.0465 171.807 70.0465 171.807 70.0464L171.896 70.28C173.572 69.6397 175.321 69.0292 177.156 68.3889C180.072 67.3711 183.204 66.2781 186.599 64.8704L192.773 61.9284ZM192.773 61.9284C191.71 62.4544 190.626 62.9403 189.522 63.3861L189.522 63.386L189.514 63.3895C189.514 63.3892 189.512 63.3904 189.505 63.3932C189.497 63.3964 189.485 63.4016 189.466 63.4093L189.321 63.4698L188.752 63.7061L186.503 64.6395L192.773 61.9284Z" stroke="white" stroke-width="0.5"/>
<mask id="path-14-inside-1_310_21" fill="white">
<path d="M193.141 62.0234L198.697 70.0085L178.873 76.1884C178.844 76.1973 178.818 76.2125 178.796 76.2328C178.774 76.2532 178.756 76.2782 178.745 76.306C178.734 76.3339 178.729 76.3639 178.731 76.3939C178.732 76.4238 178.741 76.4531 178.755 76.4794C178.812 76.5813 178.934 76.6401 179.123 76.6558L179.129 76.7705C179.13 76.8646 179.085 76.9155 178.993 76.9234C178.05 77.0086 177.306 77.4878 176.418 77.5055C175.598 77.5202 174.607 78.164 173.804 78.4228C172.566 78.8197 171.823 79.1019 170.826 79.4282C170.783 79.4418 170.746 79.4687 170.719 79.5051C170.692 79.5415 170.677 79.5855 170.676 79.6311L170.67 79.9457L157.525 77.1497C157.841 76.5265 158.233 76.0884 158.701 75.8356C162.764 73.6453 167.374 72.0047 171.896 70.279C176.236 68.6208 181.069 67.1626 186.599 64.8694C188.592 64.0422 189.598 63.6248 189.615 63.6169C190.815 63.1328 191.99 62.6016 193.141 62.0234Z"/>
</mask>
<path d="M193.141 62.0234L193.551 61.7378L193.303 61.382L192.916 61.5767L193.141 62.0234ZM198.697 70.0085L198.846 70.4858L199.497 70.2828L199.108 69.7229L198.697 70.0085ZM178.873 76.1884L179.021 76.6657L179.022 76.6657L178.873 76.1884ZM178.755 76.4794L178.317 76.7195L178.318 76.7229L178.755 76.4794ZM179.123 76.6558L179.622 76.6302L179.6 76.1938L179.164 76.1575L179.123 76.6558ZM179.129 76.7705L179.628 76.7601L179.628 76.7525L179.628 76.7449L179.129 76.7705ZM178.993 76.9234L178.951 76.4251L178.948 76.4254L178.993 76.9234ZM176.418 77.5055L176.427 78.0054L176.428 78.0054L176.418 77.5055ZM173.804 78.4228L173.957 78.8989L173.958 78.8986L173.804 78.4228ZM170.826 79.4282L170.977 79.905L170.982 79.9034L170.826 79.4282ZM170.676 79.6311L171.176 79.6404L171.176 79.64L170.676 79.6311ZM170.67 79.9457L170.566 80.4347L171.159 80.5608L171.17 79.955L170.67 79.9457ZM157.525 77.1497L157.079 76.9239L156.786 77.5036L157.421 77.6388L157.525 77.1497ZM158.701 75.8356L158.464 75.3954L158.464 75.3956L158.701 75.8356ZM171.896 70.279L172.074 70.7461L172.075 70.746L171.896 70.279ZM186.599 64.8694L186.791 65.3312L186.791 65.3312L186.599 64.8694ZM189.615 63.6169L189.428 63.1533L189.42 63.1565L189.412 63.16L189.615 63.6169ZM192.73 62.309L198.287 70.2941L199.108 69.7229L193.551 61.7378L192.73 62.309ZM198.548 69.5311L178.724 75.711L179.022 76.6657L198.846 70.4858L198.548 69.5311ZM178.724 75.711C178.625 75.7419 178.533 75.7946 178.457 75.8651L179.134 76.6006C179.102 76.6304 179.063 76.6526 179.021 76.6657L178.724 75.711ZM178.457 75.8651C178.38 75.9356 178.32 76.0223 178.281 76.1187L179.209 76.4933C179.192 76.5341 179.167 76.5707 179.134 76.6006L178.457 75.8651ZM178.281 76.1187C178.242 76.2152 178.225 76.3191 178.231 76.423L179.23 76.3647C179.232 76.4086 179.225 76.4526 179.209 76.4933L178.281 76.1187ZM178.231 76.423C178.237 76.5269 178.267 76.6282 178.317 76.7194L179.194 76.2394C179.215 76.2779 179.227 76.3207 179.23 76.3647L178.231 76.423ZM178.318 76.7229C178.497 77.0429 178.832 77.1333 179.081 77.1541L179.164 76.1575C179.138 76.1554 179.121 76.1522 179.11 76.1497C179.1 76.1473 179.1 76.1462 179.106 76.1492C179.113 76.1524 179.127 76.1602 179.144 76.1754C179.161 76.1911 179.178 76.2115 179.192 76.2359L178.318 76.7229ZM178.623 76.6814L178.629 76.7961L179.628 76.7449L179.622 76.6302L178.623 76.6814ZM178.629 76.7809C178.628 76.7508 178.634 76.6475 178.722 76.548C178.811 76.447 178.916 76.4281 178.951 76.4252L179.036 77.4216C179.163 77.4107 179.336 77.3625 179.471 77.2105C179.604 77.06 179.631 76.8842 179.628 76.7601L178.629 76.7809ZM178.948 76.4254C178.411 76.4739 177.935 76.6349 177.532 76.7635C177.113 76.8975 176.77 76.9984 176.408 77.0056L176.428 78.0054C176.954 77.9949 177.426 77.8474 177.837 77.716C178.264 77.5793 178.632 77.4581 179.038 77.4213L178.948 76.4254ZM176.409 77.0056C175.89 77.0148 175.357 77.2183 174.906 77.4138C174.414 77.6267 174.022 77.8273 173.651 77.9469L173.958 78.8986C174.389 78.7595 174.894 78.5088 175.303 78.3314C175.753 78.1366 176.125 78.0108 176.427 78.0054L176.409 77.0056ZM173.651 77.9466C173.027 78.1468 172.528 78.318 172.061 78.4794C171.594 78.641 171.164 78.7915 170.67 78.9531L170.982 79.9034C171.485 79.7386 171.925 79.5848 172.388 79.4245C172.852 79.2639 173.343 79.0956 173.957 78.8989L173.651 77.9466ZM170.675 78.9515C170.531 78.9971 170.406 79.0872 170.317 79.2079L171.121 79.8023C171.085 79.8501 171.035 79.8865 170.977 79.9049L170.675 78.9515ZM170.317 79.2079C170.227 79.3284 170.179 79.4734 170.176 79.6222L171.176 79.64C171.175 79.6977 171.156 79.7545 171.121 79.8023L170.317 79.2079ZM170.176 79.6217L170.17 79.9363L171.17 79.955L171.176 79.6404L170.176 79.6217ZM170.774 79.4566L157.629 76.6607L157.421 77.6388L170.566 80.4347L170.774 79.4566ZM157.971 77.3756C158.255 76.8152 158.584 76.4669 158.939 76.2756L158.464 75.3956C157.881 75.7099 157.427 76.2378 157.079 76.9239L157.971 77.3756ZM158.939 76.2757C162.965 74.105 167.535 72.4787 172.074 70.7461L171.718 69.8118C167.214 71.5307 162.564 73.1855 158.464 75.3954L158.939 76.2757ZM172.075 70.746C176.356 69.1102 181.268 67.6214 186.791 65.3312L186.408 64.4075C180.87 66.7037 176.115 68.1314 171.718 69.8119L172.075 70.746ZM186.791 65.3312C188.777 64.5071 189.793 64.085 189.819 64.0738L189.412 63.16C189.415 63.1587 189.359 63.182 189.225 63.2379C189.097 63.291 188.908 63.3698 188.656 63.4741C188.154 63.6828 187.404 63.994 186.407 64.4075L186.791 65.3312ZM189.803 64.0806C191.015 63.5914 192.202 63.0546 193.365 62.4702L192.916 61.5767C191.778 62.1487 190.615 62.6742 189.428 63.1533L189.803 64.0806Z" fill="white" mask="url(#path-14-inside-1_310_21)"/>
<path d="M277.389 64.6367L266.826 68.6169L277.389 64.6367ZM277.389 64.6367C277.264 64.8231 277.199 65.0435 277.204 65.2681C277.204 65.2684 277.204 65.2687 277.204 65.269L277.224 66.5633L275.852 67.1699L275.904 66.1657L275.904 66.1646L275.654 66.1516M277.389 64.6367L275.39 65.8313C275.44 65.8381 275.488 65.8574 275.529 65.8875C275.571 65.9176 275.604 65.9575 275.625 66.0037C275.647 66.0498 275.657 66.1007 275.654 66.1516M275.654 66.1516L275.595 67.2831L275.654 66.1516ZM275.151 65.6151C258.983 71.7636 242.801 77.9072 226.606 84.0459C225.35 84.5209 223.636 85.2124 221.465 86.1198L221.33 85.9546C221.33 85.9543 221.329 85.9541 221.329 85.9538C221.271 85.8824 221.193 85.8212 221.092 85.7932C221.064 85.7854 221.036 85.7808 221.009 85.7787C233.095 81.3245 248.368 75.6039 266.825 68.617L275.151 65.6151ZM213.973 87.9761C214.211 88.0661 214.445 88.1035 214.669 88.0753L213.979 88.33L213.6 87.9967C213.673 87.9622 213.788 87.9448 213.973 87.9761ZM213.525 88.0512C213.525 88.0512 213.525 88.051 213.525 88.0505L213.525 88.0512Z" stroke="white" stroke-width="0.5"/>
<path d="M282.034 63.2212C282.021 63.6195 281.937 63.9499 281.791 64.2196C281.607 64.56 281.314 64.8235 280.896 65.0069L280.896 65.007C279.57 65.59 278.512 66.0408 277.721 66.3599L277.704 65.2612L277.704 65.2612L277.704 65.2601C277.701 65.1368 277.737 65.0158 277.806 64.9138C277.876 64.8119 277.975 64.7341 278.091 64.6911L278.091 64.691L282.034 63.2212Z" stroke="white" stroke-width="0.5"/>
<path d="M229.774 85.0956L229.774 85.0957C227.07 86.1446 224.357 87.1557 221.637 88.129C221.636 88.0441 221.609 87.9612 221.56 87.8914C221.508 87.8172 221.433 87.7619 221.347 87.7337C221.261 87.7055 221.168 87.7059 221.082 87.735L221.082 87.7349L221.075 87.7373L213.317 90.6008L213.316 90.601C213.174 90.6538 213.118 90.6338 213.103 90.6254C213.088 90.617 213.041 90.5804 213.01 90.4313C212.896 89.8872 212.914 89.3576 213.061 88.8391L213.919 88.8656L213.967 88.8671L214.013 88.8502L220.956 86.2859L221.086 86.4453L221.086 86.446C221.149 86.5218 221.233 86.5858 221.341 86.6128C221.448 86.6397 221.552 86.6231 221.643 86.5869L221.643 86.587L221.646 86.5855C223.821 85.6764 225.533 84.9858 226.783 84.513L226.783 84.5129C242.979 78.3742 259.161 72.2305 275.329 66.082L275.329 66.0818C275.338 66.0785 275.348 66.0774 275.357 66.0786C275.366 66.0799 275.375 66.0834 275.382 66.0889C275.39 66.0944 275.396 66.1016 275.4 66.11L275.4 66.1101C275.404 66.1184 275.406 66.1277 275.405 66.137L275.405 66.1381L275.34 67.3881C260.163 73.3052 244.974 79.2077 229.774 85.0956Z" stroke="white" stroke-width="0.5"/>
<mask id="path-19-inside-2_310_21" fill="white">
<path d="M198.697 70.0078L205.829 80.1508L203.736 80.8652C203.65 80.8946 203.636 80.9436 203.695 81.0122C203.769 81.1004 203.862 81.1367 203.974 81.121C204.582 81.0289 205.268 80.8133 206.032 80.4742L207.39 82.3881L182.592 77.3255L179.122 76.6551C178.934 76.6395 178.812 76.5807 178.755 76.4787C178.74 76.4524 178.732 76.4232 178.73 76.3932C178.729 76.3632 178.734 76.3332 178.745 76.3054C178.756 76.2775 178.773 76.2525 178.795 76.2322C178.817 76.2118 178.844 76.1966 178.872 76.1877L198.697 70.0078ZM198.099 71.3545C198.091 71.3256 198.05 71.3063 197.979 71.2977C197.908 71.2891 197.808 71.2914 197.685 71.3045C197.563 71.3176 197.419 71.3412 197.263 71.374C197.107 71.4068 196.941 71.448 196.776 71.4955C196.441 71.5914 196.127 71.7065 195.903 71.8156C195.678 71.9248 195.562 72.0189 195.578 72.0774C195.587 72.1063 195.627 72.1256 195.698 72.1342C195.77 72.1428 195.869 72.1405 195.992 72.1274C196.115 72.1143 196.259 72.0907 196.415 72.0579C196.571 72.0252 196.737 71.9839 196.902 71.9364C197.236 71.8405 197.55 71.7254 197.775 71.6163C197.999 71.5071 198.116 71.413 198.099 71.3545ZM192.488 73.0862C192.473 73.0274 192.424 72.9799 192.352 72.9543C192.281 72.9286 192.192 72.9269 192.106 72.9494C192.063 72.9606 192.023 72.9774 191.986 72.9989C191.95 73.0203 191.919 73.046 191.894 73.0745C191.869 73.103 191.852 73.1338 191.842 73.1649C191.833 73.1961 191.832 73.2272 191.84 73.2563C191.855 73.3151 191.904 73.3626 191.976 73.3882C192.048 73.4139 192.136 73.4156 192.222 73.3931C192.265 73.3819 192.306 73.3651 192.342 73.3436C192.378 73.3222 192.41 73.2965 192.435 73.268C192.459 73.2395 192.477 73.2088 192.486 73.1776C192.495 73.1464 192.496 73.1153 192.488 73.0862ZM199.568 74.1526C199.588 74.1076 199.544 74.037 199.448 73.9563C199.351 73.8756 199.208 73.7913 199.051 73.7221C198.894 73.6529 198.736 73.6043 198.611 73.5872C198.486 73.57 198.404 73.5856 198.384 73.6305C198.365 73.6755 198.408 73.7461 198.505 73.8268C198.602 73.9075 198.745 73.9918 198.901 74.061C199.058 74.1302 199.217 74.1788 199.342 74.1959C199.467 74.2131 199.548 74.1975 199.568 74.1526ZM200.382 74.262L201.031 74.5736C201.069 74.5908 201.113 74.5934 201.153 74.5808C201.192 74.5683 201.226 74.5414 201.248 74.5055C201.269 74.4695 201.277 74.4269 201.269 74.3858C201.261 74.3447 201.238 74.308 201.205 74.2826C200.962 74.112 200.692 74.063 200.396 74.1356C200.383 74.1387 200.37 74.146 200.361 74.1564C200.352 74.1668 200.346 74.1798 200.344 74.1936C200.343 74.2074 200.346 74.2214 200.352 74.2337C200.359 74.2459 200.369 74.2558 200.382 74.262ZM187.895 74.5209C187.889 74.4917 187.875 74.4644 187.855 74.4406C187.834 74.4168 187.806 74.3969 187.774 74.382C187.741 74.3671 187.704 74.3575 187.665 74.3539C187.626 74.3502 187.585 74.3524 187.545 74.3605C187.464 74.3769 187.391 74.4159 187.342 74.4691C187.293 74.5223 187.272 74.5852 187.284 74.644C187.29 74.6732 187.304 74.7004 187.324 74.7243C187.345 74.7481 187.373 74.768 187.405 74.7829C187.438 74.7978 187.475 74.8074 187.514 74.811C187.553 74.8147 187.594 74.8124 187.634 74.8044C187.715 74.788 187.788 74.749 187.837 74.6958C187.886 74.6426 187.907 74.5797 187.895 74.5209ZM190.382 75.0732C190.38 75.0038 190.346 74.9382 190.287 74.8909C190.229 74.8436 190.15 74.8183 190.069 74.8207C190.029 74.8219 189.989 74.8298 189.953 74.8441C189.916 74.8583 189.883 74.8786 189.855 74.9037C189.828 74.9289 189.806 74.9584 189.792 74.9906C189.777 75.0227 189.77 75.057 189.771 75.0913C189.773 75.1607 189.807 75.2263 189.866 75.2736C189.925 75.3209 190.004 75.3462 190.085 75.3438C190.125 75.3426 190.164 75.3346 190.201 75.3204C190.238 75.3062 190.271 75.2859 190.298 75.2608C190.326 75.2356 190.348 75.2061 190.362 75.1739C190.377 75.1418 190.383 75.1075 190.382 75.0732ZM183.313 75.9397C183.309 75.9244 183.297 75.9113 183.277 75.9014C183.257 75.8914 183.23 75.8847 183.197 75.8816C183.164 75.8785 183.126 75.879 183.085 75.8833C183.044 75.8875 183.001 75.8954 182.958 75.9063C182.872 75.9284 182.793 75.9619 182.738 75.9994C182.682 76.037 182.656 76.0754 182.664 76.1064C182.668 76.1217 182.68 76.1348 182.7 76.1447C182.72 76.1547 182.747 76.1614 182.78 76.1645C182.813 76.1676 182.851 76.1671 182.892 76.1628C182.933 76.1586 182.976 76.1507 183.018 76.1398C183.105 76.1177 183.184 76.0842 183.239 76.0467C183.294 76.0091 183.321 75.9707 183.313 75.9397ZM188.887 77.0529C188.869 76.99 188.75 76.9594 188.556 76.9677C188.363 76.976 188.111 77.0226 187.855 77.0973C187.6 77.1719 187.363 77.2684 187.195 77.3657C187.028 77.4629 186.944 77.5528 186.963 77.6157C186.981 77.6785 187.1 77.7092 187.293 77.7009C187.487 77.6925 187.739 77.6459 187.994 77.5713C188.249 77.4967 188.487 77.4001 188.654 77.3029C188.822 77.2057 188.905 77.1158 188.887 77.0529ZM195.093 77.8952C195.085 77.8684 195.042 77.8528 194.967 77.8495C194.892 77.8462 194.787 77.8551 194.657 77.8757C194.528 77.8964 194.376 77.9284 194.212 77.97C194.047 78.0115 193.873 78.0617 193.698 78.1178C193.523 78.1738 193.352 78.2346 193.194 78.2967C193.036 78.3588 192.894 78.4209 192.777 78.4795C192.66 78.5381 192.569 78.5921 192.51 78.6384C192.451 78.6846 192.425 78.7222 192.434 78.749C192.443 78.7759 192.485 78.7914 192.56 78.7948C192.635 78.7981 192.74 78.7892 192.87 78.7685C192.999 78.7478 193.151 78.7158 193.315 78.6743C193.48 78.6328 193.655 78.5826 193.829 78.5265C194.004 78.4704 194.175 78.4096 194.333 78.3476C194.491 78.2855 194.633 78.2234 194.75 78.1647C194.868 78.1061 194.958 78.0521 195.017 78.0059C195.076 77.9597 195.102 77.922 195.093 77.8952Z"/>
</mask>
<path d="M198.697 70.0078L205.829 80.1508L203.736 80.8652C203.65 80.8946 203.636 80.9436 203.695 81.0122C203.769 81.1004 203.862 81.1367 203.974 81.121C204.582 81.0289 205.268 80.8133 206.032 80.4742L207.39 82.3881L182.592 77.3255L179.122 76.6551C178.934 76.6395 178.812 76.5807 178.755 76.4787C178.74 76.4524 178.732 76.4232 178.73 76.3932C178.729 76.3632 178.734 76.3332 178.745 76.3054C178.756 76.2775 178.773 76.2525 178.795 76.2322C178.817 76.2118 178.844 76.1966 178.872 76.1877L198.697 70.0078ZM198.099 71.3545C198.091 71.3256 198.05 71.3063 197.979 71.2977C197.908 71.2891 197.808 71.2914 197.685 71.3045C197.563 71.3176 197.419 71.3412 197.263 71.374C197.107 71.4068 196.941 71.448 196.776 71.4955C196.441 71.5914 196.127 71.7065 195.903 71.8156C195.678 71.9248 195.562 72.0189 195.578 72.0774C195.587 72.1063 195.627 72.1256 195.698 72.1342C195.77 72.1428 195.869 72.1405 195.992 72.1274C196.115 72.1143 196.259 72.0907 196.415 72.0579C196.571 72.0252 196.737 71.9839 196.902 71.9364C197.236 71.8405 197.55 71.7254 197.775 71.6163C197.999 71.5071 198.116 71.413 198.099 71.3545ZM192.488 73.0862C192.473 73.0274 192.424 72.9799 192.352 72.9543C192.281 72.9286 192.192 72.9269 192.106 72.9494C192.063 72.9606 192.023 72.9774 191.986 72.9989C191.95 73.0203 191.919 73.046 191.894 73.0745C191.869 73.103 191.852 73.1338 191.842 73.1649C191.833 73.1961 191.832 73.2272 191.84 73.2563C191.855 73.3151 191.904 73.3626 191.976 73.3882C192.048 73.4139 192.136 73.4156 192.222 73.3931C192.265 73.3819 192.306 73.3651 192.342 73.3436C192.378 73.3222 192.41 73.2965 192.435 73.268C192.459 73.2395 192.477 73.2088 192.486 73.1776C192.495 73.1464 192.496 73.1153 192.488 73.0862ZM199.568 74.1526C199.588 74.1076 199.544 74.037 199.448 73.9563C199.351 73.8756 199.208 73.7913 199.051 73.7221C198.894 73.6529 198.736 73.6043 198.611 73.5872C198.486 73.57 198.404 73.5856 198.384 73.6305C198.365 73.6755 198.408 73.7461 198.505 73.8268C198.602 73.9075 198.745 73.9918 198.901 74.061C199.058 74.1302 199.217 74.1788 199.342 74.1959C199.467 74.2131 199.548 74.1975 199.568 74.1526ZM200.382 74.262L201.031 74.5736C201.069 74.5908 201.113 74.5934 201.153 74.5808C201.192 74.5683 201.226 74.5414 201.248 74.5055C201.269 74.4695 201.277 74.4269 201.269 74.3858C201.261 74.3447 201.238 74.308 201.205 74.2826C200.962 74.112 200.692 74.063 200.396 74.1356C200.383 74.1387 200.37 74.146 200.361 74.1564C200.352 74.1668 200.346 74.1798 200.344 74.1936C200.343 74.2074 200.346 74.2214 200.352 74.2337C200.359 74.2459 200.369 74.2558 200.382 74.262ZM187.895 74.5209C187.889 74.4917 187.875 74.4644 187.855 74.4406C187.834 74.4168 187.806 74.3969 187.774 74.382C187.741 74.3671 187.704 74.3575 187.665 74.3539C187.626 74.3502 187.585 74.3524 187.545 74.3605C187.464 74.3769 187.391 74.4159 187.342 74.4691C187.293 74.5223 187.272 74.5852 187.284 74.644C187.29 74.6732 187.304 74.7004 187.324 74.7243C187.345 74.7481 187.373 74.768 187.405 74.7829C187.438 74.7978 187.475 74.8074 187.514 74.811C187.553 74.8147 187.594 74.8124 187.634 74.8044C187.715 74.788 187.788 74.749 187.837 74.6958C187.886 74.6426 187.907 74.5797 187.895 74.5209ZM190.382 75.0732C190.38 75.0038 190.346 74.9382 190.287 74.8909C190.229 74.8436 190.15 74.8183 190.069 74.8207C190.029 74.8219 189.989 74.8298 189.953 74.8441C189.916 74.8583 189.883 74.8786 189.855 74.9037C189.828 74.9289 189.806 74.9584 189.792 74.9906C189.777 75.0227 189.77 75.057 189.771 75.0913C189.773 75.1607 189.807 75.2263 189.866 75.2736C189.925 75.3209 190.004 75.3462 190.085 75.3438C190.125 75.3426 190.164 75.3346 190.201 75.3204C190.238 75.3062 190.271 75.2859 190.298 75.2608C190.326 75.2356 190.348 75.2061 190.362 75.1739C190.377 75.1418 190.383 75.1075 190.382 75.0732ZM183.313 75.9397C183.309 75.9244 183.297 75.9113 183.277 75.9014C183.257 75.8914 183.23 75.8847 183.197 75.8816C183.164 75.8785 183.126 75.879 183.085 75.8833C183.044 75.8875 183.001 75.8954 182.958 75.9063C182.872 75.9284 182.793 75.9619 182.738 75.9994C182.682 76.037 182.656 76.0754 182.664 76.1064C182.668 76.1217 182.68 76.1348 182.7 76.1447C182.72 76.1547 182.747 76.1614 182.78 76.1645C182.813 76.1676 182.851 76.1671 182.892 76.1628C182.933 76.1586 182.976 76.1507 183.018 76.1398C183.105 76.1177 183.184 76.0842 183.239 76.0467C183.294 76.0091 183.321 75.9707 183.313 75.9397ZM188.887 77.0529C188.869 76.99 188.75 76.9594 188.556 76.9677C188.363 76.976 188.111 77.0226 187.855 77.0973C187.6 77.1719 187.363 77.2684 187.195 77.3657C187.028 77.4629 186.944 77.5528 186.963 77.6157C186.981 77.6785 187.1 77.7092 187.293 77.7009C187.487 77.6925 187.739 77.6459 187.994 77.5713C188.249 77.4967 188.487 77.4001 188.654 77.3029C188.822 77.2057 188.905 77.1158 188.887 77.0529ZM195.093 77.8952C195.085 77.8684 195.042 77.8528 194.967 77.8495C194.892 77.8462 194.787 77.8551 194.657 77.8757C194.528 77.8964 194.376 77.9284 194.212 77.97C194.047 78.0115 193.873 78.0617 193.698 78.1178C193.523 78.1738 193.352 78.2346 193.194 78.2967C193.036 78.3588 192.894 78.4209 192.777 78.4795C192.66 78.5381 192.569 78.5921 192.51 78.6384C192.451 78.6846 192.425 78.7222 192.434 78.749C192.443 78.7759 192.485 78.7914 192.56 78.7948C192.635 78.7981 192.74 78.7892 192.87 78.7685C192.999 78.7478 193.151 78.7158 193.315 78.6743C193.48 78.6328 193.655 78.5826 193.829 78.5265C194.004 78.4704 194.175 78.4096 194.333 78.3476C194.491 78.2855 194.633 78.2234 194.75 78.1647C194.868 78.1061 194.958 78.0521 195.017 78.0059C195.076 77.9597 195.102 77.922 195.093 77.8952Z" stroke="white" mask="url(#path-19-inside-2_310_21)"/>
<mask id="path-20-inside-3_310_21" fill="white">
<path d="M196.902 71.9388C197.598 71.7392 198.134 71.4787 198.099 71.357C198.064 71.2352 197.472 71.2983 196.776 71.4979C196.079 71.6976 195.543 71.9581 195.578 72.0798C195.613 72.2016 196.206 72.1384 196.902 71.9388Z"/>
</mask>
<path d="M197.619 71.4948C197.566 71.3098 197.643 71.1721 197.669 71.1329C197.698 71.0896 197.723 71.0725 197.714 71.0797C197.699 71.091 197.652 71.1226 197.556 71.169C197.373 71.2582 197.093 71.3638 196.764 71.4582L197.04 72.4195C197.407 72.3142 197.744 72.1898 197.993 72.0684C198.114 72.0095 198.238 71.9406 198.336 71.8627C198.383 71.8251 198.449 71.7662 198.503 71.6846C198.555 71.607 198.642 71.4345 198.58 71.2191L197.619 71.4948ZM196.764 71.4582C196.435 71.5526 196.142 71.611 195.939 71.6326C195.834 71.6439 195.776 71.6424 195.758 71.6404C195.747 71.6391 195.777 71.6404 195.824 71.662C195.867 71.6815 196.006 71.757 196.059 71.942L195.098 72.2176C195.159 72.433 195.325 72.5332 195.409 72.5718C195.498 72.6124 195.586 72.6272 195.646 72.634C195.77 72.6481 195.911 72.6413 196.045 72.627C196.321 72.5976 196.673 72.5247 197.04 72.4195L196.764 71.4582ZM196.059 71.942C196.112 72.127 196.034 72.2646 196.008 72.3039C195.98 72.3472 195.955 72.3643 195.964 72.3571C195.978 72.3458 196.026 72.3142 196.121 72.2678C196.305 72.1786 196.584 72.0729 196.913 71.9786L196.638 71.0173C196.271 71.1226 195.934 71.247 195.684 71.3684C195.563 71.4273 195.44 71.4961 195.342 71.5741C195.295 71.6116 195.228 71.6706 195.174 71.7522C195.123 71.8298 195.036 72.0022 195.098 72.2176L196.059 71.942ZM196.913 71.9786C197.242 71.8842 197.535 71.8258 197.738 71.8041C197.844 71.7929 197.901 71.7943 197.919 71.7964C197.931 71.7977 197.901 71.7963 197.853 71.7748C197.811 71.7553 197.672 71.6797 197.619 71.4948L198.58 71.2191C198.518 71.0037 198.353 70.9036 198.268 70.865C198.179 70.8243 198.092 70.8095 198.032 70.8027C197.907 70.7886 197.766 70.7955 197.632 70.8098C197.356 70.8392 197.005 70.9121 196.638 71.0173L196.913 71.9786Z" fill="white" mask="url(#path-20-inside-3_310_21)"/>
<mask id="path-22-inside-4_310_21" fill="white">
<path d="M192.223 73.3898C192.402 73.3429 192.521 73.2055 192.489 73.083C192.457 72.9605 192.285 72.8992 192.106 72.9462C191.927 72.9932 191.808 73.1306 191.84 73.2531C191.873 73.3756 192.044 73.4368 192.223 73.3898Z"/>
</mask>
<path d="M192.005 73.2098C191.967 73.0649 192.033 72.965 192.057 72.9372C192.083 72.9072 192.101 72.9049 192.096 72.9062L192.35 73.8735C192.524 73.8277 192.691 73.7333 192.813 73.5922C192.933 73.4534 193.043 73.2235 192.972 72.9561L192.005 73.2098ZM192.096 72.9062C192.091 72.9075 192.108 72.9008 192.145 72.9142C192.18 72.9266 192.286 72.9813 192.324 73.1262L191.357 73.3799C191.427 73.6474 191.635 73.7939 191.808 73.8558C191.984 73.9187 192.175 73.9192 192.35 73.8735L192.096 72.9062ZM192.324 73.1262C192.362 73.2711 192.296 73.371 192.272 73.3988C192.246 73.4288 192.229 73.4311 192.233 73.4298L191.98 72.4626C191.805 72.5083 191.639 72.6028 191.516 72.7438C191.396 72.8827 191.287 73.1125 191.357 73.3799L192.324 73.1262ZM192.233 73.4298C192.238 73.4286 192.222 73.4352 192.184 73.4218C192.15 73.4094 192.043 73.3548 192.005 73.2098L192.972 72.9561C192.902 72.6887 192.694 72.5421 192.521 72.4802C192.345 72.4174 192.154 72.4169 191.98 72.4626L192.233 73.4298Z" fill="white" mask="url(#path-22-inside-4_310_21)"/>
<path d="M210.931 88.3471C211.323 88.6823 211.446 89.2419 211.301 90.0259C211.122 91.002 210.431 91.3783 209.496 91.1901C207.257 90.7413 205.021 90.2895 202.787 89.8348M210.931 88.3471C209.432 88.2981 208.168 88.0121 206.823 87.7079C206.474 87.6289 206.119 87.5486 205.753 87.471M210.931 88.3471L210.768 88.5371C210.789 88.5549 210.809 88.5738 210.828 88.5936M210.931 88.3471L210.922 88.597C210.891 88.596 210.859 88.5948 210.828 88.5936M205.753 87.471C194.054 84.9857 182.36 82.4769 170.67 79.9446L157.525 77.1487C152.141 76.0315 146.72 74.8555 141.261 73.6207C141.172 73.5996 141.081 73.5413 141.001 73.4905C140.936 73.449 140.879 73.4127 140.838 73.4061C140.78 73.3981 140.721 73.403 140.665 73.4206C140.609 73.4382 140.558 73.4679 140.515 73.5076C140.472 73.5473 140.439 73.596 140.417 73.6502C140.396 73.7043 140.387 73.7625 140.391 73.8206C140.398 73.9306 140.403 74.0478 140.408 74.1693C140.437 74.8822 140.472 75.7431 141.053 76.1726C150.674 78.3423 160.305 80.4718 169.944 82.5612C170.144 82.6048 170.351 82.6688 170.566 82.7357C171.108 82.9035 171.705 83.0888 172.399 83.011M205.753 87.471L205.701 87.7156C194.002 85.2302 182.307 82.7214 170.618 80.1891C170.618 80.189 170.617 80.189 170.617 80.1889L157.475 77.3935C157.474 77.3934 157.474 77.3934 157.474 77.3933C152.089 76.2759 146.666 75.0996 141.206 73.8645L141.204 73.864L141.204 73.864C141.076 73.8338 140.959 73.76 140.889 73.7157C140.88 73.7099 140.872 73.7045 140.864 73.6994C140.836 73.6816 140.815 73.6686 140.796 73.6577C140.792 73.6555 140.789 73.6538 140.787 73.6524C140.771 73.6521 140.755 73.6543 140.74 73.6591C140.719 73.6656 140.701 73.6765 140.685 73.6909C140.669 73.7053 140.658 73.7229 140.65 73.7422C140.642 73.7615 140.639 73.7823 140.64 73.8029L140.641 73.8041L140.641 73.8041C140.649 73.9269 140.654 74.0517 140.659 74.1774C140.671 74.4663 140.683 74.7604 140.732 75.0489C140.799 75.4352 140.925 75.7443 141.162 75.941C150.765 78.1064 160.377 80.2316 169.997 82.3169L169.997 82.3169C170.184 82.3577 170.374 82.4146 170.561 82.4724C170.588 82.4806 170.615 82.4889 170.641 82.4971C170.804 82.5477 170.966 82.598 171.135 82.6425C171.524 82.7453 171.928 82.812 172.369 82.7628M205.753 87.471L205.701 87.7156C206.06 87.7918 206.411 87.8711 206.758 87.9496C208.077 88.2482 209.345 88.535 210.828 88.5936M172.399 83.011C172.474 83.0013 172.551 83.0125 172.622 83.0434C173.116 83.2551 173.618 83.4167 174.128 83.5285C177.024 84.1694 179.864 84.775 182.645 85.3454L188.916 86.5478C188.959 86.5553 188.999 86.5794 189.028 86.6155C189.12 86.7331 189.205 86.8026 189.283 86.8242C190.583 87.0035 191.741 87.2593 192.949 87.8179C193.515 88.0792 194.29 88.1137 194.901 88.1409C195.17 88.1529 195.407 88.1634 195.581 88.1913C195.749 88.2183 195.908 88.2401 196.062 88.261C196.678 88.3451 197.206 88.417 197.839 88.7676M172.399 83.011L172.371 82.7626C172.37 82.7626 172.37 82.7627 172.369 82.7628M172.399 83.011L172.367 82.7631C172.368 82.763 172.368 82.7629 172.369 82.7628M197.839 88.7676C199.01 89.4144 200.061 89.5142 201.151 89.6178C201.681 89.6681 202.22 89.7193 202.787 89.8348M197.839 88.7676L197.954 88.5597L197.96 88.5489C197.94 88.5378 197.92 88.527 197.9 88.5165M197.839 88.7676L197.954 88.5596C197.935 88.5456 197.918 88.5312 197.9 88.5165M202.787 89.8348L202.837 89.5898M202.787 89.8348L202.837 89.5898C202.837 89.5898 202.837 89.5898 202.837 89.5898M202.837 89.5898C205.071 90.0445 207.307 90.4962 209.545 90.945L209.545 90.945C209.972 91.0309 210.308 90.9812 210.55 90.8318C210.788 90.685 210.975 90.417 211.055 89.9807L211.055 89.9804C211.184 89.286 211.078 88.852 210.828 88.5936M202.837 89.5898C202.391 89.4991 201.954 89.4463 201.53 89.4033M201.53 89.4033C201.678 89.372 201.821 89.3186 201.952 89.2444C202.116 89.1515 202.259 89.0278 202.372 88.8798C202.485 88.7316 202.566 88.5625 202.609 88.382L202.61 88.3806L202.674 88.1058C202.674 88.1053 202.674 88.1049 202.674 88.1044L202.674 88.1042L202.431 88.0472M201.53 89.4033L198.244 86.4018M201.53 89.4033C201.493 89.4113 201.455 89.4178 201.417 89.4228C201.228 89.4481 201.035 89.4377 200.849 89.3927L197.9 88.5165M202.431 88.0472C202.442 88 202.444 87.9509 202.437 87.9028C202.429 87.8548 202.412 87.8087 202.387 87.7672C202.361 87.7257 202.328 87.6896 202.289 87.661C202.249 87.6323 202.205 87.6118 202.158 87.6004L198.186 86.6449M202.431 88.0472L202.366 88.3236L202.431 88.0472ZM198.186 86.6449L198.244 86.4018M198.186 86.6449L198.244 86.4018L198.244 86.4018M198.186 86.6449C198.138 86.6335 198.089 86.6315 198.041 86.6391C197.993 86.6467 197.947 86.6636 197.906 86.689C197.864 86.7144 197.828 86.7477 197.799 86.7871C197.771 86.8264 197.75 86.871 197.739 86.9183M198.244 86.4018C198.165 86.3827 198.083 86.3795 198.002 86.3921C197.922 86.4048 197.845 86.4332 197.775 86.4758C197.706 86.5183 197.645 86.5741 197.597 86.64C197.549 86.7058 197.515 86.7804 197.496 86.8595L197.739 86.9183M197.739 86.9183L197.496 86.8598M197.739 86.9183L197.671 87.1976C197.601 87.4925 197.658 87.8053 197.831 88.0671C198.005 88.329 198.279 88.5185 198.594 88.5941L197.496 86.8598M197.496 86.8598L197.428 87.1388L197.428 87.1395C197.341 87.5043 197.413 87.8877 197.623 88.205C197.7 88.322 197.794 88.4266 197.9 88.5165M197.496 86.8598L197.9 88.5165M197.9 88.5165C197.248 88.1691 196.684 88.0925 196.08 88.0107C195.93 87.9904 195.777 87.9697 195.62 87.9445L195.62 87.9445C195.463 87.9191 195.264 87.9075 195.057 87.8977C195.009 87.8955 194.96 87.8933 194.91 87.8911C194.74 87.8835 194.56 87.8755 194.376 87.8622C193.895 87.8276 193.418 87.7589 193.054 87.591C191.823 87.0219 190.646 86.7612 189.344 86.5803C189.339 86.5773 189.33 86.5718 189.319 86.5622C189.294 86.5424 189.263 86.5103 189.224 86.4613L189.224 86.4605C189.159 86.3791 189.067 86.3209 188.961 86.302C188.96 86.3018 188.959 86.3016 188.958 86.3015L182.695 85.1005C182.694 85.1004 182.694 85.1003 182.693 85.1002C179.914 84.5302 177.077 83.9249 174.182 83.2844L174.181 83.2843C173.688 83.1761 173.201 83.0193 172.721 82.8138C172.611 82.766 172.489 82.7477 172.369 82.7628M200.426 89.2912C200.4 89.288 200.374 89.2847 200.348 89.2814C199.765 89.207 199.19 89.0928 198.592 88.8507L200.426 89.2912ZM182.112 83.8639L182.112 83.864L182.101 83.9156C182.101 83.9156 182.101 83.9157 182.101 83.9157C182.062 84.0908 182.095 84.2741 182.192 84.4252C182.288 84.5763 182.441 84.6828 182.616 84.7213L189.91 86.3249C189.996 86.344 190.086 86.3458 190.173 86.3302C190.261 86.3146 190.344 86.282 190.419 86.2341L190.285 86.0235L190.419 86.2341C190.494 86.1863 190.559 86.1242 190.61 86.0513C190.66 85.9785 190.696 85.8964 190.715 85.8096L190.715 85.8095L190.727 85.7579C190.765 85.5827 190.733 85.3994 190.636 85.2483C190.539 85.0972 190.387 84.9907 190.211 84.9522L182.918 83.3486C182.831 83.3296 182.742 83.3278 182.654 83.3433C182.567 83.3589 182.483 83.3915 182.408 83.4394C182.334 83.4872 182.269 83.5494 182.218 83.6222C182.167 83.695 182.131 83.7772 182.112 83.8639ZM192.799 86.8731L192.949 86.673L192.799 86.8731C192.869 86.9254 192.949 86.9634 193.033 86.985L194.782 87.4308C194.953 87.4744 195.134 87.4483 195.286 87.3583C195.437 87.2683 195.547 87.1218 195.591 86.951L195.615 86.8542C195.637 86.7696 195.641 86.6816 195.629 86.5952C195.617 86.5088 195.587 86.4258 195.543 86.3507L195.328 86.4784L195.543 86.3507C195.498 86.2757 195.439 86.2101 195.369 86.1579C195.299 86.1056 195.22 86.0676 195.135 86.0461L193.386 85.6002C193.215 85.5567 193.034 85.5828 192.883 85.6727C192.731 85.7627 192.622 85.9092 192.578 86.08L192.553 86.1769C192.532 86.2614 192.527 86.3494 192.54 86.4358C192.552 86.5222 192.581 86.6053 192.626 86.6803C192.671 86.7553 192.729 86.8209 192.799 86.8731Z" stroke="white" stroke-width="0.5"/>
<mask id="path-25-inside-5_310_21" fill="white">
<path d="M198.902 74.0609C199.229 74.205 199.527 74.246 199.568 74.1524C199.61 74.0588 199.378 73.8661 199.051 73.722C198.724 73.5778 198.426 73.5368 198.385 73.6304C198.343 73.724 198.575 73.9167 198.902 74.0609Z"/>
</mask>
<path d="M199.111 73.9507C199.156 73.8483 199.229 73.7853 199.286 73.7511C199.34 73.7193 199.385 73.7093 199.403 73.7059C199.438 73.6997 199.445 73.7053 199.41 73.7005C199.347 73.6919 199.237 73.6622 199.104 73.6034L198.7 74.5184C198.894 74.6037 199.096 74.6666 199.274 74.6912C199.36 74.7029 199.47 74.7102 199.582 74.6898C199.674 74.6732 199.913 74.6093 200.026 74.3542L199.111 73.9507ZM199.104 73.6034C198.97 73.5446 198.874 73.4829 198.825 73.4424C198.798 73.4199 198.807 73.4216 198.826 73.4512C198.836 73.467 198.859 73.507 198.871 73.5681C198.885 73.6336 198.887 73.7298 198.842 73.8322L197.927 73.4286C197.815 73.6837 197.929 73.9037 197.979 73.9826C198.039 74.0791 198.119 74.1556 198.185 74.2109C198.324 74.3262 198.506 74.433 198.7 74.5184L199.104 73.6034ZM198.842 73.8322C198.797 73.9345 198.724 73.9975 198.667 74.0317C198.613 74.0635 198.568 74.0736 198.55 74.0769C198.515 74.0831 198.508 74.0776 198.543 74.0824C198.606 74.091 198.716 74.1207 198.849 74.1794L199.253 73.2645C199.059 73.1791 198.857 73.1162 198.679 73.0917C198.593 73.0799 198.483 73.0726 198.371 73.093C198.279 73.1097 198.04 73.1736 197.927 73.4286L198.842 73.8322ZM198.849 74.1794C198.983 74.2382 199.079 74.2999 199.128 74.3404C199.155 74.3629 199.146 74.3612 199.127 74.3317C199.117 74.3158 199.095 74.2759 199.082 74.2148C199.068 74.1492 199.066 74.053 199.111 73.9507L200.026 74.3542C200.138 74.0991 200.024 73.8792 199.974 73.8003C199.914 73.7037 199.834 73.6273 199.768 73.5719C199.629 73.4566 199.447 73.3499 199.253 73.2645L198.849 74.1794Z" fill="white" mask="url(#path-25-inside-5_310_21)"/>
<mask id="path-27-inside-6_310_21" fill="white">
<path d="M200.382 74.2604C200.369 74.2543 200.359 74.2444 200.352 74.2321C200.346 74.2199 200.343 74.2059 200.345 74.1921C200.346 74.1782 200.352 74.1652 200.361 74.1548C200.371 74.1445 200.383 74.1372 200.396 74.134C200.692 74.0615 200.962 74.1105 201.205 74.281C201.238 74.3064 201.261 74.3432 201.269 74.3843C201.277 74.4254 201.27 74.468 201.248 74.5039C201.227 74.5399 201.193 74.5667 201.153 74.5793C201.113 74.5919 201.07 74.5893 201.032 74.5721L200.382 74.2604Z"/>
</mask>
<path d="M200.382 74.2604L200.159 74.7083L200.166 74.7113L200.382 74.2604ZM200.396 74.134L200.51 74.621L200.515 74.6197L200.396 74.134ZM201.205 74.281L201.508 73.8834L201.5 73.8774L201.492 73.8717L201.205 74.281ZM201.032 74.5721L200.815 75.023L200.826 75.0279L201.032 74.5721ZM200.604 73.8126C200.684 73.8522 200.749 73.9155 200.792 73.9937L199.913 74.4706C199.969 74.5732 200.055 74.6563 200.159 74.7083L200.604 73.8126ZM200.792 73.9937C200.834 74.0719 200.852 74.1614 200.841 74.2498L199.848 74.1343C199.835 74.2504 199.857 74.3679 199.913 74.4706L200.792 73.9937ZM200.841 74.2498C200.831 74.3383 200.794 74.4214 200.734 74.4878L199.988 73.8219C199.911 73.9091 199.862 74.0182 199.848 74.1343L200.841 74.2498ZM200.734 74.4878C200.675 74.5542 200.597 74.6007 200.51 74.6209L200.283 73.6471C200.169 73.6737 200.066 73.7347 199.988 73.8219L200.734 74.4878ZM200.515 74.6197C200.676 74.5804 200.796 74.6051 200.918 74.6903L201.492 73.8717C201.128 73.6159 200.709 73.5426 200.277 73.6484L200.515 74.6197ZM200.902 74.6786C200.837 74.6296 200.793 74.5585 200.778 74.4792L201.76 74.2894C201.729 74.1278 201.639 73.9833 201.508 73.8834L200.902 74.6786ZM200.778 74.4792C200.763 74.3998 200.777 74.3175 200.819 74.248L201.678 74.7599C201.762 74.6185 201.791 74.451 201.76 74.2894L200.778 74.4792ZM200.819 74.248C200.86 74.1785 200.926 74.1266 201.003 74.1023L201.303 75.0562C201.46 75.0068 201.593 74.9013 201.678 74.7599L200.819 74.248ZM201.003 74.1023C201.08 74.0781 201.163 74.083 201.237 74.1163L200.826 75.0279C200.976 75.0956 201.146 75.1056 201.303 75.0562L201.003 74.1023ZM201.248 74.1213L200.598 73.8096L200.166 74.7113L200.815 75.0229L201.248 74.1213Z" fill="white" mask="url(#path-27-inside-6_310_21)"/>
<mask id="path-29-inside-7_310_21" fill="white">
<path d="M187.635 74.8041C187.803 74.7701 187.92 74.6432 187.895 74.5206C187.871 74.398 187.714 74.3263 187.545 74.3603C187.377 74.3943 187.26 74.5212 187.284 74.6438C187.309 74.7663 187.466 74.8381 187.635 74.8041Z"/>
</mask>
<path d="M187.405 74.6194C187.378 74.485 187.438 74.3911 187.47 74.3571C187.501 74.3226 187.528 74.3156 187.536 74.314L187.734 75.2942C187.91 75.2586 188.08 75.1711 188.206 75.034C188.331 74.8974 188.437 74.6787 188.386 74.4218L187.405 74.6194ZM187.536 74.314C187.544 74.3124 187.571 74.3085 187.614 74.328C187.656 74.3473 187.748 74.4105 187.775 74.545L186.794 74.7426C186.846 74.9996 187.029 75.1601 187.198 75.2373C187.367 75.3148 187.557 75.3298 187.734 75.2942L187.536 74.314ZM187.775 74.545C187.802 74.6794 187.742 74.7733 187.71 74.8073C187.679 74.8418 187.652 74.8488 187.644 74.8504L187.446 73.8701C187.27 73.9057 187.1 73.9933 186.974 74.1304C186.849 74.267 186.743 74.4856 186.794 74.7426L187.775 74.545ZM187.644 74.8504C187.636 74.852 187.609 74.8558 187.566 74.8364C187.524 74.8171 187.432 74.7538 187.405 74.6194L188.386 74.4218C188.334 74.1648 188.151 74.0043 187.982 73.9271C187.813 73.8496 187.623 73.8345 187.446 73.8701L187.644 74.8504Z" fill="white" mask="url(#path-29-inside-7_310_21)"/>
<path d="M190.077 75.0689C190.098 75.0683 190.114 75.0736 190.124 75.0792C190.114 75.0854 190.099 75.0916 190.077 75.0923C190.056 75.0929 190.04 75.0876 190.03 75.082C190.04 75.0758 190.056 75.0696 190.077 75.0689Z" stroke="white" stroke-width="0.5"/>
<mask id="path-32-inside-8_310_21" fill="white">
<path d="M183.019 76.1384C183.198 76.0924 183.33 76.0028 183.314 75.9383C183.297 75.8739 183.138 75.8589 182.959 75.9049C182.78 75.951 182.648 76.0406 182.664 76.105C182.681 76.1695 182.84 76.1845 183.019 76.1384Z"/>
</mask>
<path d="M182.829 76.0627C182.783 75.8824 182.858 75.7485 182.891 75.7019C182.926 75.6532 182.958 75.6324 182.959 75.6317C182.964 75.6278 182.943 75.6416 182.895 75.6541L183.143 76.6227C183.274 76.5892 183.408 76.5353 183.521 76.4589C183.575 76.422 183.648 76.3638 183.708 76.2787C183.767 76.1958 183.852 76.0265 183.798 75.814L182.829 76.0627ZM182.895 75.6541C182.846 75.6667 182.82 75.6647 182.827 75.6654C182.829 75.6655 182.867 75.6683 182.92 75.6944C182.972 75.7194 183.102 75.8004 183.149 75.9807L182.18 76.2294C182.235 76.4419 182.391 76.549 182.482 76.5934C182.576 76.639 182.668 76.6548 182.734 76.661C182.869 76.6737 183.013 76.6562 183.143 76.6227L182.895 75.6541ZM183.149 75.9807C183.195 76.161 183.119 76.2949 183.087 76.3414C183.052 76.3902 183.02 76.411 183.019 76.4117C183.013 76.4156 183.034 76.4018 183.083 76.3892L182.835 75.4206C182.704 75.4541 182.57 75.5081 182.457 75.5844C182.403 75.6213 182.33 75.6795 182.27 75.7646C182.211 75.8476 182.125 76.0168 182.18 76.2294L183.149 75.9807ZM183.083 76.3892C183.132 76.3767 183.157 76.3786 183.15 76.378C183.149 76.3779 183.111 76.3751 183.057 76.3489C183.006 76.324 182.876 76.243 182.829 76.0627L183.798 75.814C183.743 75.6014 183.587 75.4944 183.495 75.4499C183.402 75.4043 183.31 75.3886 183.244 75.3824C183.109 75.3696 182.965 75.3871 182.835 75.4206L183.083 76.3892Z" fill="white" mask="url(#path-32-inside-8_310_21)"/>
<mask id="path-34-inside-9_310_21" fill="white">
<path d="M141.053 76.1719C150.674 78.3416 160.305 80.4711 169.944 82.5605C170.647 82.7134 171.429 83.1191 172.399 83.0103C172.474 83.0006 172.551 83.0118 172.622 83.0427C173.116 83.2543 173.618 83.416 174.128 83.5278C177.025 84.1687 179.864 84.7743 182.645 85.3447C184.544 85.9601 186.582 86.4795 188.757 86.9029C189 86.9499 189.176 86.9234 189.283 86.8235C190.583 87.0028 191.741 87.2586 192.95 87.8172C193.764 88.1935 195.013 88.0994 195.581 88.1906C196.422 88.3258 197.048 88.3288 197.839 88.7668C199.579 89.7282 201.055 89.4813 202.787 89.8341C205.021 90.2888 207.258 90.7406 209.496 91.1894C210.431 91.3776 211.122 91.0012 211.301 90.0252C211.446 89.2412 211.323 88.6816 210.931 88.3464L212.88 88.5846C212.668 89.202 212.63 89.835 212.765 90.4838C212.842 90.8484 213.054 90.9659 213.403 90.8366L221.162 87.973C221.197 87.9613 221.234 87.9611 221.269 87.9725C221.304 87.9839 221.335 88.0064 221.356 88.0365C221.377 88.0666 221.388 88.1027 221.387 88.1395C221.386 88.1763 221.373 88.2117 221.35 88.2406C221.276 88.3307 221.316 88.4023 221.471 88.4552C221.075 88.5297 220.692 88.6316 220.324 88.7609C216.578 90.08 214.244 90.9424 213.321 91.3482C211.289 92.239 210.069 92.189 207.77 91.6304C201.605 90.1369 195.943 89.1108 189.213 87.4203C186.292 86.6853 180.389 85.477 171.502 83.7953C161.562 81.9137 151.651 79.4882 141.841 77.0215C141.556 76.949 141.109 76.7491 140.497 76.4218L141.053 76.1719Z"/>
</mask>
<path d="M141.053 76.1719L141.163 75.6841L141 75.6474L140.848 75.7159L141.053 76.1719ZM169.944 82.5605L170.05 82.0719L170.05 82.0718L169.944 82.5605ZM172.399 83.0103L172.455 83.5073L172.463 83.5062L172.399 83.0103ZM172.622 83.0427L172.424 83.5014L172.425 83.5022L172.622 83.0427ZM174.128 83.5278L174.236 83.0396L174.235 83.0394L174.128 83.5278ZM182.645 85.3447L182.799 84.869L182.773 84.8604L182.745 84.8549L182.645 85.3447ZM188.757 86.9029L188.662 87.3937L188.662 87.3938L188.757 86.9029ZM189.283 86.8235L189.352 86.3282L189.117 86.2958L188.943 86.4569L189.283 86.8235ZM192.95 87.8172L192.74 88.2711L192.74 88.2711L192.95 87.8172ZM195.581 88.1906L195.66 87.6969L195.66 87.6969L195.581 88.1906ZM197.839 88.7668L197.597 89.2042L197.597 89.2045L197.839 88.7668ZM202.787 89.8341L202.687 90.324L202.687 90.324L202.787 89.8341ZM209.496 91.1894L209.595 90.6992L209.594 90.6992L209.496 91.1894ZM211.301 90.0252L210.809 89.9342L210.809 89.9348L211.301 90.0252ZM210.931 88.3464L210.991 87.8501L209.346 87.649L210.606 88.7264L210.931 88.3464ZM212.88 88.5846L213.353 88.7467L213.553 88.1631L212.941 88.0882L212.88 88.5846ZM212.765 90.4838L212.276 90.5858L212.276 90.5864L212.765 90.4838ZM213.403 90.8366L213.23 90.3675L213.229 90.3678L213.403 90.8366ZM221.162 87.973L221.002 87.4992L220.989 87.504L221.162 87.973ZM221.35 88.2406L221.736 88.5591L221.742 88.5514L221.35 88.2406ZM221.471 88.4552L221.563 88.9466L223.428 88.5958L221.632 87.9821L221.471 88.4552ZM220.324 88.7609L220.158 88.2892L220.158 88.2893L220.324 88.7609ZM213.321 91.3482L213.522 91.8061L213.522 91.8059L213.321 91.3482ZM207.77 91.6304L207.888 91.1445L207.888 91.1444L207.77 91.6304ZM189.213 87.4203L189.091 87.9052L189.091 87.9052L189.213 87.4203ZM171.502 83.7953L171.409 84.2866L171.409 84.2866L171.502 83.7953ZM141.841 77.0215L141.717 77.506L141.719 77.5064L141.841 77.0215ZM140.497 76.4218L140.292 75.9658L139.365 76.3828L140.261 76.8626L140.497 76.4218ZM140.943 76.6596C150.566 78.8297 160.198 80.9595 169.838 83.0491L170.05 82.0718C160.412 79.9828 150.783 77.8535 141.163 75.6841L140.943 76.6596ZM169.838 83.0491C169.99 83.0823 170.153 83.1304 170.34 83.1883C170.522 83.2444 170.729 83.3101 170.943 83.3669C171.379 83.482 171.884 83.5712 172.455 83.5072L172.343 82.5134C171.944 82.5582 171.573 82.4989 171.199 82.4001C171.009 82.35 170.828 82.2924 170.635 82.2328C170.448 82.175 170.249 82.1152 170.05 82.0719L169.838 83.0491ZM172.463 83.5062C172.446 83.5083 172.433 83.5054 172.424 83.5014L172.821 82.5839C172.67 82.5182 172.502 82.4929 172.335 82.5144L172.463 83.5062ZM172.425 83.5022C172.948 83.726 173.479 83.8975 174.021 84.0162L174.235 83.0394C173.757 82.9346 173.285 82.7827 172.819 82.5831L172.425 83.5022ZM174.02 84.0159C176.919 84.6574 179.761 85.2636 182.544 85.8345L182.745 84.8549C179.967 84.285 177.13 83.6799 174.236 83.0396L174.02 84.0159ZM182.491 85.8203C184.411 86.4426 186.468 86.9669 188.662 87.3937L188.853 86.4121C186.695 85.9922 184.677 85.4776 182.799 84.869L182.491 85.8203ZM188.662 87.3938C188.956 87.4506 189.337 87.4554 189.623 87.1901L188.943 86.4569C188.959 86.4426 188.974 86.4334 188.986 86.4281C188.997 86.4231 189.002 86.4231 188.996 86.4239C188.982 86.426 188.938 86.4286 188.852 86.412L188.662 87.3938ZM189.215 87.3188C190.489 87.4946 191.594 87.7412 192.74 88.2711L193.159 87.3634C191.889 86.776 190.677 86.5111 189.352 86.3282L189.215 87.3188ZM192.74 88.2711C193.235 88.4998 193.829 88.5741 194.322 88.6096C194.573 88.6276 194.819 88.6366 195.021 88.6462C195.235 88.6562 195.392 88.6666 195.502 88.6843L195.66 87.6969C195.486 87.669 195.275 87.657 195.068 87.6473C194.852 87.6371 194.628 87.629 194.394 87.6121C193.917 87.5778 193.479 87.5109 193.159 87.3633L192.74 88.2711ZM195.502 88.6842C196.409 88.8302 196.905 88.8212 197.597 89.2042L198.081 88.3294C197.191 87.8363 196.434 87.8214 195.66 87.6969L195.502 88.6842ZM197.597 89.2045C198.542 89.7266 199.414 89.9176 200.253 90.0246C201.121 90.1354 201.839 90.1513 202.687 90.324L202.887 89.3441C202.003 89.164 201.118 89.1269 200.379 89.0327C199.612 88.9347 198.876 88.7684 198.081 88.3292L197.597 89.2045ZM202.687 90.324C204.922 90.7788 207.159 91.2307 209.398 91.6796L209.594 90.6992C207.356 90.2504 205.12 89.7987 202.887 89.3441L202.687 90.324ZM209.397 91.6796C209.946 91.79 210.492 91.7483 210.944 91.4693C211.405 91.1854 211.684 90.707 211.793 90.1155L210.809 89.9348C210.739 90.3193 210.583 90.5172 210.419 90.6184C210.247 90.7245 209.981 90.7769 209.595 90.6992L209.397 91.6796ZM211.793 90.1161C211.951 89.2594 211.847 88.4724 211.256 87.9664L210.606 88.7264C210.798 88.8908 210.941 89.2229 210.809 89.9342L211.793 90.1161ZM210.87 88.8427L212.819 89.0809L212.941 88.0882L210.991 87.8501L210.87 88.8427ZM212.407 88.4224C212.166 89.1261 212.122 89.8505 212.276 90.5858L213.255 90.3818C213.137 89.8195 213.171 89.2778 213.353 88.7467L212.407 88.4224ZM212.276 90.5864C212.328 90.8349 212.451 91.1233 212.74 91.283C213.029 91.4427 213.339 91.3937 213.577 91.3054L213.229 90.3678C213.205 90.3769 213.186 90.3819 213.174 90.3847C213.161 90.3874 213.156 90.3874 213.157 90.3874C213.158 90.3874 213.166 90.3874 213.179 90.3903C213.192 90.3933 213.208 90.3988 213.224 90.4079C213.24 90.4169 213.253 90.4273 213.263 90.4369C213.272 90.4462 213.276 90.4529 213.277 90.4538C213.277 90.4545 213.274 90.4498 213.27 90.4375C213.265 90.4252 213.26 90.4069 213.255 90.3812L212.276 90.5864ZM213.576 91.3057L221.335 88.4421L220.989 87.504L213.23 90.3675L213.576 91.3057ZM221.322 88.4467C221.255 88.4695 221.182 88.4698 221.114 88.4477L221.425 87.4973C221.287 87.4523 221.139 87.453 221.002 87.4993L221.322 88.4467ZM221.114 88.4477C221.046 88.4256 220.988 88.3823 220.947 88.3241L221.765 87.7488C221.682 87.6305 221.562 87.5422 221.425 87.4973L221.114 88.4477ZM220.947 88.3241C220.906 88.266 220.885 88.1961 220.887 88.1251L221.887 88.154C221.891 88.0093 221.848 87.8672 221.765 87.7488L220.947 88.3241ZM220.887 88.1251C220.889 88.0539 220.914 87.9855 220.958 87.9298L221.742 88.5514C221.832 88.438 221.882 88.2986 221.887 88.154L220.887 88.1251ZM220.965 87.9221C220.915 87.9826 220.853 88.076 220.827 88.201C220.797 88.339 220.818 88.4821 220.888 88.6067C221.005 88.815 221.214 88.8959 221.309 88.9283L221.632 87.9821C221.617 87.9769 221.625 87.9779 221.645 87.9905C221.663 88.0021 221.717 88.0398 221.76 88.117C221.81 88.2058 221.825 88.3108 221.805 88.4084C221.787 88.493 221.748 88.5436 221.735 88.559L220.965 87.9221ZM221.378 87.9638C220.958 88.0428 220.551 88.1512 220.158 88.2892L220.49 89.2327C220.833 89.112 221.191 89.0165 221.563 88.9466L221.378 87.9638ZM220.158 88.2893C216.419 89.6061 214.064 90.4754 213.12 90.8904L213.522 91.8059C214.424 91.4095 216.738 90.5539 220.49 89.2326L220.158 88.2893ZM213.12 90.8902C212.144 91.3182 211.394 91.5068 210.629 91.5331C209.853 91.5597 209.027 91.4213 207.888 91.1445L207.652 92.1163C208.812 92.3981 209.746 92.564 210.663 92.5325C211.59 92.5007 212.466 92.2689 213.522 91.8061L213.12 90.8902ZM207.888 91.1444C204.798 90.3959 201.834 89.7645 198.809 89.1105C195.782 88.4561 192.691 87.7785 189.335 86.9354L189.091 87.9052C192.465 88.7527 195.57 89.4333 198.598 90.0879C201.627 90.7429 204.577 91.3714 207.652 92.1163L207.888 91.1444ZM189.335 86.9354C186.398 86.1962 180.479 84.9852 171.595 83.304L171.409 84.2866C180.298 85.9687 186.187 87.1744 189.091 87.9052L189.335 86.9354ZM171.595 83.304C161.671 81.4254 151.773 79.0032 141.963 76.5366L141.719 77.5064C151.53 79.9732 161.453 82.402 171.409 84.2866L171.595 83.304ZM141.964 76.5371C141.745 76.481 141.344 76.308 140.733 75.9809L140.261 76.8626C140.873 77.1902 141.368 77.417 141.717 77.506L141.964 76.5371ZM140.702 76.8778L141.258 76.6279L140.848 75.7159L140.292 75.9658L140.702 76.8778Z" fill="white" mask="url(#path-34-inside-9_310_21)"/>
<path d="M185.239 81.739L185.239 81.7389C185.237 81.7313 185.234 81.7245 185.229 81.7189C185.225 81.7136 185.219 81.7094 185.213 81.7066C183.916 81.1508 182.902 80.4101 182.187 79.4779C181.792 78.9627 181.854 78.2801 182.217 77.5088L179.343 76.9534C179.328 76.9851 179.309 77.0162 179.283 77.0453C179.205 77.1338 179.102 77.1653 179.015 77.1728M185.239 81.739L178.993 76.9238M185.239 81.739C185.272 81.8669 185.326 81.9877 185.415 82.0839C185.507 82.1837 185.624 82.2444 185.757 82.2656L185.757 82.2657L185.759 82.2661C186.327 82.351 186.814 82.4565 187.223 82.5813L187.223 82.5814C187.831 82.7666 188.398 82.8775 188.947 82.9757C189.043 82.9928 189.139 83.0096 189.233 83.0262C189.684 83.1054 190.123 83.1827 190.579 83.2937L190.581 83.294C190.75 83.334 190.928 83.3359 191.075 83.3374C191.097 83.3376 191.119 83.3378 191.14 83.3382C191.31 83.3411 191.441 83.3514 191.557 83.3974M185.239 81.739L191.65 83.1654M179.015 77.1728C179.015 77.1728 179.015 77.1729 179.014 77.1729L178.993 76.9238M179.015 77.1728C179.015 77.1728 179.015 77.1728 179.016 77.1728L178.993 76.9238M179.015 77.1728C178.596 77.2108 178.218 77.332 177.818 77.46C177.799 77.4661 177.78 77.4722 177.761 77.4783C177.348 77.6104 176.908 77.7462 176.423 77.7559L176.422 77.7559C176.066 77.7623 175.654 77.9075 175.204 78.1025C175.08 78.1559 174.953 78.2137 174.824 78.272C174.505 78.4169 174.178 78.5654 173.881 78.6611L173.88 78.6613C173.264 78.8588 172.771 79.0279 172.306 79.1887C172.246 79.2095 172.186 79.2302 172.127 79.2508C171.734 79.3868 171.352 79.519 170.925 79.6591M178.993 76.9238C178.545 76.9642 178.143 77.0933 177.749 77.2197C177.311 77.3598 176.884 77.4966 176.418 77.5059C175.886 77.5154 175.283 77.7891 174.706 78.051C174.392 78.1933 174.086 78.3321 173.804 78.4232C173.105 78.6474 172.563 78.835 172.045 79.0146C171.645 79.153 171.259 79.2867 170.826 79.4287C170.783 79.4422 170.745 79.4691 170.718 79.5055C170.692 79.5419 170.677 79.586 170.676 79.6315L170.67 79.9461M170.925 79.6591L170.926 79.6362C170.926 79.6422 170.924 79.6485 170.919 79.6541C170.916 79.6592 170.91 79.6636 170.904 79.6662C170.903 79.6664 170.902 79.6666 170.902 79.6668M170.925 79.6591C170.918 79.6615 170.911 79.6639 170.904 79.6663L170.902 79.6668M170.925 79.6591L170.924 79.7453M170.902 79.6668C170.902 79.6669 170.901 79.667 170.901 79.667L170.901 79.667L170.902 79.6668ZM170.924 79.7453C170.857 79.7308 170.79 79.7163 170.723 79.7018L170.67 79.9461M170.924 79.7453L170.92 79.9508L170.67 79.9461M170.924 79.7453C180.339 81.7847 189.757 83.8088 199.178 85.8176C199.018 85.7261 198.861 85.6016 198.704 85.437L198.701 85.4338L198.701 85.4337C198.673 85.403 198.642 85.386 198.599 85.3791L198.598 85.3791C198.085 85.296 197.614 85.1403 197.169 84.9927L197.168 84.9925C196.717 84.8431 196.292 84.7023 195.839 84.6296C195.558 84.5864 195.301 84.4828 195.069 84.3197M170.67 79.9461L195.213 84.115M195.069 84.3197C195.069 84.3195 195.069 84.3194 195.069 84.3193L195.213 84.115M195.069 84.3197C195.07 84.3197 195.07 84.3198 195.07 84.3198L195.213 84.115M195.069 84.3197C195.019 84.2844 194.964 84.2607 194.903 84.2481L194.902 84.2477C194.68 84.2 194.455 84.1543 194.227 84.1081C193.337 83.9279 192.41 83.7404 191.557 83.3974M195.213 84.115C195.135 84.0601 195.048 84.0229 194.954 84.0033C194.726 83.9541 194.496 83.9074 194.265 83.8606C193.377 83.6808 192.48 83.499 191.65 83.1654M191.557 83.3974C191.557 83.3974 191.557 83.3975 191.557 83.3975L191.65 83.1654M191.557 83.3974L191.65 83.1654M200.178 86.0308C202.054 86.4304 203.929 86.8295 205.805 87.228C206.177 87.307 206.537 87.3882 206.889 87.4678C208.23 87.771 209.466 88.0506 210.938 88.0988L210.95 88.0991L210.961 88.1005L212.899 88.3372L213.239 88.3478L213.2 88.3131L200.178 86.0308ZM200.178 86.0308C200.319 86.023 200.458 86.0056 200.589 85.9893C200.623 85.9851 200.656 85.981 200.688 85.9771C200.883 85.9538 201.064 85.9377 201.247 85.9519C201.669 85.985 202.02 86.0729 202.377 86.1625C202.54 86.2036 202.706 86.245 202.88 86.2817C203.423 86.3961 203.993 86.4434 204.706 86.2075C206.059 85.7593 207.408 85.2608 208.751 84.7118L210.478 87.0789L210.479 87.0799C210.568 87.201 210.697 87.3137 210.872 87.3317C211.049 87.3498 211.197 87.2646 211.308 87.1627C211.308 87.1627 211.308 87.1627 211.308 87.1627L211.559 86.9319C211.659 87.0356 211.778 87.1116 211.916 87.1518C212.068 87.196 212.228 87.1923 212.388 87.1549M200.178 86.0308L213.199 88.3129C213.124 88.247 213.044 88.1438 213.041 88.003C213.038 87.8623 213.113 87.7558 213.185 87.6866C213.213 87.6592 213.243 87.6347 213.274 87.6128L212.421 87.1598L212.536 86.9374L212.418 87.1582L212.42 87.1593C212.41 87.1541 212.398 87.1528 212.388 87.1549M212.388 87.1549C212.387 87.1549 212.387 87.155 212.387 87.1551L212.333 86.911L212.39 87.1543C212.389 87.1545 212.388 87.1547 212.388 87.1549Z" stroke="white" stroke-width="0.5"/>
<path d="M188.665 76.986C188.666 76.986 188.664 76.9878 188.661 76.9917C188.663 76.988 188.665 76.9861 188.665 76.986ZM187.114 77.4397C187.114 77.4396 187.117 77.4403 187.121 77.4421C187.116 77.4407 187.114 77.4398 187.114 77.4397ZM187.185 77.6831C187.185 77.6831 187.186 77.6813 187.189 77.6774C187.187 77.6811 187.185 77.683 187.185 77.6831ZM188.736 77.2294C188.736 77.2295 188.734 77.2288 188.73 77.227C188.735 77.2284 188.737 77.2293 188.736 77.2294Z" stroke="white" stroke-width="0.5"/>
<path d="M208.45 84.2923L207.245 82.6122L182.725 77.6065C182.335 78.374 182.349 78.8645 182.584 79.1712L182.585 79.1713C183.237 80.0221 184.175 80.7158 185.413 81.2457L185.416 81.2471L185.416 81.2471C185.492 81.281 185.559 81.3317 185.613 81.3953L185.421 81.556L185.613 81.3954C185.666 81.459 185.704 81.5339 185.724 81.6143M208.45 84.2923L185.482 81.6754M208.45 84.2923C207.154 84.819 205.854 85.2984 204.549 85.7305L204.549 85.7305C203.947 85.9297 203.473 85.8932 202.983 85.7901C202.844 85.7607 202.697 85.724 202.543 85.6856C202.169 85.592 201.752 85.4876 201.286 85.451L201.286 85.451C201.052 85.4328 200.83 85.4543 200.629 85.4783C200.591 85.4828 200.554 85.4873 200.519 85.4918C200.357 85.5118 200.213 85.5297 200.068 85.5323C199.897 85.5354 199.737 85.5161 199.579 85.4545C199.422 85.3932 199.252 85.2846 199.068 85.0912C198.963 84.9781 198.83 84.9076 198.678 84.8831L208.45 84.2923ZM185.724 81.6143L185.482 81.6754M185.724 81.6143C185.724 81.6143 185.724 81.6142 185.724 81.6142L185.482 81.6754M185.724 81.6143C185.743 81.6882 185.767 81.7252 185.783 81.7426C185.795 81.7563 185.809 81.7652 185.835 81.7695M185.482 81.6754C185.533 81.8773 185.638 81.991 185.797 82.0165M185.835 81.7695C185.835 81.7694 185.834 81.7693 185.834 81.7692L185.797 82.0165M185.835 81.7695C185.835 81.7695 185.836 81.7696 185.836 81.7696L185.797 82.0165M185.835 81.7695C186.419 81.8569 186.931 81.967 187.369 82.1007M185.797 82.0165L190.639 83.0484L190.698 82.8055C190.698 82.8054 190.697 82.8054 190.697 82.8053C190.224 82.6902 189.766 82.6097 189.315 82.5306C189.222 82.5141 189.129 82.4977 189.036 82.4811C188.491 82.3838 187.948 82.2771 187.369 82.1007M187.369 82.1007C187.369 82.1007 187.369 82.1008 187.369 82.1008L187.296 82.3399L187.369 82.1007C187.369 82.1007 187.369 82.1007 187.369 82.1007ZM195.007 83.7564C195.006 83.7563 195.006 83.7563 195.006 83.7562L194.955 84.001L195.007 83.7566C195.007 83.7565 195.007 83.7565 195.007 83.7564Z" stroke="white" stroke-width="0.5"/>
<mask id="path-39-inside-10_310_21" fill="white">
<path d="M193.83 78.5287C194.564 78.2929 195.13 78.0103 195.094 77.8974C195.057 77.7846 194.433 77.8842 193.698 78.12C192.964 78.3557 192.398 78.6384 192.434 78.7512C192.47 78.8641 193.095 78.7644 193.83 78.5287Z"/>
</mask>
<path d="M194.617 78.0503C194.55 77.8396 194.652 77.6857 194.672 77.6584C194.699 77.6191 194.721 77.6051 194.708 77.6153C194.687 77.6318 194.631 77.668 194.527 77.7196C194.327 77.8194 194.027 77.94 193.677 78.0526L193.982 79.0047C194.366 78.8816 194.716 78.743 194.974 78.6143C195.099 78.5517 195.223 78.4813 195.321 78.4057C195.367 78.3699 195.433 78.3134 195.488 78.2361C195.534 78.1708 195.646 77.9835 195.57 77.7446L194.617 78.0503ZM193.677 78.0526C193.326 78.1652 193.012 78.2418 192.791 78.2769C192.677 78.2951 192.61 78.2986 192.583 78.2976C192.567 78.2969 192.593 78.2955 192.638 78.3113C192.67 78.3222 192.843 78.3877 192.91 78.5984L191.958 78.9041C192.035 79.143 192.235 79.23 192.311 79.2562C192.4 79.2872 192.487 79.2946 192.545 79.2969C192.669 79.3015 192.81 79.2865 192.949 79.2644C193.233 79.2191 193.599 79.1279 193.982 79.0047L193.677 78.0526ZM192.91 78.5984C192.978 78.8091 192.876 78.9629 192.856 78.9902C192.828 79.0295 192.806 79.0436 192.819 79.0334C192.841 79.0169 192.897 78.9806 193.001 78.929C193.2 78.8293 193.5 78.7086 193.851 78.596L193.545 77.6439C193.162 77.7671 192.812 77.9056 192.554 78.0344C192.429 78.097 192.305 78.1673 192.207 78.2429C192.161 78.2788 192.095 78.3352 192.04 78.4125C191.994 78.4778 191.881 78.6652 191.958 78.9041L192.91 78.5984ZM193.851 78.596C194.202 78.4834 194.516 78.4069 194.736 78.3717C194.851 78.3535 194.918 78.35 194.945 78.3511C194.961 78.3517 194.935 78.3531 194.89 78.3374C194.858 78.3264 194.685 78.2609 194.617 78.0503L195.57 77.7446C195.493 77.5057 195.293 77.4186 195.217 77.3925C195.128 77.3615 195.041 77.354 194.982 77.3518C194.859 77.3471 194.717 77.3621 194.579 77.3842C194.294 77.4296 193.929 77.5207 193.545 77.6439L193.851 78.596Z" fill="white" mask="url(#path-39-inside-10_310_21)"/>
<mask id="path-41-inside-11_310_21" fill="white">
<path d="M205.829 80.1484C205.931 80.2406 205.999 80.3484 206.032 80.4718C205.268 80.8109 204.582 81.0265 203.974 81.1186C203.863 81.1343 203.769 81.0981 203.695 81.0099C203.636 80.9413 203.65 80.8923 203.736 80.8629L205.829 80.1484Z"/>
</mask>
<path d="M205.829 80.1484L206.165 79.7775L205.946 79.5802L205.668 79.6752L205.829 80.1484ZM206.032 80.4718L206.235 80.9289L206.627 80.7552L206.515 80.3416L206.032 80.4718ZM203.974 81.1186L204.044 81.6138L204.049 81.613L203.974 81.1186ZM203.695 81.0099L204.077 80.6873L204.075 80.6845L203.695 81.0099ZM203.736 80.8629L203.897 81.3361L203.898 81.3361L203.736 80.8629ZM205.494 80.5194C205.53 80.5521 205.543 80.5783 205.55 80.6021L206.515 80.3416C206.455 80.1184 206.332 79.929 206.165 79.7775L205.494 80.5194ZM205.829 80.0148C205.092 80.3418 204.45 80.5408 203.899 80.6243L204.049 81.613C204.713 81.5123 205.443 81.28 206.235 80.9289L205.829 80.0148ZM203.905 80.6235C203.923 80.621 203.959 80.6205 204.002 80.6373C204.045 80.6539 204.069 80.6776 204.077 80.6873L203.313 81.3324C203.495 81.5482 203.757 81.654 204.044 81.6138L203.905 80.6235ZM204.075 80.6845C204.082 80.6935 204.11 80.7266 204.131 80.7831C204.155 80.8445 204.174 80.9428 204.143 81.0565C204.111 81.1697 204.044 81.2427 203.994 81.282C203.947 81.3184 203.908 81.3325 203.897 81.3361L203.575 80.3896C203.496 80.4166 203.257 80.5117 203.18 80.7868C203.102 81.0647 203.26 81.2707 203.315 81.3353L204.075 80.6845ZM203.898 81.3361L205.991 80.6216L205.668 79.6752L203.575 80.3897L203.898 81.3361Z" fill="white" mask="url(#path-41-inside-11_310_21)"/>
<path d="M182.81 83.8357L190.104 85.4393C190.199 85.4602 190.259 85.5542 190.238 85.6493L190.227 85.701C190.206 85.7961 190.112 85.8562 190.017 85.8353L182.723 84.2318C182.628 84.2109 182.568 84.1168 182.589 84.0217L182.6 83.97C182.621 83.8749 182.715 83.8148 182.81 83.8357Z" stroke="white" stroke-width="0.5"/>
<mask id="path-44-inside-12_310_21" fill="white">
<path d="M189.283 86.8226C189.175 86.9225 189 86.949 188.757 86.902C186.581 86.4786 184.544 85.9592 182.645 85.3438L188.916 86.5462C188.959 86.5537 188.999 86.5778 189.027 86.6138C189.119 86.7314 189.205 86.801 189.283 86.8226Z"/>
</mask>
<path d="M189.283 86.8226L189.623 87.1892L190.282 86.5786L189.416 86.3405L189.283 86.8226ZM188.757 86.902L188.661 87.3927L188.662 87.3928L188.757 86.902ZM182.645 85.3438L182.739 84.8527L182.49 85.8194L182.645 85.3438ZM188.916 86.5462L188.821 87.0374L188.831 87.039L188.916 86.5462ZM189.027 86.6138L189.421 86.3055L189.42 86.3038L189.027 86.6138ZM188.943 86.4559C188.958 86.4417 188.974 86.4325 188.986 86.4272C188.997 86.4222 189.002 86.4221 188.996 86.423C188.982 86.4251 188.938 86.4277 188.852 86.4111L188.662 87.3928C188.955 87.4497 189.337 87.4544 189.623 87.1892L188.943 86.4559ZM188.852 86.4112C186.694 85.9912 184.677 85.4767 182.799 84.8681L182.49 85.8194C184.411 86.4417 186.468 86.9659 188.661 87.3927L188.852 86.4112ZM182.55 85.8348L188.821 87.0373L189.01 86.0552L182.739 84.8527L182.55 85.8348ZM188.831 87.039C188.747 87.0246 188.679 86.9799 188.635 86.9239L189.42 86.3038C189.318 86.1756 189.171 86.0827 189 86.0534L188.831 87.039ZM188.634 86.9222C188.744 87.0627 188.913 87.2393 189.15 87.3047L189.416 86.3405C189.44 86.3471 189.457 86.3554 189.466 86.3606C189.475 86.3657 189.479 86.3688 189.476 86.3668C189.474 86.365 189.468 86.3596 189.458 86.3491C189.448 86.3387 189.436 86.3244 189.421 86.3055L188.634 86.9222Z" fill="white" mask="url(#path-44-inside-12_310_21)"/>
<path d="M193.263 86.0868L195.012 86.5327C195.1 86.5552 195.153 86.6447 195.131 86.7328L195.106 86.8297C195.084 86.9177 194.994 86.9709 194.906 86.9485L193.157 86.5026C193.069 86.4801 193.016 86.3906 193.038 86.3025L193.063 86.2056C193.085 86.1176 193.175 86.0644 193.263 86.0868Z" stroke="white" stroke-width="0.5"/>
<path d="M202.188 87.987L202.187 87.9885L202.123 88.2635C202.123 88.2637 202.123 88.264 202.123 88.2642C202.096 88.3758 202.046 88.4812 201.975 88.5742C201.903 88.6675 201.812 88.747 201.705 88.8076C201.598 88.8682 201.478 88.9085 201.351 88.9255C201.224 88.9424 201.093 88.9356 200.967 88.905L200.966 88.9049L198.652 88.3492L198.652 88.3492C198.396 88.2879 198.177 88.1346 198.04 87.9275C197.903 87.7212 197.86 87.4791 197.914 87.2543L197.982 86.9754L197.982 86.9751C197.985 86.9597 197.992 86.9452 198.001 86.9324C198.011 86.9196 198.022 86.9088 198.036 86.9005C198.049 86.8923 198.064 86.8867 198.08 86.8843C198.096 86.8818 198.111 86.8825 198.127 86.8862L198.127 86.8862L202.099 87.8417C202.114 87.8454 202.129 87.8521 202.141 87.8614C202.154 87.8707 202.165 87.8824 202.173 87.8959C202.182 87.9094 202.187 87.9244 202.19 87.94C202.192 87.9556 202.191 87.9716 202.188 87.987Z" stroke="white" stroke-width="0.5"/>
<path d="M282 63L213 88L212 91.5L280.5 65.5L282 63Z" fill="white"/>
<path d="M226.25 150C226.25 151.707 225.093 153.485 222.637 155.227C220.2 156.955 216.625 158.543 212.14 159.888C203.179 162.576 190.755 164.25 177 164.25C163.245 164.25 150.821 162.576 141.86 159.888C137.375 158.543 133.8 156.955 131.363 155.227C128.907 153.485 127.75 151.707 127.75 150C127.75 148.293 128.907 146.515 131.363 144.773C133.8 143.045 137.375 141.457 141.86 140.112C150.821 137.424 163.245 135.75 177 135.75C190.755 135.75 203.179 137.424 212.14 140.112C216.625 141.457 220.2 143.045 222.637 144.773C225.093 146.515 226.25 148.293 226.25 150Z" stroke="white" stroke-width="1.5"/>
<path d="M126 149C126.4 147.8 128.167 146.5 129 146C128.333 146.519 127 148.147 127 150.5C127 153.442 135 158.5 139.5 160C144 161.5 149.5 164 172 164.5C194.5 165 214.5 160 222 156.5C229.5 153 226 148 226.5 148C227 148 227.5 150 228 151C228.5 152 228 153.5 228 156.5C228 158.9 227.667 162.833 227.5 164.5C226.833 166 225.1 169.3 223.5 170.5C221.5 172 219.5 173 216.5 174.5C213.5 176 208.5 177 203.5 178.5C198.5 180 183.5 181 181 181H166.5C165 181 153.5 180 149 179C144.5 178 136 175 135 174.5C134 174 130 171.5 128 169C126 166.5 126 165.5 126 165C126 164.5 125.5 159.5 125.5 159V152C125.5 151.5 125.5 150.5 126 149Z" stroke="white" stroke-width="1.5"/>
<path d="M410.465 124.497C410.465 126.009 409.441 127.549 407.348 129.034C405.267 130.51 402.224 131.86 398.418 133.001C390.813 135.283 380.277 136.701 368.618 136.701C356.958 136.701 346.422 135.283 338.817 133.001C335.012 131.86 331.968 130.51 329.888 129.034C327.794 127.549 326.77 126.009 326.77 124.497C326.77 122.985 327.794 121.445 329.888 119.96C331.968 118.484 335.012 117.135 338.817 115.993C346.422 113.711 356.958 112.293 368.618 112.293C380.277 112.293 390.813 113.711 398.418 115.993C402.224 117.135 405.267 118.484 407.348 119.96C409.441 121.445 410.465 122.985 410.465 124.497Z" stroke="white"/>
<path d="M325.423 123.65C325.762 122.634 327.259 121.533 327.964 121.109C327.4 121.549 326.27 122.927 326.27 124.921C326.27 127.412 333.046 131.696 336.857 132.967C340.668 134.237 345.327 136.354 364.383 136.778C383.439 137.201 400.378 132.967 406.73 130.002C413.082 127.038 410.118 122.803 410.541 122.803C410.965 122.803 411.388 124.497 411.812 125.344C412.235 126.191 411.812 127.461 411.812 130.002C411.812 132.035 411.529 135.366 411.388 136.778C410.824 138.048 409.356 140.843 408.001 141.86C406.307 143.13 404.613 143.977 402.072 145.247C399.531 146.518 395.296 147.365 391.062 148.635C386.827 149.905 374.123 150.752 372.005 150.752H359.725C358.454 150.752 348.714 149.905 344.903 149.059C341.092 148.212 333.893 145.671 333.046 145.247C332.199 144.824 328.811 142.706 327.117 140.589C325.423 138.472 325.423 137.625 325.423 137.201C325.423 136.778 325 132.543 325 132.12V126.191C325 125.768 325 124.921 325.423 123.65Z" stroke="white"/>
<path d="M84.4887 113.412C84.4887 114.883 83.4926 116.386 81.4481 117.836C79.4166 119.277 76.4445 120.595 72.7269 121.71C65.2981 123.939 55.0054 125.324 43.615 125.324C32.2246 125.324 21.9318 123.939 14.503 121.71C10.7854 120.595 7.81339 119.277 5.78189 117.836C3.7374 116.386 2.74127 114.883 2.74127 113.412C2.74127 111.941 3.7374 110.439 5.78189 108.989C7.81339 107.548 10.7854 106.23 14.503 105.114C21.9318 102.886 32.2246 101.5 43.615 101.5C55.0054 101.5 65.2981 102.886 72.7269 105.114C76.4445 106.23 79.4166 107.548 81.4481 108.989C83.4926 110.439 84.4887 111.941 84.4887 113.412Z" stroke="white"/>
<path d="M1.41374 112.584C1.74473 111.591 3.2066 110.515 3.89616 110.102C3.34451 110.531 2.24121 111.878 2.24121 113.825C2.24121 116.259 8.86101 120.445 12.5846 121.686C16.3083 122.927 20.8594 124.996 39.4776 125.41C58.0957 125.824 74.6452 121.686 80.8513 118.79C87.0573 115.894 84.1612 111.757 84.5749 111.757C84.9886 111.757 85.4024 113.411 85.8161 114.239C86.2299 115.066 85.8161 116.308 85.8161 118.79C85.8161 120.776 85.5403 124.031 85.4024 125.41C84.8507 126.651 83.4164 129.382 82.0925 130.375C80.4375 131.616 78.7826 132.443 76.3002 133.685C73.8177 134.926 69.6804 135.753 65.543 136.994C61.4056 138.236 48.9935 139.063 46.9248 139.063H34.9264C33.6852 139.063 24.1693 138.236 20.4456 137.408C16.722 136.581 9.68848 134.098 8.86101 133.685C8.03353 133.271 4.72363 131.202 3.06869 129.133C1.41374 127.065 1.41374 126.237 1.41374 125.824C1.41374 125.41 1 121.272 1 120.859V115.066C1 114.653 1 113.825 1.41374 112.584Z" stroke="white"/>
</svg>
